<?xml version="1.0" encoding="UTF-8" standalone="no"?>
<!DOCTYPE svg PUBLIC "-//W3C//DTD SVG 1.1//EN"
 "http://www.w3.org/Graphics/SVG/1.1/DTD/svg11.dtd">
<!-- Generated by graphviz version 2.40.1 (20161225.0304)
 -->
<!-- Title: %3 Pages: 1 -->
<svg width="497pt" height="188pt"
 viewBox="0.00 0.00 497.41 188.00" xmlns="http://www.w3.org/2000/svg" xmlns:xlink="http://www.w3.org/1999/xlink">
<g id="graph0" class="graph" transform="scale(1 1) rotate(0) translate(4 184)">
<title>%3</title>
<!-- Web -->
<g id="node1" class="node">
<title>Web</title>
<ellipse fill="none" stroke="#000000" cx="195.1604" cy="-162" rx="75.1194" ry="18"/>
<text text-anchor="middle" x="195.1604" y="-157.8" font-family="Times,serif" font-size="14.00" fill="#000000">The Web Platform</text>
</g>
<!-- HTML -->
<g id="node2" class="node">
<title>HTML</title>
<ellipse fill="none" stroke="#000000" cx="35.1604" cy="-90" rx="35.3216" ry="18"/>
<text text-anchor="middle" x="35.1604" y="-85.8" font-family="Times,serif" font-size="14.00" fill="#000000">HTML</text>
</g>
<!-- Web&#45;&gt;HTML -->
<g id="edge1" class="edge">
<title>Web&#45;&gt;HTML</title>
<path fill="none" stroke="#000000" d="M159.6512,-146.0209C133.2487,-134.1397 97.3663,-117.9927 70.9072,-106.086"/>
<polygon fill="#000000" stroke="#000000" points="72.1759,-102.819 61.6204,-101.907 69.3034,-109.2024 72.1759,-102.819"/>
</g>
<!-- CSS -->
<g id="node3" class="node">
<title>CSS</title>
<ellipse fill="none" stroke="#000000" cx="120.1604" cy="-90" rx="27" ry="18"/>
<text text-anchor="middle" x="120.1604" y="-85.8" font-family="Times,serif" font-size="14.00" fill="#000000">CSS</text>
</g>
<!-- Web&#45;&gt;CSS -->
<g id="edge2" class="edge">
<title>Web&#45;&gt;CSS</title>
<path fill="none" stroke="#000000" d="M176.6211,-144.2022C166.5682,-134.5515 154.0483,-122.5323 143.3543,-112.2661"/>
<polygon fill="#000000" stroke="#000000" points="145.5892,-109.5599 135.9515,-105.1594 140.7415,-114.6096 145.5892,-109.5599"/>
</g>
<!-- JS -->
<g id="node4" class="node">
<title>JS</title>
<ellipse fill="none" stroke="#000000" cx="195.1604" cy="-90" rx="27" ry="18"/>
<text text-anchor="middle" x="195.1604" y="-85.8" font-family="Times,serif" font-size="14.00" fill="#000000">JS</text>
</g>
<!-- Web&#45;&gt;JS -->
<g id="edge3" class="edge">
<title>Web&#45;&gt;JS</title>
<path fill="none" stroke="#000000" d="M195.1604,-143.8314C195.1604,-136.131 195.1604,-126.9743 195.1604,-118.4166"/>
<polygon fill="#000000" stroke="#000000" points="198.6605,-118.4132 195.1604,-108.4133 191.6605,-118.4133 198.6605,-118.4132"/>
</g>
<!-- Java -->
<g id="node5" class="node">
<title>Java</title>
<ellipse fill="none" stroke="#000000" stroke-dasharray="5,2" cx="286.1604" cy="-90" rx="27" ry="18"/>
<text text-anchor="middle" x="286.1604" y="-85.8" font-family="Times,serif" font-size="14.00" fill="#000000">Java</text>
</g>
<!-- Web&#45;&gt;Java -->
<g id="edge4" class="edge">
<title>Web&#45;&gt;Java</title>
<path fill="none" stroke="#000000" stroke-dasharray="5,2" d="M217.189,-144.5708C230.257,-134.2312 246.8823,-121.0772 260.5357,-110.2745"/>
<polygon fill="#000000" stroke="#000000" points="262.924,-112.848 268.5945,-103.8983 258.5806,-107.3584 262.924,-112.848"/>
</g>
<!-- Flash -->
<g id="node6" class="node">
<title>Flash</title>
<ellipse fill="none" stroke="#000000" stroke-dasharray="5,2" cx="397.1604" cy="-90" rx="29.0429" ry="18"/>
<text text-anchor="middle" x="397.1604" y="-85.8" font-family="Times,serif" font-size="14.00" fill="#000000">Flash</text>
</g>
<!-- Web&#45;&gt;Flash -->
<g id="edge5" class="edge">
<title>Web&#45;&gt;Flash</title>
<path fill="none" stroke="#000000" stroke-dasharray="5,2" d="M237.5062,-146.9064C274.4649,-133.7331 327.459,-114.8441 362.089,-102.5007"/>
<polygon fill="#000000" stroke="#000000" points="363.5299,-105.7029 371.7743,-99.0485 361.1797,-99.1092 363.5299,-105.7029"/>
</g>
<!-- htmldesc -->
<g id="node7" class="node">
<title>htmldesc</title>
<polygon fill="none" stroke="#000000" points="62.4924,-36 1.8285,-36 1.8285,0 62.4924,0 62.4924,-36"/>
<text text-anchor="middle" x="32.1604" y="-13.8" font-family="Times,serif" font-size="14.00" fill="#000000">Content</text>
</g>
<!-- HTML&#45;&gt;htmldesc -->
<g id="edge6" class="edge">
<title>HTML&#45;&gt;htmldesc</title>
<path fill="none" stroke="#000000" d="M34.4034,-71.8314C33.9521,-61 33.3807,-47.2876 32.9276,-36.4133"/>
</g>
<!-- cssdesc -->
<g id="node8" class="node">
<title>cssdesc</title>
<polygon fill="none" stroke="#000000" points="139.8296,-36 80.4912,-36 80.4912,0 139.8296,0 139.8296,-36"/>
<text text-anchor="middle" x="110.1604" y="-20.8" font-family="Times,serif" font-size="14.00" fill="#000000">Style &amp;</text>
<text text-anchor="middle" x="110.1604" y="-6.8" font-family="Times,serif" font-size="14.00" fill="#000000">Layout</text>
</g>
<!-- CSS&#45;&gt;cssdesc -->
<g id="edge7" class="edge">
<title>CSS&#45;&gt;cssdesc</title>
<path fill="none" stroke="#000000" d="M117.637,-71.8314C116.1327,-61 114.2281,-47.2876 112.7178,-36.4133"/>
</g>
<!-- jsdesc -->
<g id="node9" class="node">
<title>jsdesc</title>
<polygon fill="none" stroke="#000000" points="232.4785,-36 157.8424,-36 157.8424,0 232.4785,0 232.4785,-36"/>
<text text-anchor="middle" x="195.1604" y="-13.8" font-family="Times,serif" font-size="14.00" fill="#000000">Behaviour</text>
</g>
<!-- JS&#45;&gt;jsdesc -->
<g id="edge8" class="edge">
<title>JS&#45;&gt;jsdesc</title>
<path fill="none" stroke="#000000" d="M195.1604,-71.8314C195.1604,-61 195.1604,-47.2876 195.1604,-36.4133"/>
</g>
<!-- javadesc -->
<g id="node10" class="node">
<title>javadesc</title>
<polygon fill="none" stroke="#000000" stroke-dasharray="5,2" points="360.1616,-36 250.1593,-36 250.1593,0 360.1616,0 360.1616,-36"/>
<text text-anchor="middle" x="305.1604" y="-20.8" font-family="Times,serif" font-size="14.00" fill="#000000">Content, Style &amp;</text>
<text text-anchor="middle" x="305.1604" y="-6.8" font-family="Times,serif" font-size="14.00" fill="#000000">Behaviour</text>
</g>
<!-- Java&#45;&gt;javadesc -->
<g id="edge9" class="edge">
<title>Java&#45;&gt;javadesc</title>
<path fill="none" stroke="#000000" stroke-dasharray="5,2" d="M290.8571,-72.2022C293.7582,-61.2085 297.4704,-47.1413 300.3859,-36.0931"/>
</g>
<!-- flashdesc -->
<g id="node11" class="node">
<title>flashdesc</title>
<polygon fill="none" stroke="#000000" stroke-dasharray="5,2" points="489.1616,-36 379.1593,-36 379.1593,0 489.1616,0 489.1616,-36"/>
<text text-anchor="middle" x="434.1604" y="-20.8" font-family="Times,serif" font-size="14.00" fill="#000000">Content, Style &amp;</text>
<text text-anchor="middle" x="434.1604" y="-6.8" font-family="Times,serif" font-size="14.00" fill="#000000">Behaviour</text>
</g>
<!-- Flash&#45;&gt;flashdesc -->
<g id="edge10" class="edge">
<title>Flash&#45;&gt;flashdesc</title>
<path fill="none" stroke="#000000" stroke-dasharray="5,2" d="M406.1171,-72.5708C411.8061,-61.5003 419.1531,-47.2034 424.8998,-36.0206"/>
</g>
</g>
</svg>
