<?xml version="1.0" encoding="UTF-8" standalone="no"?>
<!DOCTYPE svg PUBLIC "-//W3C//DTD SVG 1.1//EN"
 "http://www.w3.org/Graphics/SVG/1.1/DTD/svg11.dtd">
<!-- Generated by graphviz version 2.40.1 (20161225.0304)
 -->
<!-- Title: %3 Pages: 1 -->
<svg width="366pt" height="188pt"
 viewBox="0.00 0.00 366.42 188.00" xmlns="http://www.w3.org/2000/svg" xmlns:xlink="http://www.w3.org/1999/xlink">
<g id="graph0" class="graph" transform="scale(1 1) rotate(0) translate(4 184)">
<title>%3</title>
<!-- Web -->
<g id="node1" class="node">
<title>Web</title>
<ellipse fill="none" stroke="#000000" cx="154.1655" cy="-162" rx="75.1194" ry="18"/>
<text text-anchor="middle" x="154.1655" y="-157.8" font-family="Times,serif" font-size="14.00" fill="#000000">The Web Platform</text>
</g>
<!-- HTML -->
<g id="node2" class="node">
<title>HTML</title>
<ellipse fill="none" stroke="#000000" cx="35.1655" cy="-90" rx="35.3216" ry="18"/>
<text text-anchor="middle" x="35.1655" y="-85.8" font-family="Times,serif" font-size="14.00" fill="#000000">HTML</text>
</g>
<!-- Web&#45;&gt;HTML -->
<g id="edge1" class="edge">
<title>Web&#45;&gt;HTML</title>
<path fill="none" stroke="#000000" d="M126.2653,-145.1192C108.4363,-134.3319 85.2747,-120.3181 66.7676,-109.1206"/>
<polygon fill="#000000" stroke="#000000" points="68.4677,-106.0585 58.1,-103.8763 64.844,-112.0476 68.4677,-106.0585"/>
</g>
<!-- CSS -->
<g id="node3" class="node">
<title>CSS</title>
<ellipse fill="none" stroke="#000000" cx="118.1655" cy="-90" rx="27" ry="18"/>
<text text-anchor="middle" x="118.1655" y="-85.8" font-family="Times,serif" font-size="14.00" fill="#000000">CSS</text>
</g>
<!-- Web&#45;&gt;CSS -->
<g id="edge2" class="edge">
<title>Web&#45;&gt;CSS</title>
<path fill="none" stroke="#000000" d="M145.0812,-143.8314C140.9381,-135.5451 135.9519,-125.5727 131.4029,-116.4748"/>
<polygon fill="#000000" stroke="#000000" points="134.4771,-114.7967 126.8744,-107.4177 128.2161,-117.9273 134.4771,-114.7967"/>
</g>
<!-- JS -->
<g id="node4" class="node">
<title>JS</title>
<ellipse fill="none" stroke="#000000" cx="191.1655" cy="-90" rx="27" ry="18"/>
<text text-anchor="middle" x="191.1655" y="-85.8" font-family="Times,serif" font-size="14.00" fill="#000000">JS</text>
</g>
<!-- Web&#45;&gt;JS -->
<g id="edge3" class="edge">
<title>Web&#45;&gt;JS</title>
<path fill="none" stroke="#000000" d="M163.5022,-143.8314C167.7604,-135.5451 172.8851,-125.5727 177.5604,-116.4748"/>
<polygon fill="#000000" stroke="#000000" points="180.757,-117.9118 182.2148,-107.4177 174.531,-114.7123 180.757,-117.9118"/>
</g>
<!-- Java -->
<g id="node5" class="node">
<title>Java</title>
<ellipse fill="none" stroke="#000000" stroke-dasharray="5,2" cx="283.1655" cy="-90" rx="27" ry="18"/>
<text text-anchor="middle" x="283.1655" y="-85.8" font-family="Times,serif" font-size="14.00" fill="#000000">Java</text>
</g>
<!-- Web&#45;&gt;Java -->
<g id="edge4" class="edge">
<title>Web&#45;&gt;Java</title>
<path fill="none" stroke="#000000" stroke-dasharray="5,2" d="M184.085,-145.3008C204.9619,-133.6486 232.701,-118.1662 253.518,-106.5475"/>
<polygon fill="#000000" stroke="#000000" points="255.234,-109.598 262.2602,-101.6681 251.8224,-103.4856 255.234,-109.598"/>
</g>
<!-- htmldesc -->
<g id="node6" class="node">
<title>htmldesc</title>
<polygon fill="none" stroke="#000000" points="60.4975,-36 -.1664,-36 -.1664,0 60.4975,0 60.4975,-36"/>
<text text-anchor="middle" x="30.1655" y="-13.8" font-family="Times,serif" font-size="14.00" fill="#000000">Content</text>
</g>
<!-- HTML&#45;&gt;htmldesc -->
<g id="edge5" class="edge">
<title>HTML&#45;&gt;htmldesc</title>
<path fill="none" stroke="#000000" d="M33.9038,-71.8314C33.1516,-61 32.1994,-47.2876 31.4442,-36.4133"/>
</g>
<!-- cssdesc -->
<g id="node7" class="node">
<title>cssdesc</title>
<polygon fill="none" stroke="#000000" points="137.8347,-36 78.4963,-36 78.4963,0 137.8347,0 137.8347,-36"/>
<text text-anchor="middle" x="108.1655" y="-20.8" font-family="Times,serif" font-size="14.00" fill="#000000">Style &amp;</text>
<text text-anchor="middle" x="108.1655" y="-6.8" font-family="Times,serif" font-size="14.00" fill="#000000">Layout</text>
</g>
<!-- CSS&#45;&gt;cssdesc -->
<g id="edge6" class="edge">
<title>CSS&#45;&gt;cssdesc</title>
<path fill="none" stroke="#000000" d="M115.6421,-71.8314C114.1378,-61 112.2332,-47.2876 110.7229,-36.4133"/>
</g>
<!-- jsdesc -->
<g id="node8" class="node">
<title>jsdesc</title>
<polygon fill="none" stroke="#000000" points="230.4836,-36 155.8475,-36 155.8475,0 230.4836,0 230.4836,-36"/>
<text text-anchor="middle" x="193.1655" y="-13.8" font-family="Times,serif" font-size="14.00" fill="#000000">Behaviour</text>
</g>
<!-- JS&#45;&gt;jsdesc -->
<g id="edge7" class="edge">
<title>JS&#45;&gt;jsdesc</title>
<path fill="none" stroke="#000000" d="M191.6702,-71.8314C191.9711,-61 192.352,-47.2876 192.654,-36.4133"/>
</g>
<!-- javadesc -->
<g id="node9" class="node">
<title>javadesc</title>
<polygon fill="none" stroke="#000000" stroke-dasharray="5,2" points="358.1667,-36 248.1644,-36 248.1644,0 358.1667,0 358.1667,-36"/>
<text text-anchor="middle" x="303.1655" y="-20.8" font-family="Times,serif" font-size="14.00" fill="#000000">Content, Style &amp;</text>
<text text-anchor="middle" x="303.1655" y="-6.8" font-family="Times,serif" font-size="14.00" fill="#000000">Behaviour</text>
</g>
<!-- Java&#45;&gt;javadesc -->
<g id="edge8" class="edge">
<title>Java&#45;&gt;javadesc</title>
<path fill="none" stroke="#000000" stroke-dasharray="5,2" d="M288.1093,-72.2022C291.1632,-61.2085 295.0707,-47.1413 298.1397,-36.0931"/>
</g>
</g>
</svg>
