<?xml version="1.0" encoding="UTF-8" standalone="no"?>
<!DOCTYPE svg PUBLIC "-//W3C//DTD SVG 1.1//EN"
 "http://www.w3.org/Graphics/SVG/1.1/DTD/svg11.dtd">
<!-- Generated by graphviz version 2.40.1 (20161225.0304)
 -->
<!-- Title: %3 Pages: 1 -->
<svg width="333pt" height="203pt"
 viewBox="0.00 0.00 332.80 203.17" xmlns="http://www.w3.org/2000/svg" xmlns:xlink="http://www.w3.org/1999/xlink">
<g id="graph0" class="graph" transform="scale(1 1) rotate(0) translate(4 199.1678)">
<title>%3</title>
<!-- webapp -->
<g id="node1" class="node">
<title>webapp</title>
<ellipse fill="none" stroke="#000000" cx="39.8197" cy="-123.1678" rx="39.6401" ry="18"/>
<text text-anchor="middle" x="39.8197" y="-118.9678" font-family="Times,serif" font-size="14.00" fill="#000000">web app</text>
</g>
<!-- compiler -->
<g id="node2" class="node">
<title>compiler</title>
<polygon fill="none" stroke="#ff0000" points="72.5789,-87.1678 7.0604,-87.1678 7.0604,-51.1678 72.5789,-51.1678 72.5789,-87.1678"/>
<text text-anchor="middle" x="39.8197" y="-64.9678" font-family="Times,serif" font-size="14.00" fill="#ff0000">compiler</text>
</g>
<!-- webapp&#45;&gt;compiler -->
<g id="edge1" class="edge">
<title>webapp&#45;&gt;compiler</title>
<path fill="none" stroke="#ff0000" d="M39.8197,-104.958C39.8197,-102.476 39.8197,-99.994 39.8197,-97.5121"/>
<polygon fill="#ff0000" stroke="#ff0000" points="43.3198,-97.3084 39.8197,-87.3084 36.3198,-97.3084 43.3198,-97.3084"/>
</g>
<!-- browser -->
<g id="node5" class="node">
<title>browser</title>
<ellipse fill="none" stroke="#000000" cx="273.4333" cy="-177.1678" rx="38.6869" ry="18"/>
<text text-anchor="middle" x="273.4333" y="-172.9678" font-family="Times,serif" font-size="14.00" fill="#000000">browser</text>
</g>
<!-- webapp&#45;&gt;browser -->
<g id="edge4" class="edge">
<title>webapp&#45;&gt;browser</title>
<path fill="none" stroke="#000000" d="M69.6996,-135.1538C83.5077,-140.3426 100.2285,-146.1376 115.6393,-150.1678 152.1176,-159.7074 194.2473,-166.7187 225.7944,-171.2024"/>
<polygon fill="#000000" stroke="#000000" points="225.6779,-174.7196 236.0638,-172.6261 226.6392,-167.786 225.6779,-174.7196"/>
</g>
<!-- phonegap -->
<g id="node6" class="node">
<title>phonegap</title>
<polygon fill="none" stroke="#000000" points="186.2822,-141.1678 115.4241,-141.1678 115.4241,-105.1678 186.2822,-105.1678 186.2822,-141.1678"/>
<text text-anchor="middle" x="150.8532" y="-118.9678" font-family="Times,serif" font-size="14.00" fill="#000000">phonegap</text>
</g>
<!-- webapp&#45;&gt;phonegap -->
<g id="edge5" class="edge">
<title>webapp&#45;&gt;phonegap</title>
<path fill="none" stroke="#000000" d="M79.9053,-123.1678C88.2077,-123.1678 97.0103,-123.1678 105.4861,-123.1678"/>
<polygon fill="#000000" stroke="#000000" points="105.6071,-126.6679 115.6071,-123.1678 105.607,-119.6679 105.6071,-126.6679"/>
</g>
<!-- electron -->
<g id="node7" class="node">
<title>electron</title>
<polygon fill="none" stroke="#000000" points="181.4362,-87.1678 120.2701,-87.1678 120.2701,-51.1678 181.4362,-51.1678 181.4362,-87.1678"/>
<text text-anchor="middle" x="150.8532" y="-64.9678" font-family="Times,serif" font-size="14.00" fill="#000000">electron</text>
</g>
<!-- webapp&#45;&gt;electron -->
<g id="edge7" class="edge">
<title>webapp&#45;&gt;electron</title>
<path fill="none" stroke="#000000" d="M66.9815,-109.9579C80.1479,-103.5546 96.2228,-95.7367 110.7639,-88.6648"/>
<polygon fill="#000000" stroke="#000000" points="112.5899,-91.6688 120.052,-84.1476 109.5284,-85.3737 112.5899,-91.6688"/>
</g>
<!-- smartphone -->
<g id="node3" class="node">
<title>smartphone</title>
<ellipse fill="none" stroke="#000000" cx="273.4333" cy="-123.1678" rx="51.2329" ry="18"/>
<text text-anchor="middle" x="273.4333" y="-118.9678" font-family="Times,serif" font-size="14.00" fill="#000000">smartphone</text>
</g>
<!-- compiler&#45;&gt;smartphone -->
<g id="edge2" class="edge">
<title>compiler:e&#45;&gt;smartphone</title>
<path fill="none" stroke="#ff0000" d="M72.8197,-69.1678C95.318,-69.1678 94.0252,-48.4132 115.6393,-42.1678 145.7103,-33.4787 158.4696,-27.3981 186.067,-42.1678 211.4984,-55.7783 200.6379,-76.86 222.067,-96.1678 225.1826,-98.9749 228.6429,-101.5829 232.2537,-103.9825"/>
<polygon fill="#ff0000" stroke="#ff0000" points="230.494,-107.0086 240.8601,-109.1985 234.1222,-101.0222 230.494,-107.0086"/>
</g>
<!-- desktop -->
<g id="node4" class="node">
<title>desktop</title>
<ellipse fill="none" stroke="#000000" cx="273.4333" cy="-69.1678" rx="37.7352" ry="18"/>
<text text-anchor="middle" x="273.4333" y="-64.9678" font-family="Times,serif" font-size="14.00" fill="#000000">desktop</text>
</g>
<!-- compiler&#45;&gt;desktop -->
<g id="edge3" class="edge">
<title>compiler:e&#45;&gt;desktop</title>
<path fill="none" stroke="#ff0000" d="M72.8197,-69.1678C105.5807,-69.1678 86.5123,-24.1647 115.6393,-9.1678 143.4684,5.1608 156.1721,.1091 186.067,-9.1678 209.562,-16.4587 232.3451,-32.4988 248.7518,-46.1611"/>
<polygon fill="#ff0000" stroke="#ff0000" points="246.8606,-49.1518 256.7202,-53.0299 251.431,-43.8497 246.8606,-49.1518"/>
</g>
<!-- phonegap&#45;&gt;smartphone -->
<g id="edge6" class="edge">
<title>phonegap&#45;&gt;smartphone</title>
<path fill="none" stroke="#000000" d="M186.3084,-123.1678C194.2366,-123.1678 202.8707,-123.1678 211.5213,-123.1678"/>
<polygon fill="#000000" stroke="#000000" points="211.6427,-126.6679 221.6426,-123.1678 211.6426,-119.6679 211.6427,-126.6679"/>
</g>
<!-- electron&#45;&gt;desktop -->
<g id="edge8" class="edge">
<title>electron&#45;&gt;desktop</title>
<path fill="none" stroke="#000000" d="M181.4691,-69.1678C194.8362,-69.1678 210.826,-69.1678 225.6955,-69.1678"/>
<polygon fill="#000000" stroke="#000000" points="225.7648,-72.6679 235.7647,-69.1678 225.7647,-65.6679 225.7648,-72.6679"/>
</g>
</g>
</svg>
