<?xml version="1.0" encoding="UTF-8" standalone="no"?>
<!DOCTYPE svg PUBLIC "-//W3C//DTD SVG 1.1//EN"
 "http://www.w3.org/Graphics/SVG/1.1/DTD/svg11.dtd">
<!-- Generated by graphviz version 2.40.1 (20161225.0304)
 -->
<!-- Title: %3 Pages: 1 -->
<svg width="333pt" height="152pt"
 viewBox="0.00 0.00 332.80 152.00" xmlns="http://www.w3.org/2000/svg" xmlns:xlink="http://www.w3.org/1999/xlink">
<g id="graph0" class="graph" transform="scale(1 1) rotate(0) translate(4 148)">
<title>%3</title>
<!-- webapp -->
<g id="node1" class="node">
<title>webapp</title>
<ellipse fill="none" stroke="#000000" cx="39.8197" cy="-72" rx="39.6401" ry="18"/>
<text text-anchor="middle" x="39.8197" y="-67.8" font-family="Times,serif" font-size="14.00" fill="#000000">web app</text>
</g>
<!-- browser -->
<g id="node2" class="node">
<title>browser</title>
<ellipse fill="none" stroke="#000000" cx="273.4333" cy="-126" rx="38.6869" ry="18"/>
<text text-anchor="middle" x="273.4333" y="-121.8" font-family="Times,serif" font-size="14.00" fill="#000000">browser</text>
</g>
<!-- webapp&#45;&gt;browser -->
<g id="edge1" class="edge">
<title>webapp&#45;&gt;browser</title>
<path fill="none" stroke="#000000" d="M69.6996,-83.986C83.5077,-89.1749 100.2285,-94.9698 115.6393,-99 152.1176,-108.5396 194.2473,-115.551 225.7944,-120.0346"/>
<polygon fill="#000000" stroke="#000000" points="225.6779,-123.5519 236.0638,-121.4583 226.6392,-116.6182 225.6779,-123.5519"/>
</g>
<!-- phonegap -->
<g id="node3" class="node">
<title>phonegap</title>
<polygon fill="none" stroke="#000000" points="186.2822,-90 115.4241,-90 115.4241,-54 186.2822,-54 186.2822,-90"/>
<text text-anchor="middle" x="150.8532" y="-67.8" font-family="Times,serif" font-size="14.00" fill="#000000">phonegap</text>
</g>
<!-- webapp&#45;&gt;phonegap -->
<g id="edge2" class="edge">
<title>webapp&#45;&gt;phonegap</title>
<path fill="none" stroke="#000000" d="M79.9053,-72C88.2077,-72 97.0103,-72 105.4861,-72"/>
<polygon fill="#000000" stroke="#000000" points="105.6071,-75.5001 115.6071,-72 105.607,-68.5001 105.6071,-75.5001"/>
</g>
<!-- electron -->
<g id="node5" class="node">
<title>electron</title>
<polygon fill="none" stroke="#000000" points="181.4362,-36 120.2701,-36 120.2701,0 181.4362,0 181.4362,-36"/>
<text text-anchor="middle" x="150.8532" y="-13.8" font-family="Times,serif" font-size="14.00" fill="#000000">electron</text>
</g>
<!-- webapp&#45;&gt;electron -->
<g id="edge4" class="edge">
<title>webapp&#45;&gt;electron</title>
<path fill="none" stroke="#000000" d="M66.9815,-58.7901C80.1479,-52.3868 96.2228,-44.5689 110.7639,-37.497"/>
<polygon fill="#000000" stroke="#000000" points="112.5899,-40.501 120.052,-32.9798 109.5284,-34.206 112.5899,-40.501"/>
</g>
<!-- smartphone -->
<g id="node4" class="node">
<title>smartphone</title>
<ellipse fill="none" stroke="#000000" cx="273.4333" cy="-72" rx="51.2329" ry="18"/>
<text text-anchor="middle" x="273.4333" y="-67.8" font-family="Times,serif" font-size="14.00" fill="#000000">smartphone</text>
</g>
<!-- phonegap&#45;&gt;smartphone -->
<g id="edge3" class="edge">
<title>phonegap&#45;&gt;smartphone</title>
<path fill="none" stroke="#000000" d="M186.3084,-72C194.2366,-72 202.8707,-72 211.5213,-72"/>
<polygon fill="#000000" stroke="#000000" points="211.6427,-75.5001 221.6426,-72 211.6426,-68.5001 211.6427,-75.5001"/>
</g>
<!-- desktop -->
<g id="node6" class="node">
<title>desktop</title>
<ellipse fill="none" stroke="#000000" cx="273.4333" cy="-18" rx="37.7352" ry="18"/>
<text text-anchor="middle" x="273.4333" y="-13.8" font-family="Times,serif" font-size="14.00" fill="#000000">desktop</text>
</g>
<!-- electron&#45;&gt;desktop -->
<g id="edge5" class="edge">
<title>electron&#45;&gt;desktop</title>
<path fill="none" stroke="#000000" d="M181.4691,-18C194.8362,-18 210.826,-18 225.6955,-18"/>
<polygon fill="#000000" stroke="#000000" points="225.7648,-21.5001 235.7647,-18 225.7647,-14.5001 225.7648,-21.5001"/>
</g>
</g>
</svg>
