<?xml version="1.0" encoding="UTF-8" standalone="no"?>
<!DOCTYPE svg PUBLIC "-//W3C//DTD SVG 1.1//EN"
 "http://www.w3.org/Graphics/SVG/1.1/DTD/svg11.dtd">
<!-- Generated by graphviz version 2.40.1 (20161225.0304)
 -->
<!-- Title: %3 Pages: 1 -->
<svg width="275pt" height="116pt"
 viewBox="0.00 0.00 275.43 116.00" xmlns="http://www.w3.org/2000/svg" xmlns:xlink="http://www.w3.org/1999/xlink">
<g id="graph0" class="graph" transform="scale(1 1) rotate(0) translate(4 112)">
<title>%3</title>
<!-- frontend -->
<g id="node1" class="node">
<title>frontend</title>
<ellipse fill="none" stroke="#000000" cx="40.0658" cy="-90" rx="40.1317" ry="18"/>
<text text-anchor="middle" x="40.0658" y="-85.8" font-family="Times,serif" font-size="14.00" fill="#000000">frontend</text>
</g>
<!-- backend -->
<g id="node2" class="node">
<title>backend</title>
<ellipse fill="none" stroke="#000000" cx="218.2077" cy="-90" rx="39.6385" ry="18"/>
<text text-anchor="middle" x="218.2077" y="-85.8" font-family="Times,serif" font-size="14.00" fill="#000000">backend</text>
</g>
<!-- frontend&#45;&gt;backend -->
<g id="edge1" class="edge">
<title>frontend&#45;&gt;backend</title>
<path fill="none" stroke="#000000" d="M90.8283,-90C118.6718,-90 152.6851,-90 178.5582,-90"/>
<polygon fill="#000000" stroke="#000000" points="90.489,-86.5001 80.489,-90 90.4889,-93.5001 90.489,-86.5001"/>
<text text-anchor="middle" x="124.5593" y="-92.8" font-family="Times,serif" font-size="14.00" fill="#000000">generates</text>
</g>
<!-- frontstuff -->
<g id="node3" class="node">
<title>frontstuff</title>
<polygon fill="none" stroke="#000000" points="67.0658,-36 13.0658,-36 13.0658,0 67.0658,0 67.0658,-36"/>
<text text-anchor="middle" x="40.0658" y="-13.8" font-family="Times,serif" font-size="14.00" fill="#000000">UI</text>
</g>
<!-- frontend&#45;&gt;frontstuff -->
<g id="edge2" class="edge">
<title>frontend&#45;&gt;frontstuff</title>
<path fill="none" stroke="#000000" d="M40.0658,-71.9539C40.0658,-60.063 40.0658,-48.1721 40.0658,-36.2813"/>
</g>
<!-- backstuff -->
<g id="node4" class="node">
<title>backstuff</title>
<polygon fill="none" stroke="#000000" points="267.6501,-36 168.7653,-36 168.7653,0 267.6501,0 267.6501,-36"/>
<text text-anchor="middle" x="218.2077" y="-20.8" font-family="Times,serif" font-size="14.00" fill="#000000">business logic,</text>
<text text-anchor="middle" x="218.2077" y="-6.8" font-family="Times,serif" font-size="14.00" fill="#000000">database</text>
</g>
<!-- backend&#45;&gt;backstuff -->
<g id="edge3" class="edge">
<title>backend&#45;&gt;backstuff</title>
<path fill="none" stroke="#000000" d="M218.2077,-71.9539C218.2077,-60.063 218.2077,-48.1721 218.2077,-36.2813"/>
</g>
</g>
</svg>
