<?xml version="1.0" encoding="UTF-8" standalone="no"?>
<!DOCTYPE svg PUBLIC "-//W3C//DTD SVG 1.1//EN"
 "http://www.w3.org/Graphics/SVG/1.1/DTD/svg11.dtd">
<!-- Generated by graphviz version 2.40.1 (20161225.0304)
 -->
<!-- Title: %3 Pages: 1 -->
<svg width="244pt" height="188pt"
 viewBox="0.00 0.00 244.32 188.00" xmlns="http://www.w3.org/2000/svg" xmlns:xlink="http://www.w3.org/1999/xlink">
<g id="graph0" class="graph" transform="scale(1 1) rotate(0) translate(4 184)">
<title>%3</title>
<!-- Web -->
<g id="node1" class="node">
<title>Web</title>
<ellipse fill="none" stroke="#000000" cx="115.1604" cy="-162" rx="75.1194" ry="18"/>
<text text-anchor="middle" x="115.1604" y="-157.8" font-family="Times,serif" font-size="14.00" fill="#000000">The Web Platform</text>
</g>
<!-- HTML -->
<g id="node2" class="node">
<title>HTML</title>
<ellipse fill="none" stroke="#000000" cx="35.1604" cy="-90" rx="35.3216" ry="18"/>
<text text-anchor="middle" x="35.1604" y="-85.8" font-family="Times,serif" font-size="14.00" fill="#000000">HTML</text>
</g>
<!-- Web&#45;&gt;HTML -->
<g id="edge1" class="edge">
<title>Web&#45;&gt;HTML</title>
<path fill="none" stroke="#000000" d="M95.7947,-144.5708C85.1242,-134.9674 71.7559,-122.936 60.289,-112.6157"/>
<polygon fill="#000000" stroke="#000000" points="62.4849,-109.8833 52.7106,-105.7951 57.8022,-115.0864 62.4849,-109.8833"/>
</g>
<!-- CSS -->
<g id="node3" class="node">
<title>CSS</title>
<ellipse fill="none" stroke="#000000" cx="115.1604" cy="-90" rx="27" ry="18"/>
<text text-anchor="middle" x="115.1604" y="-85.8" font-family="Times,serif" font-size="14.00" fill="#000000">CSS</text>
</g>
<!-- Web&#45;&gt;CSS -->
<g id="edge2" class="edge">
<title>Web&#45;&gt;CSS</title>
<path fill="none" stroke="#000000" d="M115.1604,-143.8314C115.1604,-136.131 115.1604,-126.9743 115.1604,-118.4166"/>
<polygon fill="#000000" stroke="#000000" points="118.6605,-118.4132 115.1604,-108.4133 111.6605,-118.4133 118.6605,-118.4132"/>
</g>
<!-- JS -->
<g id="node4" class="node">
<title>JS</title>
<ellipse fill="none" stroke="#000000" cx="192.1604" cy="-90" rx="27" ry="18"/>
<text text-anchor="middle" x="192.1604" y="-85.8" font-family="Times,serif" font-size="14.00" fill="#000000">JS</text>
</g>
<!-- Web&#45;&gt;JS -->
<g id="edge3" class="edge">
<title>Web&#45;&gt;JS</title>
<path fill="none" stroke="#000000" d="M134.1941,-144.2022C144.7601,-134.3224 157.9805,-121.9605 169.1266,-111.5382"/>
<polygon fill="#000000" stroke="#000000" points="171.5398,-114.0734 176.4536,-104.6869 166.7588,-108.9604 171.5398,-114.0734"/>
</g>
<!-- htmldesc -->
<g id="node5" class="node">
<title>htmldesc</title>
<polygon fill="none" stroke="#000000" points="65.4924,-36 4.8285,-36 4.8285,0 65.4924,0 65.4924,-36"/>
<text text-anchor="middle" x="35.1604" y="-13.8" font-family="Times,serif" font-size="14.00" fill="#000000">Content</text>
</g>
<!-- HTML&#45;&gt;htmldesc -->
<g id="edge4" class="edge">
<title>HTML&#45;&gt;htmldesc</title>
<path fill="none" stroke="#000000" d="M35.1604,-71.8314C35.1604,-61 35.1604,-47.2876 35.1604,-36.4133"/>
</g>
<!-- cssdesc -->
<g id="node6" class="node">
<title>cssdesc</title>
<polygon fill="none" stroke="#000000" points="143.8296,-36 84.4912,-36 84.4912,0 143.8296,0 143.8296,-36"/>
<text text-anchor="middle" x="114.1604" y="-20.8" font-family="Times,serif" font-size="14.00" fill="#000000">Style &amp;</text>
<text text-anchor="middle" x="114.1604" y="-6.8" font-family="Times,serif" font-size="14.00" fill="#000000">Layout</text>
</g>
<!-- CSS&#45;&gt;cssdesc -->
<g id="edge5" class="edge">
<title>CSS&#45;&gt;cssdesc</title>
<path fill="none" stroke="#000000" d="M114.9081,-71.8314C114.7577,-61 114.5672,-47.2876 114.4162,-36.4133"/>
</g>
<!-- jsdesc -->
<g id="node7" class="node">
<title>jsdesc</title>
<polygon fill="none" stroke="#000000" points="236.4785,-36 161.8424,-36 161.8424,0 236.4785,0 236.4785,-36"/>
<text text-anchor="middle" x="199.1604" y="-13.8" font-family="Times,serif" font-size="14.00" fill="#000000">Behaviour</text>
</g>
<!-- JS&#45;&gt;jsdesc -->
<g id="edge6" class="edge">
<title>JS&#45;&gt;jsdesc</title>
<path fill="none" stroke="#000000" d="M193.9268,-71.8314C194.9799,-61 196.313,-47.2876 197.3702,-36.4133"/>
</g>
</g>
</svg>
