<?xml version="1.0" encoding="UTF-8" standalone="no"?>
<!DOCTYPE svg PUBLIC "-//W3C//DTD SVG 1.1//EN"
 "http://www.w3.org/Graphics/SVG/1.1/DTD/svg11.dtd">
<!-- Generated by graphviz version 2.40.1 (20161225.0304)
 -->
<!-- Title: %3 Pages: 1 -->
<svg width="244pt" height="116pt"
 viewBox="0.00 0.00 243.70 116.00" xmlns="http://www.w3.org/2000/svg" xmlns:xlink="http://www.w3.org/1999/xlink">
<g id="graph0" class="graph" transform="scale(1 1) rotate(0) translate(4 112)">
<title>%3</title>
<!-- frontend -->
<g id="node1" class="node">
<title>frontend</title>
<ellipse fill="none" stroke="#000000" cx="40.0658" cy="-90" rx="40.1317" ry="18"/>
<text text-anchor="middle" x="40.0658" y="-85.8" font-family="Times,serif" font-size="14.00" fill="#000000">frontend</text>
</g>
<!-- backend -->
<g id="node2" class="node">
<title>backend</title>
<ellipse fill="none" stroke="#000000" cx="196.1285" cy="-90" rx="39.6385" ry="18"/>
<text text-anchor="middle" x="196.1285" y="-85.8" font-family="Times,serif" font-size="14.00" fill="#000000">backend</text>
</g>
<!-- frontend&#45;&gt;backend -->
<g id="edge1" class="edge">
<title>frontend&#45;&gt;backend</title>
<path fill="none" stroke="#000000" d="M80.2558,-90C100.3575,-90 124.88,-90 146.1807,-90"/>
<polygon fill="#000000" stroke="#000000" points="146.3451,-93.5001 156.3451,-90 146.345,-86.5001 146.3451,-93.5001"/>
<text text-anchor="middle" x="118.3454" y="-92.8" font-family="Times,serif" font-size="14.00" fill="#000000">queries</text>
</g>
<!-- frontstuff -->
<g id="node3" class="node">
<title>frontstuff</title>
<polygon fill="none" stroke="#000000" points="72.8318,-36 7.2997,-36 7.2997,0 72.8318,0 72.8318,-36"/>
<text text-anchor="middle" x="40.0658" y="-13.8" font-family="Times,serif" font-size="14.00" fill="#000000">UI, logic</text>
</g>
<!-- frontend&#45;&gt;frontstuff -->
<g id="edge2" class="edge">
<title>frontend&#45;&gt;frontstuff</title>
<path fill="none" stroke="#000000" d="M40.0658,-71.9539C40.0658,-60.063 40.0658,-48.1721 40.0658,-36.2813"/>
</g>
<!-- backstuff -->
<g id="node4" class="node">
<title>backstuff</title>
<polygon fill="none" stroke="#000000" points="228.3222,-36 163.9349,-36 163.9349,0 228.3222,0 228.3222,-36"/>
<text text-anchor="middle" x="196.1285" y="-13.8" font-family="Times,serif" font-size="14.00" fill="#000000">database</text>
</g>
<!-- backend&#45;&gt;backstuff -->
<g id="edge3" class="edge">
<title>backend&#45;&gt;backstuff</title>
<path fill="none" stroke="#000000" d="M196.1285,-71.9539C196.1285,-60.063 196.1285,-48.1721 196.1285,-36.2813"/>
</g>
</g>
</svg>
