<?xml version="1.0" encoding="UTF-8" standalone="no"?>
<!DOCTYPE svg PUBLIC "-//W3C//DTD SVG 1.1//EN"
 "http://www.w3.org/Graphics/SVG/1.1/DTD/svg11.dtd">
<!-- Generated by graphviz version 2.40.1 (20161225.0304)
 -->
<!-- Title: %3 Pages: 1 -->
<svg width="660pt" height="314pt"
 viewBox="0.00 0.00 659.69 314.00" xmlns="http://www.w3.org/2000/svg" xmlns:xlink="http://www.w3.org/1999/xlink">
<g id="graph0" class="graph" transform="scale(1 1) rotate(0) translate(4 310)">
<title>%3</title>
<!-- col0 -->
<g id="node1" class="node">
<title>col0</title>
<ellipse fill="none" stroke="transparent" cx="27" cy="-18" rx="27" ry="18"/>
<text text-anchor="middle" x="27" y="-13.8" font-family="Times,serif" font-size="14.00" fill="#fffffe"> </text>
</g>
<!-- col1 -->
<g id="node2" class="node">
<title>col1</title>
<ellipse fill="none" stroke="transparent" cx="117" cy="-18" rx="27" ry="18"/>
<text text-anchor="middle" x="117" y="-13.8" font-family="Times,serif" font-size="14.00" fill="#fffffe"> </text>
</g>
<!-- col0&#45;&gt;col1 -->
<g id="edge9" class="edge">
<title>col0&#45;&gt;col1</title>
<path fill="none" stroke="transparent" d="M54.003,-18C62.0277,-18 70.9665,-18 79.5309,-18"/>
<polygon fill="transparent" stroke="transparent" points="79.7051,-21.5001 89.705,-18 79.705,-14.5001 79.7051,-21.5001"/>
</g>
<!-- col2 -->
<g id="node3" class="node">
<title>col2</title>
<ellipse fill="none" stroke="transparent" cx="207" cy="-18" rx="27" ry="18"/>
<text text-anchor="middle" x="207" y="-13.8" font-family="Times,serif" font-size="14.00" fill="#fffffe"> </text>
</g>
<!-- col1&#45;&gt;col2 -->
<g id="edge10" class="edge">
<title>col1&#45;&gt;col2</title>
<path fill="none" stroke="transparent" d="M144.003,-18C152.0277,-18 160.9665,-18 169.5309,-18"/>
<polygon fill="transparent" stroke="transparent" points="169.7051,-21.5001 179.705,-18 169.705,-14.5001 169.7051,-21.5001"/>
</g>
<!-- col3 -->
<g id="node4" class="node">
<title>col3</title>
<ellipse fill="none" stroke="transparent" cx="313.3657" cy="-18" rx="27" ry="18"/>
<text text-anchor="middle" x="313.3657" y="-13.8" font-family="Times,serif" font-size="14.00" fill="#fffffe"> </text>
</g>
<!-- col2&#45;&gt;col3 -->
<g id="edge11" class="edge">
<title>col2&#45;&gt;col3</title>
<path fill="none" stroke="transparent" d="M234.1158,-18C246.8681,-18 262.277,-18 276.1042,-18"/>
<polygon fill="transparent" stroke="transparent" points="276.2995,-21.5001 286.2995,-18 276.2994,-14.5001 276.2995,-21.5001"/>
</g>
<!-- col4 -->
<g id="node5" class="node">
<title>col4</title>
<ellipse fill="none" stroke="transparent" cx="432.2109" cy="-18" rx="27" ry="18"/>
<text text-anchor="middle" x="432.2109" y="-13.8" font-family="Times,serif" font-size="14.00" fill="#fffffe"> </text>
</g>
<!-- col3&#45;&gt;col4 -->
<g id="edge12" class="edge">
<title>col3&#45;&gt;col4</title>
<path fill="none" stroke="transparent" d="M340.6312,-18C356.635,-18 377.092,-18 394.6105,-18"/>
<polygon fill="transparent" stroke="transparent" points="395.0723,-21.5001 405.0723,-18 395.0723,-14.5001 395.0723,-21.5001"/>
</g>
<!-- col5 -->
<g id="node6" class="node">
<title>col5</title>
<ellipse fill="none" stroke="transparent" cx="534.6904" cy="-18" rx="27" ry="18"/>
<text text-anchor="middle" x="534.6904" y="-13.8" font-family="Times,serif" font-size="14.00" fill="#fffffe"> </text>
</g>
<!-- col4&#45;&gt;col5 -->
<g id="edge13" class="edge">
<title>col4&#45;&gt;col5</title>
<path fill="none" stroke="transparent" d="M459.4045,-18C470.986,-18 484.687,-18 497.2052,-18"/>
<polygon fill="transparent" stroke="transparent" points="497.3698,-21.5001 507.3698,-18 497.3697,-14.5001 497.3698,-21.5001"/>
</g>
<!-- col6 -->
<g id="node7" class="node">
<title>col6</title>
<ellipse fill="none" stroke="transparent" cx="624.6904" cy="-18" rx="27" ry="18"/>
<text text-anchor="middle" x="624.6904" y="-13.8" font-family="Times,serif" font-size="14.00" fill="#fffffe"> </text>
</g>
<!-- col5&#45;&gt;col6 -->
<g id="edge14" class="edge">
<title>col5&#45;&gt;col6</title>
<path fill="none" stroke="transparent" d="M561.6934,-18C569.7181,-18 578.657,-18 587.2213,-18"/>
<polygon fill="transparent" stroke="transparent" points="587.3955,-21.5001 597.3955,-18 587.3954,-14.5001 587.3955,-21.5001"/>
</g>
<!-- row7start -->
<g id="node8" class="node">
<title>row7start</title>
<ellipse fill="none" stroke="#000000" cx="27" cy="-288" rx="27" ry="18"/>
<text text-anchor="middle" x="27" y="-283.8" font-family="Times,serif" font-size="14.00" fill="#000000">low</text>
</g>
<!-- row8start -->
<g id="node9" class="node">
<title>row8start</title>
<ellipse fill="none" stroke="#000000" cx="27" cy="-234" rx="27" ry="18"/>
<text text-anchor="middle" x="27" y="-229.8" font-family="Times,serif" font-size="14.00" fill="#000000">low</text>
</g>
<!-- row7start&#45;&gt;row8start -->
<g id="edge1" class="edge">
<title>row7start&#45;&gt;row8start</title>
<path fill="none" stroke="transparent" d="M27,-269.7902C27,-267.3082 27,-264.8262 27,-262.3443"/>
<polygon fill="transparent" stroke="transparent" points="30.5001,-262.1406 27,-252.1406 23.5001,-262.1407 30.5001,-262.1406"/>
</g>
<!-- price -->
<g id="node18" class="node">
<title>price</title>
<polygon fill="none" stroke="#000000" points="234,-306 180,-306 180,-270 234,-270 234,-306"/>
<text text-anchor="middle" x="207" y="-283.8" font-family="Times,serif" font-size="14.00" fill="#000000">price</text>
</g>
<!-- row7start&#45;&gt;price -->
<g id="edge15" class="edge">
<title>row7start&#45;&gt;price</title>
<path fill="none" stroke="#000000" d="M54.3381,-288C88.3667,-288 146.1212,-288 179.9944,-288"/>
</g>
<!-- row9start -->
<g id="node10" class="node">
<title>row9start</title>
<ellipse fill="none" stroke="#000000" cx="27" cy="-180" rx="27" ry="18"/>
<text text-anchor="middle" x="27" y="-175.8" font-family="Times,serif" font-size="14.00" fill="#000000">low</text>
</g>
<!-- row8start&#45;&gt;row9start -->
<g id="edge2" class="edge">
<title>row8start&#45;&gt;row9start</title>
<path fill="none" stroke="transparent" d="M27,-215.7902C27,-213.3082 27,-210.8262 27,-208.3443"/>
<polygon fill="transparent" stroke="transparent" points="30.5001,-208.1406 27,-198.1406 23.5001,-208.1407 30.5001,-208.1406"/>
</g>
<!-- autonomy -->
<g id="node19" class="node">
<title>autonomy</title>
<polygon fill="none" stroke="#000000" points="349.3589,-252 277.3726,-252 277.3726,-216 349.3589,-216 349.3589,-252"/>
<text text-anchor="middle" x="313.3657" y="-229.8" font-family="Times,serif" font-size="14.00" fill="#000000">autonomy</text>
</g>
<!-- row8start&#45;&gt;autonomy -->
<g id="edge17" class="edge">
<title>row8start&#45;&gt;autonomy</title>
<path fill="none" stroke="#000000" d="M54.1988,-234C105.9951,-234 218.8051,-234 277.0105,-234"/>
</g>
<!-- row10start -->
<g id="node11" class="node">
<title>row10start</title>
<ellipse fill="none" stroke="#000000" cx="27" cy="-126" rx="27" ry="18"/>
<text text-anchor="middle" x="27" y="-121.8" font-family="Times,serif" font-size="14.00" fill="#000000">low</text>
</g>
<!-- row9start&#45;&gt;row10start -->
<g id="edge3" class="edge">
<title>row9start&#45;&gt;row10start</title>
<path fill="none" stroke="transparent" d="M27,-161.7902C27,-159.3082 27,-156.8262 27,-154.3443"/>
<polygon fill="transparent" stroke="transparent" points="30.5001,-154.1406 27,-144.1406 23.5001,-154.1407 30.5001,-154.1406"/>
</g>
<!-- maintenance -->
<g id="node20" class="node">
<title>maintenance</title>
<polygon fill="none" stroke="#000000" points="471.6699,-198 392.7519,-198 392.7519,-162 471.6699,-162 471.6699,-198"/>
<text text-anchor="middle" x="432.2109" y="-182.8" font-family="Times,serif" font-size="14.00" fill="#000000">life</text>
<text text-anchor="middle" x="432.2109" y="-168.8" font-family="Times,serif" font-size="14.00" fill="#000000">expectancy</text>
</g>
<!-- row9start&#45;&gt;maintenance -->
<g id="edge19" class="edge">
<title>row9start&#45;&gt;maintenance</title>
<path fill="none" stroke="#000000" d="M54.2162,-180C124.2194,-180 310.7554,-180 392.6856,-180"/>
</g>
<!-- row11start -->
<g id="node12" class="node">
<title>row11start</title>
<ellipse fill="none" stroke="#000000" cx="27" cy="-72" rx="27" ry="18"/>
<text text-anchor="middle" x="27" y="-67.8" font-family="Times,serif" font-size="14.00" fill="#000000">low</text>
</g>
<!-- row10start&#45;&gt;row11start -->
<g id="edge4" class="edge">
<title>row10start&#45;&gt;row11start</title>
<path fill="none" stroke="transparent" d="M27,-107.7902C27,-105.3082 27,-102.8262 27,-100.3443"/>
<polygon fill="transparent" stroke="transparent" points="30.5001,-100.1406 27,-90.1406 23.5001,-100.1407 30.5001,-100.1406"/>
</g>
<!-- knowledge -->
<g id="node21" class="node">
<title>knowledge</title>
<polygon fill="none" stroke="#000000" points="471.1399,-144 393.282,-144 393.282,-108 471.1399,-108 471.1399,-144"/>
<text text-anchor="middle" x="432.2109" y="-128.8" font-family="Times,serif" font-size="14.00" fill="#000000">existing</text>
<text text-anchor="middle" x="432.2109" y="-114.8" font-family="Times,serif" font-size="14.00" fill="#000000">knowledge</text>
</g>
<!-- row10start&#45;&gt;knowledge -->
<g id="edge21" class="edge">
<title>row10start&#45;&gt;knowledge</title>
<path fill="none" stroke="#000000" d="M54.2162,-126C124.3969,-126 311.7018,-126 393.3066,-126"/>
</g>
<!-- performance -->
<g id="node22" class="node">
<title>performance</title>
<polygon fill="none" stroke="#000000" points="356.5976,-90 270.1339,-90 270.1339,-54 356.5976,-54 356.5976,-90"/>
<text text-anchor="middle" x="313.3657" y="-67.8" font-family="Times,serif" font-size="14.00" fill="#000000">performance</text>
</g>
<!-- row11start&#45;&gt;performance -->
<g id="edge23" class="edge">
<title>row11start&#45;&gt;performance</title>
<path fill="none" stroke="#000000" d="M54.1988,-72C103.9707,-72 210.0802,-72 269.9425,-72"/>
</g>
<!-- row7end -->
<g id="node13" class="node">
<title>row7end</title>
<ellipse fill="none" stroke="#000000" cx="624.6904" cy="-288" rx="27" ry="18"/>
<text text-anchor="middle" x="624.6904" y="-283.8" font-family="Times,serif" font-size="14.00" fill="#000000">high</text>
</g>
<!-- row8end -->
<g id="node14" class="node">
<title>row8end</title>
<ellipse fill="none" stroke="#000000" cx="624.6904" cy="-234" rx="27" ry="18"/>
<text text-anchor="middle" x="624.6904" y="-229.8" font-family="Times,serif" font-size="14.00" fill="#000000">high</text>
</g>
<!-- row7end&#45;&gt;row8end -->
<g id="edge5" class="edge">
<title>row7end&#45;&gt;row8end</title>
<path fill="none" stroke="transparent" d="M624.6904,-269.7902C624.6904,-267.3082 624.6904,-264.8262 624.6904,-262.3443"/>
<polygon fill="transparent" stroke="transparent" points="628.1905,-262.1406 624.6904,-252.1406 621.1905,-262.1407 628.1905,-262.1406"/>
</g>
<!-- row9end -->
<g id="node15" class="node">
<title>row9end</title>
<ellipse fill="none" stroke="#000000" cx="624.6904" cy="-180" rx="27" ry="18"/>
<text text-anchor="middle" x="624.6904" y="-175.8" font-family="Times,serif" font-size="14.00" fill="#000000">high</text>
</g>
<!-- row8end&#45;&gt;row9end -->
<g id="edge6" class="edge">
<title>row8end&#45;&gt;row9end</title>
<path fill="none" stroke="transparent" d="M624.6904,-215.7902C624.6904,-213.3082 624.6904,-210.8262 624.6904,-208.3443"/>
<polygon fill="transparent" stroke="transparent" points="628.1905,-208.1406 624.6904,-198.1406 621.1905,-208.1407 628.1905,-208.1406"/>
</g>
<!-- row10end -->
<g id="node16" class="node">
<title>row10end</title>
<ellipse fill="none" stroke="#000000" cx="624.6904" cy="-126" rx="27" ry="18"/>
<text text-anchor="middle" x="624.6904" y="-121.8" font-family="Times,serif" font-size="14.00" fill="#000000">high</text>
</g>
<!-- row9end&#45;&gt;row10end -->
<g id="edge7" class="edge">
<title>row9end&#45;&gt;row10end</title>
<path fill="none" stroke="transparent" d="M624.6904,-161.7902C624.6904,-159.3082 624.6904,-156.8262 624.6904,-154.3443"/>
<polygon fill="transparent" stroke="transparent" points="628.1905,-154.1406 624.6904,-144.1406 621.1905,-154.1407 628.1905,-154.1406"/>
</g>
<!-- row11end -->
<g id="node17" class="node">
<title>row11end</title>
<ellipse fill="none" stroke="#000000" cx="624.6904" cy="-72" rx="27" ry="18"/>
<text text-anchor="middle" x="624.6904" y="-67.8" font-family="Times,serif" font-size="14.00" fill="#000000">high</text>
</g>
<!-- row10end&#45;&gt;row11end -->
<g id="edge8" class="edge">
<title>row10end&#45;&gt;row11end</title>
<path fill="none" stroke="transparent" d="M624.6904,-107.7902C624.6904,-105.3082 624.6904,-102.8262 624.6904,-100.3443"/>
<polygon fill="transparent" stroke="transparent" points="628.1905,-100.1406 624.6904,-90.1406 621.1905,-100.1407 628.1905,-100.1406"/>
</g>
<!-- price&#45;&gt;row7end -->
<g id="edge16" class="edge">
<title>price&#45;&gt;row7end</title>
<path fill="none" stroke="#000000" d="M234.084,-288C309.6489,-288 522.1772,-288 597.6678,-288"/>
</g>
<!-- autonomy&#45;&gt;row8end -->
<g id="edge18" class="edge">
<title>autonomy&#45;&gt;row8end</title>
<path fill="none" stroke="#000000" d="M349.3828,-234C412.4461,-234 541.4822,-234 597.6102,-234"/>
</g>
<!-- maintenance&#45;&gt;row9end -->
<g id="edge20" class="edge">
<title>maintenance&#45;&gt;row9end</title>
<path fill="none" stroke="#000000" d="M472.0928,-180C509.6417,-180 564.8631,-180 597.5608,-180"/>
</g>
<!-- knowledge&#45;&gt;row10end -->
<g id="edge22" class="edge">
<title>knowledge&#45;&gt;row10end</title>
<path fill="none" stroke="#000000" d="M471.162,-126C508.7307,-126 564.6116,-126 597.5783,-126"/>
</g>
<!-- performance&#45;&gt;row11end -->
<g id="edge24" class="edge">
<title>performance&#45;&gt;row11end</title>
<path fill="none" stroke="#000000" d="M356.6541,-72C421.8142,-72 543.2258,-72 597.3863,-72"/>
</g>
</g>
</svg>
