<?xml version="1.0" encoding="UTF-8" standalone="no"?>
<!DOCTYPE svg PUBLIC "-//W3C//DTD SVG 1.1//EN"
 "http://www.w3.org/Graphics/SVG/1.1/DTD/svg11.dtd">
<!-- Generated by graphviz version 2.40.1 (20161225.0304)
 -->
<!-- Title: %3 Pages: 1 -->
<svg width="704pt" height="368pt"
 viewBox="0.00 0.00 704.35 368.00" xmlns="http://www.w3.org/2000/svg" xmlns:xlink="http://www.w3.org/1999/xlink">
<g id="graph0" class="graph" transform="scale(1 1) rotate(0) translate(4 364)">
<title>%3</title>
<!-- col0 -->
<g id="node1" class="node">
<title>col0</title>
<ellipse fill="none" stroke="transparent" cx="27" cy="-18" rx="27" ry="18"/>
<text text-anchor="middle" x="27" y="-13.8" font-family="Times,serif" font-size="14.00" fill="#fffffe"> </text>
</g>
<!-- col1 -->
<g id="node2" class="node">
<title>col1</title>
<ellipse fill="none" stroke="transparent" cx="120.1587" cy="-18" rx="27" ry="18"/>
<text text-anchor="middle" x="120.1587" y="-13.8" font-family="Times,serif" font-size="14.00" fill="#fffffe"> </text>
</g>
<!-- col0&#45;&gt;col1 -->
<g id="edge11" class="edge">
<title>col0&#45;&gt;col1</title>
<path fill="none" stroke="transparent" d="M54.4468,-18C63.3545,-18 73.3921,-18 82.891,-18"/>
<polygon fill="transparent" stroke="transparent" points="82.9081,-21.5001 92.908,-18 82.908,-14.5001 82.9081,-21.5001"/>
</g>
<!-- col2 -->
<g id="node3" class="node">
<title>col2</title>
<ellipse fill="none" stroke="transparent" cx="238.2383" cy="-18" rx="27" ry="18"/>
<text text-anchor="middle" x="238.2383" y="-13.8" font-family="Times,serif" font-size="14.00" fill="#fffffe"> </text>
</g>
<!-- col1&#45;&gt;col2 -->
<g id="edge12" class="edge">
<title>col1&#45;&gt;col2</title>
<path fill="none" stroke="transparent" d="M147.2485,-18C163.0365,-18 183.1864,-18 200.5093,-18"/>
<polygon fill="transparent" stroke="transparent" points="200.8656,-21.5001 210.8656,-18 200.8656,-14.5001 200.8656,-21.5001"/>
</g>
<!-- col3 -->
<g id="node4" class="node">
<title>col3</title>
<ellipse fill="none" stroke="transparent" cx="357.8765" cy="-18" rx="27" ry="18"/>
<text text-anchor="middle" x="357.8765" y="-13.8" font-family="Times,serif" font-size="14.00" fill="#fffffe"> </text>
</g>
<!-- col2&#45;&gt;col3 -->
<g id="edge13" class="edge">
<title>col2&#45;&gt;col3</title>
<path fill="none" stroke="transparent" d="M265.386,-18C281.7533,-18 302.8278,-18 320.7252,-18"/>
<polygon fill="transparent" stroke="transparent" points="320.8362,-21.5001 330.8361,-18 320.8361,-14.5001 320.8362,-21.5001"/>
</g>
<!-- col4 -->
<g id="node5" class="node">
<title>col4</title>
<ellipse fill="none" stroke="transparent" cx="456.9248" cy="-18" rx="27" ry="18"/>
<text text-anchor="middle" x="456.9248" y="-13.8" font-family="Times,serif" font-size="14.00" fill="#fffffe"> </text>
</g>
<!-- col3&#45;&gt;col4 -->
<g id="edge14" class="edge">
<title>col3&#45;&gt;col4</title>
<path fill="none" stroke="transparent" d="M384.9419,-18C395.6421,-18 408.117,-18 419.647,-18"/>
<polygon fill="transparent" stroke="transparent" points="419.8922,-21.5001 429.8921,-18 419.8921,-14.5001 419.8922,-21.5001"/>
</g>
<!-- col5 -->
<g id="node6" class="node">
<title>col5</title>
<ellipse fill="none" stroke="transparent" cx="565.3008" cy="-18" rx="27" ry="18"/>
<text text-anchor="middle" x="565.3008" y="-13.8" font-family="Times,serif" font-size="14.00" fill="#fffffe"> </text>
</g>
<!-- col4&#45;&gt;col5 -->
<g id="edge15" class="edge">
<title>col4&#45;&gt;col5</title>
<path fill="none" stroke="transparent" d="M483.9931,-18C497.312,-18 513.576,-18 528.0483,-18"/>
<polygon fill="transparent" stroke="transparent" points="528.202,-21.5001 538.202,-18 528.2019,-14.5001 528.202,-21.5001"/>
</g>
<!-- col6 -->
<g id="node7" class="node">
<title>col6</title>
<ellipse fill="none" stroke="transparent" cx="669.3457" cy="-18" rx="27" ry="18"/>
<text text-anchor="middle" x="669.3457" y="-13.8" font-family="Times,serif" font-size="14.00" fill="#fffffe"> </text>
</g>
<!-- col5&#45;&gt;col6 -->
<g id="edge16" class="edge">
<title>col5&#45;&gt;col6</title>
<path fill="none" stroke="transparent" d="M592.3658,-18C604.4334,-18 618.8491,-18 631.9254,-18"/>
<polygon fill="transparent" stroke="transparent" points="632.0548,-21.5001 642.0548,-18 632.0548,-14.5001 632.0548,-21.5001"/>
</g>
<!-- row1start -->
<g id="node8" class="node">
<title>row1start</title>
<ellipse fill="none" stroke="#000000" cx="27" cy="-342" rx="27" ry="18"/>
<text text-anchor="middle" x="27" y="-337.8" font-family="Times,serif" font-size="14.00" fill="#000000">low</text>
</g>
<!-- row2start -->
<g id="node9" class="node">
<title>row2start</title>
<ellipse fill="none" stroke="#000000" cx="27" cy="-288" rx="27" ry="18"/>
<text text-anchor="middle" x="27" y="-283.8" font-family="Times,serif" font-size="14.00" fill="#000000">low</text>
</g>
<!-- row1start&#45;&gt;row2start -->
<g id="edge1" class="edge">
<title>row1start&#45;&gt;row2start</title>
<path fill="none" stroke="transparent" d="M27,-323.7902C27,-321.3082 27,-318.8262 27,-316.3443"/>
<polygon fill="transparent" stroke="transparent" points="30.5001,-316.1406 27,-306.1406 23.5001,-316.1407 30.5001,-316.1406"/>
</g>
<!-- simplicity -->
<g id="node20" class="node">
<title>simplicity</title>
<polygon fill="none" stroke="#000000" points="277.1535,-360 199.3231,-360 199.3231,-324 277.1535,-324 277.1535,-360"/>
<text text-anchor="middle" x="238.2383" y="-337.8" font-family="Times,serif" font-size="14.00" fill="#000000">ease of use</text>
</g>
<!-- row1start&#45;&gt;simplicity -->
<g id="edge17" class="edge">
<title>row1start&#45;&gt;simplicity</title>
<path fill="none" stroke="#000000" d="M54.1833,-342C91.0666,-342 157.1852,-342 199.3238,-342"/>
</g>
<!-- row3start -->
<g id="node10" class="node">
<title>row3start</title>
<ellipse fill="none" stroke="#000000" cx="27" cy="-234" rx="27" ry="18"/>
<text text-anchor="middle" x="27" y="-229.8" font-family="Times,serif" font-size="14.00" fill="#000000">low</text>
</g>
<!-- row2start&#45;&gt;row3start -->
<g id="edge2" class="edge">
<title>row2start&#45;&gt;row3start</title>
<path fill="none" stroke="transparent" d="M27,-269.7902C27,-267.3082 27,-264.8262 27,-262.3443"/>
<polygon fill="transparent" stroke="transparent" points="30.5001,-262.1406 27,-252.1406 23.5001,-262.1407 30.5001,-262.1406"/>
</g>
<!-- maturity -->
<g id="node21" class="node">
<title>maturity</title>
<polygon fill="none" stroke="#000000" points="389.8125,-306 325.9404,-306 325.9404,-270 389.8125,-270 389.8125,-306"/>
<text text-anchor="middle" x="357.8765" y="-283.8" font-family="Times,serif" font-size="14.00" fill="#000000">maturity</text>
</g>
<!-- row2start&#45;&gt;maturity -->
<g id="edge19" class="edge">
<title>row2start&#45;&gt;maturity</title>
<path fill="none" stroke="#000000" d="M54.077,-288C114.7333,-288 261.2641,-288 326.1014,-288"/>
</g>
<!-- row4start -->
<g id="node11" class="node">
<title>row4start</title>
<ellipse fill="none" stroke="#000000" cx="27" cy="-180" rx="27" ry="18"/>
<text text-anchor="middle" x="27" y="-175.8" font-family="Times,serif" font-size="14.00" fill="#000000">low</text>
</g>
<!-- row3start&#45;&gt;row4start -->
<g id="edge3" class="edge">
<title>row3start&#45;&gt;row4start</title>
<path fill="none" stroke="transparent" d="M27,-215.7902C27,-213.3082 27,-210.8262 27,-208.3443"/>
<polygon fill="transparent" stroke="transparent" points="30.5001,-208.1406 27,-198.1406 23.5001,-208.1407 30.5001,-208.1406"/>
</g>
<!-- sexiness -->
<g id="node22" class="node">
<title>sexiness</title>
<polygon fill="none" stroke="#000000" points="488.0878,-252 425.7618,-252 425.7618,-216 488.0878,-216 488.0878,-252"/>
<text text-anchor="middle" x="456.9248" y="-229.8" font-family="Times,serif" font-size="14.00" fill="#000000">sexiness</text>
</g>
<!-- row3start&#45;&gt;sexiness -->
<g id="edge21" class="edge">
<title>row3start&#45;&gt;sexiness</title>
<path fill="none" stroke="#000000" d="M54.2199,-234C130.2679,-234 344.6864,-234 425.5427,-234"/>
</g>
<!-- row5start -->
<g id="node12" class="node">
<title>row5start</title>
<ellipse fill="none" stroke="#000000" cx="27" cy="-126" rx="27" ry="18"/>
<text text-anchor="middle" x="27" y="-121.8" font-family="Times,serif" font-size="14.00" fill="#000000">low</text>
</g>
<!-- row4start&#45;&gt;row5start -->
<g id="edge4" class="edge">
<title>row4start&#45;&gt;row5start</title>
<path fill="none" stroke="transparent" d="M27,-161.7902C27,-159.3082 27,-156.8262 27,-154.3443"/>
<polygon fill="transparent" stroke="transparent" points="30.5001,-154.1406 27,-144.1406 23.5001,-154.1407 30.5001,-154.1406"/>
</g>
<!-- adaptability -->
<g id="node23" class="node">
<title>adaptability</title>
<polygon fill="none" stroke="#000000" points="606.3907,-198 524.2109,-198 524.2109,-162 606.3907,-162 606.3907,-198"/>
<text text-anchor="middle" x="565.3008" y="-175.8" font-family="Times,serif" font-size="14.00" fill="#000000">adaptability</text>
</g>
<!-- row4start&#45;&gt;adaptability -->
<g id="edge23" class="edge">
<title>row4start&#45;&gt;adaptability</title>
<path fill="none" stroke="#000000" d="M54.0097,-180C94.1794,-180 172.043,-180 238.2383,-180 238.2383,-180 238.2383,-180 357.8765,-180 415.4943,-180 482.115,-180 523.978,-180"/>
</g>
<!-- row6start -->
<g id="node13" class="node">
<title>row6start</title>
<ellipse fill="none" stroke="#000000" cx="27" cy="-72" rx="27" ry="18"/>
<text text-anchor="middle" x="27" y="-67.8" font-family="Times,serif" font-size="14.00" fill="#000000">low</text>
</g>
<!-- row5start&#45;&gt;row6start -->
<g id="edge5" class="edge">
<title>row5start&#45;&gt;row6start</title>
<path fill="none" stroke="transparent" d="M27,-107.7902C27,-105.3082 27,-102.8262 27,-100.3443"/>
<polygon fill="transparent" stroke="transparent" points="30.5001,-100.1406 27,-90.1406 23.5001,-100.1407 30.5001,-100.1406"/>
</g>
<!-- correspondence -->
<g id="node24" class="node">
<title>correspondence</title>
<polygon fill="none" stroke="#000000" points="290.0802,-144 186.3964,-144 186.3964,-108 290.0802,-108 290.0802,-144"/>
<text text-anchor="middle" x="238.2383" y="-121.8" font-family="Times,serif" font-size="14.00" fill="#000000">correspondence</text>
</g>
<!-- row5start&#45;&gt;correspondence -->
<g id="edge25" class="edge">
<title>row5start&#45;&gt;correspondence</title>
<path fill="none" stroke="#000000" d="M54.1833,-126C87.3894,-126 144.292,-126 186.0581,-126"/>
</g>
<!-- security -->
<g id="node25" class="node">
<title>security</title>
<polygon fill="none" stroke="#000000" points="150.4769,-90 89.8405,-90 89.8405,-54 150.4769,-54 150.4769,-90"/>
<text text-anchor="middle" x="120.1587" y="-67.8" font-family="Times,serif" font-size="14.00" fill="#000000">security</text>
</g>
<!-- row6start&#45;&gt;security -->
<g id="edge27" class="edge">
<title>row6start&#45;&gt;security</title>
<path fill="none" stroke="#000000" d="M54.4468,-72C65.6104,-72 78.5486,-72 89.9771,-72"/>
</g>
<!-- row1end -->
<g id="node14" class="node">
<title>row1end</title>
<ellipse fill="none" stroke="#000000" cx="669.3457" cy="-342" rx="27" ry="18"/>
<text text-anchor="middle" x="669.3457" y="-337.8" font-family="Times,serif" font-size="14.00" fill="#000000">high</text>
</g>
<!-- row2end -->
<g id="node15" class="node">
<title>row2end</title>
<ellipse fill="none" stroke="#000000" cx="669.3457" cy="-288" rx="27" ry="18"/>
<text text-anchor="middle" x="669.3457" y="-283.8" font-family="Times,serif" font-size="14.00" fill="#000000">high</text>
</g>
<!-- row1end&#45;&gt;row2end -->
<g id="edge6" class="edge">
<title>row1end&#45;&gt;row2end</title>
<path fill="none" stroke="transparent" d="M669.3457,-323.7902C669.3457,-321.3082 669.3457,-318.8262 669.3457,-316.3443"/>
<polygon fill="transparent" stroke="transparent" points="672.8458,-316.1406 669.3457,-306.1406 665.8458,-316.1407 672.8458,-316.1406"/>
</g>
<!-- row3end -->
<g id="node16" class="node">
<title>row3end</title>
<ellipse fill="none" stroke="#000000" cx="669.3457" cy="-234" rx="27" ry="18"/>
<text text-anchor="middle" x="669.3457" y="-229.8" font-family="Times,serif" font-size="14.00" fill="#000000">high</text>
</g>
<!-- row2end&#45;&gt;row3end -->
<g id="edge7" class="edge">
<title>row2end&#45;&gt;row3end</title>
<path fill="none" stroke="transparent" d="M669.3457,-269.7902C669.3457,-267.3082 669.3457,-264.8262 669.3457,-262.3443"/>
<polygon fill="transparent" stroke="transparent" points="672.8458,-262.1406 669.3457,-252.1406 665.8458,-262.1407 672.8458,-262.1406"/>
</g>
<!-- row4end -->
<g id="node17" class="node">
<title>row4end</title>
<ellipse fill="none" stroke="#000000" cx="669.3457" cy="-180" rx="27" ry="18"/>
<text text-anchor="middle" x="669.3457" y="-175.8" font-family="Times,serif" font-size="14.00" fill="#000000">high</text>
</g>
<!-- row3end&#45;&gt;row4end -->
<g id="edge8" class="edge">
<title>row3end&#45;&gt;row4end</title>
<path fill="none" stroke="transparent" d="M669.3457,-215.7902C669.3457,-213.3082 669.3457,-210.8262 669.3457,-208.3443"/>
<polygon fill="transparent" stroke="transparent" points="672.8458,-208.1406 669.3457,-198.1406 665.8458,-208.1407 672.8458,-208.1406"/>
</g>
<!-- row5end -->
<g id="node18" class="node">
<title>row5end</title>
<ellipse fill="none" stroke="#000000" cx="669.3457" cy="-126" rx="27" ry="18"/>
<text text-anchor="middle" x="669.3457" y="-121.8" font-family="Times,serif" font-size="14.00" fill="#000000">high</text>
</g>
<!-- row4end&#45;&gt;row5end -->
<g id="edge9" class="edge">
<title>row4end&#45;&gt;row5end</title>
<path fill="none" stroke="transparent" d="M669.3457,-161.7902C669.3457,-159.3082 669.3457,-156.8262 669.3457,-154.3443"/>
<polygon fill="transparent" stroke="transparent" points="672.8458,-154.1406 669.3457,-144.1406 665.8458,-154.1407 672.8458,-154.1406"/>
</g>
<!-- row6end -->
<g id="node19" class="node">
<title>row6end</title>
<ellipse fill="none" stroke="#000000" cx="669.3457" cy="-72" rx="27" ry="18"/>
<text text-anchor="middle" x="669.3457" y="-67.8" font-family="Times,serif" font-size="14.00" fill="#000000">high</text>
</g>
<!-- row5end&#45;&gt;row6end -->
<g id="edge10" class="edge">
<title>row5end&#45;&gt;row6end</title>
<path fill="none" stroke="transparent" d="M669.3457,-107.7902C669.3457,-105.3082 669.3457,-102.8262 669.3457,-100.3443"/>
<polygon fill="transparent" stroke="transparent" points="672.8458,-100.1406 669.3457,-90.1406 665.8458,-100.1407 672.8458,-100.1406"/>
</g>
<!-- simplicity&#45;&gt;row1end -->
<g id="edge18" class="edge">
<title>simplicity&#45;&gt;row1end</title>
<path fill="none" stroke="#000000" d="M277.2565,-342C363.4799,-342 568.4304,-342 642.2556,-342"/>
</g>
<!-- maturity&#45;&gt;row2end -->
<g id="edge20" class="edge">
<title>maturity&#45;&gt;row2end</title>
<path fill="none" stroke="#000000" d="M389.7454,-288C451.1432,-288 584.8247,-288 642.2476,-288"/>
</g>
<!-- sexiness&#45;&gt;row3end -->
<g id="edge22" class="edge">
<title>sexiness&#45;&gt;row3end</title>
<path fill="none" stroke="#000000" d="M488.2682,-234C529.9302,-234 602.8623,-234 642.2571,-234"/>
</g>
<!-- adaptability&#45;&gt;row4end -->
<g id="edge24" class="edge">
<title>adaptability&#45;&gt;row4end</title>
<path fill="none" stroke="#000000" d="M606.4221,-180C618.464,-180 631.3218,-180 642.2553,-180"/>
</g>
<!-- correspondence&#45;&gt;row5end -->
<g id="edge26" class="edge">
<title>correspondence&#45;&gt;row5end</title>
<path fill="none" stroke="#000000" d="M290.2399,-126C382.5065,-126 571.7609,-126 642.1687,-126"/>
</g>
<!-- security&#45;&gt;row6end -->
<g id="edge28" class="edge">
<title>security&#45;&gt;row6end</title>
<path fill="none" stroke="#000000" d="M150.5541,-72C195.7593,-72 283.3833,-72 357.8765,-72 357.8765,-72 357.8765,-72 456.9248,-72 523.4907,-72 601.7902,-72 642.1848,-72"/>
</g>
</g>
</svg>
