<?xml version="1.0" encoding="UTF-8" standalone="no"?>
<!DOCTYPE svg PUBLIC "-//W3C//DTD SVG 1.1//EN"
 "http://www.w3.org/Graphics/SVG/1.1/DTD/svg11.dtd">
<!-- Generated by graphviz version 2.40.1 (20161225.0304)
 -->
<!-- Title: %3 Pages: 1 -->
<svg width="757pt" height="98pt"
 viewBox="0.00 0.00 757.04 98.00" xmlns="http://www.w3.org/2000/svg" xmlns:xlink="http://www.w3.org/1999/xlink">
<g id="graph0" class="graph" transform="scale(1 1) rotate(0) translate(4 94)">
<title>%3</title>
<!-- col0 -->
<g id="node1" class="node">
<title>col0</title>
<ellipse fill="none" stroke="transparent" cx="33.6793" cy="-18" rx="27" ry="18"/>
</g>
<!-- col1 -->
<g id="node2" class="node">
<title>col1</title>
<ellipse fill="none" stroke="transparent" cx="130.3586" cy="-18" rx="27" ry="18"/>
</g>
<!-- col0&#45;&gt;col1 -->
<g id="edge1" class="edge">
<title>col0&#45;&gt;col1</title>
<path fill="none" stroke="transparent" d="M60.8672,-18C70.7527,-18 82.1083,-18 92.7361,-18"/>
<polygon fill="transparent" stroke="transparent" points="93.0399,-21.5001 103.0399,-18 93.0398,-14.5001 93.0399,-21.5001"/>
</g>
<!-- col2 -->
<g id="node3" class="node">
<title>col2</title>
<ellipse fill="none" stroke="transparent" cx="220.3586" cy="-18" rx="27" ry="18"/>
</g>
<!-- col1&#45;&gt;col2 -->
<g id="edge2" class="edge">
<title>col1&#45;&gt;col2</title>
<path fill="none" stroke="transparent" d="M157.3616,-18C165.3863,-18 174.3252,-18 182.8895,-18"/>
<polygon fill="transparent" stroke="transparent" points="183.0637,-21.5001 193.0637,-18 183.0636,-14.5001 183.0637,-21.5001"/>
</g>
<!-- col3 -->
<g id="node4" class="node">
<title>col3</title>
<ellipse fill="none" stroke="transparent" cx="310.3586" cy="-18" rx="27" ry="18"/>
</g>
<!-- col2&#45;&gt;col3 -->
<g id="edge3" class="edge">
<title>col2&#45;&gt;col3</title>
<path fill="none" stroke="transparent" d="M247.3616,-18C255.3863,-18 264.3252,-18 272.8895,-18"/>
<polygon fill="transparent" stroke="transparent" points="273.0637,-21.5001 283.0637,-18 273.0636,-14.5001 273.0637,-21.5001"/>
</g>
<!-- col4 -->
<g id="node5" class="node">
<title>col4</title>
<ellipse fill="none" stroke="transparent" cx="404.2966" cy="-18" rx="27" ry="18"/>
</g>
<!-- col3&#45;&gt;col4 -->
<g id="edge4" class="edge">
<title>col3&#45;&gt;col4</title>
<path fill="none" stroke="transparent" d="M337.5294,-18C346.7792,-18 357.2829,-18 367.1762,-18"/>
<polygon fill="transparent" stroke="transparent" points="367.187,-21.5001 377.1869,-18 367.1869,-14.5001 367.187,-21.5001"/>
</g>
<!-- col5 -->
<g id="node6" class="node">
<title>col5</title>
<ellipse fill="none" stroke="transparent" cx="498.2346" cy="-18" rx="27" ry="18"/>
</g>
<!-- col4&#45;&gt;col5 -->
<g id="edge5" class="edge">
<title>col4&#45;&gt;col5</title>
<path fill="none" stroke="transparent" d="M431.4674,-18C440.7172,-18 451.2209,-18 461.1142,-18"/>
<polygon fill="transparent" stroke="transparent" points="461.125,-21.5001 471.1249,-18 461.1249,-14.5001 461.125,-21.5001"/>
</g>
<!-- col6 -->
<g id="node7" class="node">
<title>col6</title>
<ellipse fill="none" stroke="transparent" cx="588.2346" cy="-18" rx="27" ry="18"/>
</g>
<!-- col5&#45;&gt;col6 -->
<g id="edge6" class="edge">
<title>col5&#45;&gt;col6</title>
<path fill="none" stroke="transparent" d="M525.2376,-18C533.2623,-18 542.2012,-18 550.7655,-18"/>
<polygon fill="transparent" stroke="transparent" points="550.9397,-21.5001 560.9396,-18 550.9396,-14.5001 550.9397,-21.5001"/>
</g>
<!-- col7 -->
<g id="node8" class="node">
<title>col7</title>
<ellipse fill="none" stroke="transparent" cx="700.1352" cy="-18" rx="27" ry="18"/>
</g>
<!-- col6&#45;&gt;col7 -->
<g id="edge7" class="edge">
<title>col6&#45;&gt;col7</title>
<path fill="none" stroke="transparent" d="M615.3226,-18C629.5123,-18 647.1126,-18 662.5958,-18"/>
<polygon fill="transparent" stroke="transparent" points="662.9089,-21.5001 672.9088,-18 662.9088,-14.5001 662.9089,-21.5001"/>
</g>
<!-- React -->
<g id="node9" class="node">
<title>React</title>
<polygon fill="none" stroke="#000000" points="157.3586,-90 103.3586,-90 103.3586,-54 157.3586,-54 157.3586,-90"/>
<text text-anchor="middle" x="130.3586" y="-67.8" font-family="Times,serif" font-size="14.00" fill="#000000">React</text>
</g>
<!-- Angular -->
<g id="node10" class="node">
<title>Angular</title>
<polygon fill="none" stroke="#000000" points="435.1727,-90 373.4205,-90 373.4205,-54 435.1727,-54 435.1727,-90"/>
<text text-anchor="middle" x="404.2966" y="-67.8" font-family="Times,serif" font-size="14.00" fill="#000000">Angular</text>
</g>
<!-- React&#45;&gt;Angular -->
<g id="edge9" class="edge">
<title>React&#45;&gt;Angular</title>
<path fill="none" stroke="#000000" d="M157.6264,-72C208.9168,-72 319.4355,-72 373.3925,-72"/>
</g>
<!-- Ember -->
<g id="node11" class="node">
<title>Ember</title>
<polygon fill="none" stroke="#000000" points="615.2346,-90 561.2346,-90 561.2346,-54 615.2346,-54 615.2346,-90"/>
<text text-anchor="middle" x="588.2346" y="-67.8" font-family="Times,serif" font-size="14.00" fill="#000000">Ember</text>
</g>
<!-- Angular&#45;&gt;Ember -->
<g id="edge10" class="edge">
<title>Angular&#45;&gt;Ember</title>
<path fill="none" stroke="#000000" d="M435.4992,-72C470.7581,-72 527.585,-72 561.0816,-72"/>
</g>
<!-- framework -->
<g id="node13" class="node">
<title>framework</title>
<ellipse fill="none" stroke="#000000" cx="700.1352" cy="-72" rx="48.8014" ry="18"/>
<text text-anchor="middle" x="700.1352" y="-67.8" font-family="Times,serif" font-size="14.00" fill="#000000">framework</text>
</g>
<!-- Ember&#45;&gt;framework -->
<g id="edge11" class="edge">
<title>Ember&#45;&gt;framework</title>
<path fill="none" stroke="#000000" d="M615.3226,-72C626.0599,-72 638.75,-72 650.998,-72"/>
</g>
<!-- library -->
<g id="node12" class="node">
<title>library</title>
<ellipse fill="none" stroke="#000000" cx="33.6793" cy="-72" rx="33.8596" ry="18"/>
<text text-anchor="middle" x="33.6793" y="-67.8" font-family="Times,serif" font-size="14.00" fill="#000000">library</text>
</g>
<!-- library&#45;&gt;React -->
<g id="edge8" class="edge">
<title>library&#45;&gt;React</title>
<path fill="none" stroke="#000000" d="M67.4931,-72C79.1458,-72 92.0401,-72 103.1023,-72"/>
</g>
</g>
</svg>
