<?xml version="1.0" encoding="UTF-8" standalone="no"?>
<!DOCTYPE svg PUBLIC "-//W3C//DTD SVG 1.1//EN"
 "http://www.w3.org/Graphics/SVG/1.1/DTD/svg11.dtd">
<!-- Generated by graphviz version 2.40.1 (20161225.0304)
 -->
<!-- Title: %3 Pages: 1 -->
<svg width="897pt" height="227pt"
 viewBox="0.00 0.00 897.23 227.46" xmlns="http://www.w3.org/2000/svg" xmlns:xlink="http://www.w3.org/1999/xlink">
<g id="graph0" class="graph" transform="scale(1 1) rotate(0) translate(4 223.4558)">
<title>%3</title>
<!-- EC3 -->
<g id="node1" class="node">
<title>EC3</title>
<ellipse fill="none" stroke="#000000" cx="63.4137" cy="-136" rx="63.3276" ry="18"/>
<text text-anchor="middle" x="63.4137" y="-131.8" font-family="Times,serif" font-size="14.00" fill="#000000">ECMAScript 3</text>
</g>
<!-- EC4 -->
<g id="node2" class="node">
<title>EC4</title>
<ellipse fill="none" stroke="#000000" stroke-dasharray="5,2" cx="246.4249" cy="-194" rx="83.695" ry="25.4118"/>
<text text-anchor="middle" x="246.4249" y="-196.8" font-family="Times,serif" font-size="14.00" fill="#000000">ECMAScript 4</text>
<text text-anchor="middle" x="246.4249" y="-182.8" font-family="Times,serif" font-size="14.00" fill="#000000">(never completed)</text>
</g>
<!-- EC3&#45;&gt;EC4 -->
<g id="edge1" class="edge">
<title>EC3&#45;&gt;EC4</title>
<path fill="none" stroke="#000000" stroke-dasharray="5,2" d="M105.8602,-149.4521C127.4869,-156.3061 154.3042,-164.8051 178.6988,-172.5362"/>
<polygon fill="#000000" stroke="#000000" points="177.6774,-175.884 188.2676,-175.5687 179.7923,-169.2111 177.6774,-175.884"/>
</g>
<!-- EC5 -->
<g id="node3" class="node">
<title>EC5</title>
<ellipse fill="none" stroke="#000000" cx="246.4249" cy="-79" rx="63.3276" ry="18"/>
<text text-anchor="middle" x="246.4249" y="-74.8" font-family="Times,serif" font-size="14.00" fill="#000000">ECMAScript 5</text>
</g>
<!-- EC3&#45;&gt;EC5 -->
<g id="edge2" class="edge">
<title>EC3&#45;&gt;EC5</title>
<path fill="none" stroke="#000000" d="M106.3217,-122.636C132.5001,-114.4826 166.1541,-104.0008 193.9167,-95.354"/>
<polygon fill="#000000" stroke="#000000" points="194.9622,-98.6943 203.4691,-92.3789 192.8806,-92.0109 194.9622,-98.6943"/>
</g>
<!-- EC3desc -->
<g id="node7" class="node">
<title>EC3desc</title>
<polygon fill="none" stroke="#000000" points="117.0506,-100 9.7769,-100 9.7769,-64 117.0506,-64 117.0506,-100"/>
<text text-anchor="middle" x="63.4137" y="-77.8" font-family="Times,serif" font-size="14.00" fill="#000000">&quot;old&quot; JavaScript</text>
</g>
<!-- EC3&#45;&gt;EC3desc -->
<g id="edge6" class="edge">
<title>EC3&#45;&gt;EC3desc</title>
<path fill="none" stroke="#000000" d="M63.4137,-117.7902C63.4137,-111.907 63.4137,-106.0238 63.4137,-100.1406"/>
</g>
<!-- EC4desc -->
<g id="node8" class="node">
<title>EC4desc</title>
<polygon fill="none" stroke="#000000" stroke-dasharray="5,2" points="304.7222,-151 188.1277,-151 188.1277,-115 304.7222,-115 304.7222,-151"/>
<text text-anchor="middle" x="246.4249" y="-135.8" font-family="Times,serif" font-size="14.00" fill="#000000">too many features</text>
<text text-anchor="middle" x="246.4249" y="-121.8" font-family="Times,serif" font-size="14.00" fill="#000000">to count</text>
</g>
<!-- EC4&#45;&gt;EC4desc -->
<g id="edge7" class="edge">
<title>EC4&#45;&gt;EC4desc</title>
<path fill="none" stroke="#000000" stroke-dasharray="5,2" d="M246.4249,-168.5337C246.4249,-162.7256 246.4249,-156.9175 246.4249,-151.1094"/>
</g>
<!-- EC6 -->
<g id="node4" class="node">
<title>EC6</title>
<ellipse fill="none" stroke="#000000" cx="478.7914" cy="-79" rx="112.5385" ry="25.4118"/>
<text text-anchor="middle" x="478.7914" y="-81.8" font-family="Times,serif" font-size="14.00" fill="#000000">ECMAScript 2015</text>
<text text-anchor="middle" x="478.7914" y="-67.8" font-family="Times,serif" font-size="14.00" fill="#000000">(ES6, ES.next, Harmony)</text>
</g>
<!-- EC5&#45;&gt;EC6 -->
<g id="edge3" class="edge">
<title>EC5&#45;&gt;EC6</title>
<path fill="none" stroke="#000000" d="M309.9201,-79C324.1396,-79 339.6949,-79 355.4265,-79"/>
<polygon fill="#000000" stroke="#000000" points="355.7776,-82.5001 365.7776,-79 355.7776,-75.5001 355.7776,-82.5001"/>
</g>
<!-- EC5desc -->
<g id="node9" class="node">
<title>EC5desc</title>
<polygon fill="none" stroke="#000000" points="303.4112,-43 189.4386,-43 189.4386,-7 303.4112,-7 303.4112,-43"/>
<text text-anchor="middle" x="246.4249" y="-27.8" font-family="Times,serif" font-size="14.00" fill="#000000">strict mode,</text>
<text text-anchor="middle" x="246.4249" y="-13.8" font-family="Times,serif" font-size="14.00" fill="#000000">static methods, ...</text>
</g>
<!-- EC5&#45;&gt;EC5desc -->
<g id="edge8" class="edge">
<title>EC5&#45;&gt;EC5desc</title>
<path fill="none" stroke="#000000" d="M246.4249,-60.7902C246.4249,-54.907 246.4249,-49.0238 246.4249,-43.1406"/>
</g>
<!-- EC7 -->
<g id="node5" class="node">
<title>EC7</title>
<ellipse fill="none" stroke="#000000" cx="713.3958" cy="-79" rx="85.6712" ry="25.4118"/>
<text text-anchor="middle" x="713.3958" y="-81.8" font-family="Times,serif" font-size="14.00" fill="#000000">ECMAScript 2016</text>
<text text-anchor="middle" x="713.3958" y="-67.8" font-family="Times,serif" font-size="14.00" fill="#000000">(ES7)</text>
</g>
<!-- EC6&#45;&gt;EC7 -->
<g id="edge4" class="edge">
<title>EC6&#45;&gt;EC7</title>
<path fill="none" stroke="#000000" d="M591.627,-79C600.1393,-79 608.683,-79 617.0785,-79"/>
<polygon fill="#000000" stroke="#000000" points="617.2336,-82.5001 627.2335,-79 617.2335,-75.5001 617.2336,-82.5001"/>
</g>
<!-- EC6desc -->
<g id="node10" class="node">
<title>EC6desc</title>
<polygon fill="none" stroke="#000000" points="539.5436,-36 418.0392,-36 418.0392,0 539.5436,0 539.5436,-36"/>
<text text-anchor="middle" x="478.7914" y="-20.8" font-family="Times,serif" font-size="14.00" fill="#000000">modules, classes,</text>
<text text-anchor="middle" x="478.7914" y="-6.8" font-family="Times,serif" font-size="14.00" fill="#000000">arrow functions, ...</text>
</g>
<!-- EC6&#45;&gt;EC6desc -->
<g id="edge9" class="edge">
<title>EC6&#45;&gt;EC6desc</title>
<path fill="none" stroke="#000000" d="M478.7914,-53.5337C478.7914,-47.7256 478.7914,-41.9175 478.7914,-36.1094"/>
</g>
<!-- EC8 -->
<g id="node6" class="node">
<title>EC8</title>
<ellipse fill="none" stroke="transparent" stroke-dasharray="5,2" cx="862.2313" cy="-79" rx="27" ry="18"/>
<text text-anchor="middle" x="862.2313" y="-74.8" font-family="Times,serif" font-size="14.00" fill="#fffffe">.</text>
</g>
<!-- EC7&#45;&gt;EC8 -->
<g id="edge5" class="edge">
<title>EC7&#45;&gt;EC8</title>
<path fill="none" stroke="#000000" stroke-dasharray="5,2" d="M799.543,-79C808.3823,-79 816.9951,-79 824.8656,-79"/>
<polygon fill="#000000" stroke="#000000" points="825.0895,-82.5001 835.0894,-79 825.0894,-75.5001 825.0895,-82.5001"/>
</g>
<!-- EC7desc -->
<g id="node11" class="node">
<title>EC7desc</title>
<polygon fill="none" stroke="#000000" points="771.9584,-36 654.8333,-36 654.8333,0 771.9584,0 771.9584,-36"/>
<text text-anchor="middle" x="713.3958" y="-13.8" font-family="Times,serif" font-size="14.00" fill="#000000">very small release</text>
</g>
<!-- EC7&#45;&gt;EC7desc -->
<g id="edge10" class="edge">
<title>EC7&#45;&gt;EC7desc</title>
<path fill="none" stroke="#000000" d="M713.3958,-53.5337C713.3958,-47.7256 713.3958,-41.9175 713.3958,-36.1094"/>
</g>
</g>
</svg>
