<?xml version="1.0" encoding="UTF-8" standalone="no"?>
<!DOCTYPE svg PUBLIC "-//W3C//DTD SVG 1.1//EN"
 "http://www.w3.org/Graphics/SVG/1.1/DTD/svg11.dtd">
<!-- Generated by graphviz version 2.40.1 (20161225.0304)
 -->
<!-- Title: %3 Pages: 1 -->
<svg width="878pt" height="126pt"
 viewBox="0.00 0.00 877.91 126.46" xmlns="http://www.w3.org/2000/svg" xmlns:xlink="http://www.w3.org/1999/xlink">
<g id="graph0" class="graph" transform="scale(1 1) rotate(0) translate(4 122.4558)">
<title>%3</title>
<!-- stageA -->
<g id="node1" class="node">
<title>stageA</title>
<ellipse fill="none" stroke="#000000" stroke-dasharray="5,2" cx="49.9897" cy="-93" rx="44.0569" ry="25.4118"/>
<text text-anchor="middle" x="49.9897" y="-95.8" font-family="Times,serif" font-size="14.00" fill="#000000">Stage &#45;1</text>
<text text-anchor="middle" x="49.9897" y="-81.8" font-family="Times,serif" font-size="14.00" fill="#000000">Idea</text>
</g>
<!-- stageAdesc -->
<g id="node2" class="node">
<title>stageAdesc</title>
<polygon fill="none" stroke="#000000" stroke-dasharray="5,2" points="99.9692,-50 .0103,-50 .0103,-14 99.9692,-14 99.9692,-50"/>
<text text-anchor="middle" x="49.9897" y="-34.8" font-family="Times,serif" font-size="14.00" fill="#000000">Someone has a</text>
<text text-anchor="middle" x="49.9897" y="-20.8" font-family="Times,serif" font-size="14.00" fill="#000000">great idea!</text>
</g>
<!-- stageA&#45;&gt;stageAdesc -->
<g id="edge1" class="edge">
<title>stageA&#45;&gt;stageAdesc</title>
<path fill="none" stroke="#000000" stroke-dasharray="5,2" d="M49.9897,-67.5337C49.9897,-61.7256 49.9897,-55.9175 49.9897,-50.1094"/>
</g>
<!-- stage0 -->
<g id="node3" class="node">
<title>stage0</title>
<ellipse fill="none" stroke="#000000" cx="191.0244" cy="-93" rx="51.4062" ry="25.4118"/>
<text text-anchor="middle" x="191.0244" y="-95.8" font-family="Times,serif" font-size="14.00" fill="#000000">Stage 0</text>
<text text-anchor="middle" x="191.0244" y="-81.8" font-family="Times,serif" font-size="14.00" fill="#000000">Strawman</text>
</g>
<!-- stageA&#45;&gt;stage0 -->
<g id="edge7" class="edge">
<title>stageA&#45;&gt;stage0</title>
<path fill="none" stroke="#000000" stroke-dasharray="5,2" d="M94.227,-93C105.3486,-93 117.4878,-93 129.2933,-93"/>
<polygon fill="#000000" stroke="#000000" points="129.548,-96.5001 139.548,-93 129.548,-89.5001 129.548,-96.5001"/>
</g>
<!-- stage0desc -->
<g id="node4" class="node">
<title>stage0desc</title>
<polygon fill="none" stroke="#000000" points="246.1143,-50 135.9345,-50 135.9345,-14 246.1143,-14 246.1143,-50"/>
<text text-anchor="middle" x="191.0244" y="-34.8" font-family="Times,serif" font-size="14.00" fill="#000000">Idea is discussed</text>
<text text-anchor="middle" x="191.0244" y="-20.8" font-family="Times,serif" font-size="14.00" fill="#000000">at TC39 meeting</text>
</g>
<!-- stage0&#45;&gt;stage0desc -->
<g id="edge2" class="edge">
<title>stage0&#45;&gt;stage0desc</title>
<path fill="none" stroke="#000000" d="M191.0244,-67.5337C191.0244,-61.7256 191.0244,-55.9175 191.0244,-50.1094"/>
</g>
<!-- stage1 -->
<g id="node5" class="node">
<title>stage1</title>
<ellipse fill="none" stroke="#000000" cx="352.2798" cy="-93" rx="45.9239" ry="25.4118"/>
<text text-anchor="middle" x="352.2798" y="-95.8" font-family="Times,serif" font-size="14.00" fill="#000000">Stage 1</text>
<text text-anchor="middle" x="352.2798" y="-81.8" font-family="Times,serif" font-size="14.00" fill="#000000">Proposal</text>
</g>
<!-- stage0&#45;&gt;stage1 -->
<g id="edge8" class="edge">
<title>stage0&#45;&gt;stage1</title>
<path fill="none" stroke="#000000" d="M242.49,-93C259.5952,-93 278.7243,-93 296.1629,-93"/>
<polygon fill="#000000" stroke="#000000" points="296.2071,-96.5001 306.2071,-93 296.207,-89.5001 296.2071,-96.5001"/>
</g>
<!-- stage1desc -->
<g id="node6" class="node">
<title>stage1desc</title>
<polygon fill="none" stroke="#000000" points="422.7013,-50 281.8583,-50 281.8583,0 422.7013,0 422.7013,-50"/>
<text text-anchor="middle" x="352.2798" y="-34.8" font-family="Times,serif" font-size="14.00" fill="#000000">Gets a champion.</text>
<text text-anchor="middle" x="352.2798" y="-20.8" font-family="Times,serif" font-size="14.00" fill="#000000">Thorough description.</text>
<text text-anchor="middle" x="352.2798" y="-6.8" font-family="Times,serif" font-size="14.00" fill="#000000">Demos and polyfills.</text>
</g>
<!-- stage1&#45;&gt;stage1desc -->
<g id="edge3" class="edge">
<title>stage1&#45;&gt;stage1desc</title>
<path fill="none" stroke="#000000" d="M352.2798,-67.2738C352.2798,-61.594 352.2798,-55.9142 352.2798,-50.2344"/>
</g>
<!-- stage2 -->
<g id="node7" class="node">
<title>stage2</title>
<ellipse fill="none" stroke="#000000" cx="521.3145" cy="-93" rx="40.965" ry="25.4118"/>
<text text-anchor="middle" x="521.3145" y="-95.8" font-family="Times,serif" font-size="14.00" fill="#000000">Stage 2</text>
<text text-anchor="middle" x="521.3145" y="-81.8" font-family="Times,serif" font-size="14.00" fill="#000000">Draft</text>
</g>
<!-- stage1&#45;&gt;stage2 -->
<g id="edge9" class="edge">
<title>stage1&#45;&gt;stage2</title>
<path fill="none" stroke="#000000" d="M398.4693,-93C420.6784,-93 447.3672,-93 470.1866,-93"/>
<polygon fill="#000000" stroke="#000000" points="470.369,-96.5001 480.3689,-93 470.3689,-89.5001 470.369,-96.5001"/>
</g>
<!-- stage2desc -->
<g id="node8" class="node">
<title>stage2desc</title>
<polygon fill="none" stroke="#000000" points="583.9634,-50 458.6655,-50 458.6655,-14 583.9634,-14 583.9634,-50"/>
<text text-anchor="middle" x="521.3145" y="-34.8" font-family="Times,serif" font-size="14.00" fill="#000000">Formal description.</text>
<text text-anchor="middle" x="521.3145" y="-20.8" font-family="Times,serif" font-size="14.00" fill="#000000">Implementations.</text>
</g>
<!-- stage2&#45;&gt;stage2desc -->
<g id="edge4" class="edge">
<title>stage2&#45;&gt;stage2desc</title>
<path fill="none" stroke="#000000" d="M521.3145,-67.5337C521.3145,-61.7256 521.3145,-55.9175 521.3145,-50.1094"/>
</g>
<!-- stage3 -->
<g id="node9" class="node">
<title>stage3</title>
<ellipse fill="none" stroke="#000000" cx="672.6509" cy="-93" rx="51.3965" ry="25.4118"/>
<text text-anchor="middle" x="672.6509" y="-95.8" font-family="Times,serif" font-size="14.00" fill="#000000">Stage 3</text>
<text text-anchor="middle" x="672.6509" y="-81.8" font-family="Times,serif" font-size="14.00" fill="#000000">Candidate</text>
</g>
<!-- stage2&#45;&gt;stage3 -->
<g id="edge10" class="edge">
<title>stage2&#45;&gt;stage3</title>
<path fill="none" stroke="#000000" d="M562.2683,-93C577.274,-93 594.6052,-93 611.0225,-93"/>
<polygon fill="#000000" stroke="#000000" points="611.0977,-96.5001 621.0976,-93 611.0976,-89.5001 611.0977,-96.5001"/>
</g>
<!-- stage3desc -->
<g id="node10" class="node">
<title>stage3desc</title>
<polygon fill="none" stroke="#000000" points="725.1753,-50 620.1265,-50 620.1265,-14 725.1753,-14 725.1753,-50"/>
<text text-anchor="middle" x="672.6509" y="-27.8" font-family="Times,serif" font-size="14.00" fill="#000000">Spec completed</text>
</g>
<!-- stage3&#45;&gt;stage3desc -->
<g id="edge5" class="edge">
<title>stage3&#45;&gt;stage3desc</title>
<path fill="none" stroke="#000000" d="M672.6509,-67.5337C672.6509,-61.7256 672.6509,-55.9175 672.6509,-50.1094"/>
</g>
<!-- stage4 -->
<g id="node11" class="node">
<title>stage4</title>
<ellipse fill="none" stroke="#000000" cx="815.5381" cy="-93" rx="45.3316" ry="25.4118"/>
<text text-anchor="middle" x="815.5381" y="-95.8" font-family="Times,serif" font-size="14.00" fill="#000000">Stage 4</text>
<text text-anchor="middle" x="815.5381" y="-81.8" font-family="Times,serif" font-size="14.00" fill="#000000">Finished</text>
</g>
<!-- stage3&#45;&gt;stage4 -->
<g id="edge11" class="edge">
<title>stage3&#45;&gt;stage4</title>
<path fill="none" stroke="#000000" d="M724.2364,-93C735.7363,-93 747.9818,-93 759.6461,-93"/>
<polygon fill="#000000" stroke="#000000" points="759.7135,-96.5001 769.7135,-93 759.7135,-89.5001 759.7135,-96.5001"/>
</g>
<!-- stage4desc -->
<g id="node12" class="node">
<title>stage4desc</title>
<polygon fill="none" stroke="#000000" points="869.7884,-50 761.2878,-50 761.2878,-14 869.7884,-14 869.7884,-50"/>
<text text-anchor="middle" x="815.5381" y="-34.8" font-family="Times,serif" font-size="14.00" fill="#000000">Will be included</text>
<text text-anchor="middle" x="815.5381" y="-20.8" font-family="Times,serif" font-size="14.00" fill="#000000">in next release</text>
</g>
<!-- stage4&#45;&gt;stage4desc -->
<g id="edge6" class="edge">
<title>stage4&#45;&gt;stage4desc</title>
<path fill="none" stroke="#000000" d="M815.5381,-67.5337C815.5381,-61.7256 815.5381,-55.9175 815.5381,-50.1094"/>
</g>
</g>
</svg>
