<?xml version="1.0" encoding="UTF-8" standalone="no"?>
<!DOCTYPE svg PUBLIC "-//W3C//DTD SVG 1.1//EN"
 "http://www.w3.org/Graphics/SVG/1.1/DTD/svg11.dtd">
<!-- Generated by graphviz version 2.40.1 (20161225.0304)
 -->
<!-- Title: %3 Pages: 1 -->
<svg width="542pt" height="126pt"
 viewBox="0.00 0.00 542.26 126.00" xmlns="http://www.w3.org/2000/svg" xmlns:xlink="http://www.w3.org/1999/xlink">
<g id="graph0" class="graph" transform="scale(1 1) rotate(0) translate(4 122)">
<title>%3</title>
<polygon fill="#ffffff" stroke="transparent" points="-4,4 -4,-122 538.2578,-122 538.2578,4 -4,4"/>
<!-- Level1 -->
<g id="node1" class="node">
<title>Level1</title>
<ellipse fill="none" stroke="#000000" cx="70.4976" cy="-100" rx="34.8198" ry="18"/>
<text text-anchor="middle" x="70.4976" y="-95.8" font-family="Times,serif" font-size="14.00" fill="#000000">Level1</text>
</g>
<!-- Level2 -->
<g id="node2" class="node">
<title>Level2</title>
<ellipse fill="none" stroke="#000000" cx="252.4556" cy="-100" rx="34.8198" ry="18"/>
<text text-anchor="middle" x="252.4556" y="-95.8" font-family="Times,serif" font-size="14.00" fill="#000000">Level2</text>
</g>
<!-- Level1&#45;&gt;Level2 -->
<g id="edge1" class="edge">
<title>Level1&#45;&gt;Level2</title>
<path fill="none" stroke="#000000" d="M105.5809,-100C134.6219,-100 176.0688,-100 207.5334,-100"/>
<polygon fill="#000000" stroke="#000000" points="207.789,-103.5001 217.7889,-100 207.7889,-96.5001 207.789,-103.5001"/>
</g>
<!-- Level1desc -->
<g id="node4" class="node">
<title>Level1desc</title>
<polygon fill="none" stroke="#000000" points="140.9927,-64 .0024,-64 .0024,-14 140.9927,-14 140.9927,-64"/>
<text text-anchor="middle" x="70.4976" y="-48.8" font-family="Times,serif" font-size="14.00" fill="#000000">Copy &amp; paste,</text>
<text text-anchor="middle" x="70.4976" y="-34.8" font-family="Times,serif" font-size="14.00" fill="#000000">doesn&#39;t understand all,</text>
<text text-anchor="middle" x="70.4976" y="-20.8" font-family="Times,serif" font-size="14.00" fill="#000000">but gets stuff done</text>
</g>
<!-- Level1&#45;&gt;Level1desc -->
<g id="edge3" class="edge">
<title>Level1&#45;&gt;Level1desc</title>
<path fill="none" stroke="#000000" d="M70.4976,-81.8497C70.4976,-75.9857 70.4976,-70.1218 70.4976,-64.2578"/>
</g>
<!-- Level3 -->
<g id="node3" class="node">
<title>Level3</title>
<ellipse fill="none" stroke="#000000" cx="449.0869" cy="-100" rx="34.8198" ry="18"/>
<text text-anchor="middle" x="449.0869" y="-95.8" font-family="Times,serif" font-size="14.00" fill="#000000">Level3</text>
</g>
<!-- Level2&#45;&gt;Level3 -->
<g id="edge2" class="edge">
<title>Level2&#45;&gt;Level3</title>
<path fill="none" stroke="#000000" d="M287.1567,-100C319.7693,-100 368.7478,-100 404.2965,-100"/>
<polygon fill="#000000" stroke="#000000" points="404.4026,-103.5001 414.4026,-100 404.4025,-96.5001 404.4026,-103.5001"/>
</g>
<!-- Level2desc -->
<g id="node5" class="node">
<title>Level2desc</title>
<polygon fill="none" stroke="#000000" points="327.8765,-64 177.0346,-64 177.0346,-14 327.8765,-14 327.8765,-64"/>
<text text-anchor="middle" x="252.4556" y="-48.8" font-family="Times,serif" font-size="14.00" fill="#000000">Applies design patterns,</text>
<text text-anchor="middle" x="252.4556" y="-34.8" font-family="Times,serif" font-size="14.00" fill="#000000">abstracts out helpers,</text>
<text text-anchor="middle" x="252.4556" y="-20.8" font-family="Times,serif" font-size="14.00" fill="#000000">likes to feel clever</text>
</g>
<!-- Level2&#45;&gt;Level2desc -->
<g id="edge4" class="edge">
<title>Level2&#45;&gt;Level2desc</title>
<path fill="none" stroke="#000000" d="M252.4556,-81.8497C252.4556,-75.9857 252.4556,-70.1218 252.4556,-64.2578"/>
</g>
<!-- Level3desc -->
<g id="node6" class="node">
<title>Level3desc</title>
<polygon fill="none" stroke="#000000" points="534.4291,-64 363.7448,-64 363.7448,0 534.4291,0 534.4291,-64"/>
<text text-anchor="middle" x="449.0869" y="-48.8" font-family="Times,serif" font-size="14.00" fill="#000000">Sees the big picture,</text>
<text text-anchor="middle" x="449.0869" y="-34.8" font-family="Times,serif" font-size="14.00" fill="#000000">makes pragmatic decisions,</text>
<text text-anchor="middle" x="449.0869" y="-20.8" font-family="Times,serif" font-size="14.00" fill="#000000">values readability</text>
<text text-anchor="middle" x="449.0869" y="-6.8" font-family="Times,serif" font-size="14.00" fill="#000000">and maintainability</text>
</g>
<!-- Level3&#45;&gt;Level3desc -->
<g id="edge5" class="edge">
<title>Level3&#45;&gt;Level3desc</title>
<path fill="none" stroke="#000000" d="M449.0869,-81.7902C449.0869,-75.907 449.0869,-70.0238 449.0869,-64.1406"/>
</g>
</g>
</svg>
