<?xml version="1.0" encoding="UTF-8" standalone="no"?>
<!DOCTYPE svg PUBLIC "-//W3C//DTD SVG 1.1//EN"
 "http://www.w3.org/Graphics/SVG/1.1/DTD/svg11.dtd">
<!-- Generated by graphviz version 2.40.1 (20161225.0304)
 -->
<!-- Title: %3 Pages: 1 -->
<svg width="340pt" height="190pt"
 viewBox="0.00 0.00 339.95 190.00" xmlns="http://www.w3.org/2000/svg" xmlns:xlink="http://www.w3.org/1999/xlink">
<g id="graph0" class="graph" transform="scale(1 1) rotate(0) translate(4 186)">
<title>%3</title>
<g id="clust1" class="cluster">
<title>cluster_previous</title>
<polygon fill="transparent" stroke="#000000" points="1,-46 1,-174 88.5548,-174 88.5548,-46 1,-46"/>
<text text-anchor="middle" x="44.7774" y="-158.8" font-family="Times,serif" font-size="14.00" fill="#000000">Current state</text>
</g>
<g id="clust2" class="cluster">
<title>cluster_reducer</title>
<polygon fill="transparent" stroke="#000000" points="111.992,-46 111.992,-174 231.3992,-174 231.3992,-46 111.992,-46"/>
<text text-anchor="middle" x="171.6956" y="-158.8" font-family="Times,serif" font-size="14.00" fill="#000000">Combined reducer</text>
</g>
<g id="clust3" class="cluster">
<title>cluster_updated</title>
<polygon fill="transparent" stroke="#000000" points="251.3992,-46 251.3992,-174 323.9539,-174 323.9539,-46 251.3992,-46"/>
<text text-anchor="middle" x="287.6766" y="-158.8" font-family="Times,serif" font-size="14.00" fill="#000000">New state</text>
</g>
<!-- part1old -->
<g id="node1" class="node">
<title>part1old</title>
<ellipse fill="none" stroke="#000000" cx="44.2774" cy="-126" rx="28.0565" ry="18"/>
<text text-anchor="middle" x="44.2774" y="-121.8" font-family="Times,serif" font-size="14.00" fill="#000000">part1</text>
</g>
<!-- part1Reducer -->
<g id="node3" class="node">
<title>part1Reducer</title>
<polygon fill="none" stroke="#000000" points="217.6037,-144 125.7874,-144 125.7874,-108 217.6037,-108 217.6037,-144"/>
<text text-anchor="middle" x="171.6956" y="-121.8" font-family="Times,serif" font-size="14.00" fill="#000000">part1Reducer</text>
</g>
<!-- part1old&#45;&gt;part1Reducer -->
<g id="edge1" class="edge">
<title>part1old&#45;&gt;part1Reducer</title>
<path fill="none" stroke="#000000" d="M72.5556,-126C85.3036,-126 100.8268,-126 115.7701,-126"/>
<polygon fill="#000000" stroke="#000000" points="115.9816,-129.5001 125.9815,-126 115.9815,-122.5001 115.9816,-129.5001"/>
</g>
<!-- part2old -->
<g id="node2" class="node">
<title>part2old</title>
<ellipse fill="none" stroke="#000000" cx="44.2774" cy="-72" rx="28.0565" ry="18"/>
<text text-anchor="middle" x="44.2774" y="-67.8" font-family="Times,serif" font-size="14.00" fill="#000000">part2</text>
</g>
<!-- part2Reducer -->
<g id="node4" class="node">
<title>part2Reducer</title>
<polygon fill="none" stroke="#000000" points="217.6037,-90 125.7874,-90 125.7874,-54 217.6037,-54 217.6037,-90"/>
<text text-anchor="middle" x="171.6956" y="-67.8" font-family="Times,serif" font-size="14.00" fill="#000000">part2Reducer</text>
</g>
<!-- part2old&#45;&gt;part2Reducer -->
<g id="edge3" class="edge">
<title>part2old&#45;&gt;part2Reducer</title>
<path fill="none" stroke="#000000" d="M72.5556,-72C85.3036,-72 100.8268,-72 115.7701,-72"/>
<polygon fill="#000000" stroke="#000000" points="115.9816,-75.5001 125.9815,-72 115.9815,-68.5001 115.9816,-75.5001"/>
</g>
<!-- part1new -->
<g id="node5" class="node">
<title>part1new</title>
<ellipse fill="none" stroke="#000000" cx="287.6766" cy="-126" rx="28.0565" ry="18"/>
<text text-anchor="middle" x="287.6766" y="-121.8" font-family="Times,serif" font-size="14.00" fill="#000000">part1</text>
</g>
<!-- part1Reducer&#45;&gt;part1new -->
<g id="edge2" class="edge">
<title>part1Reducer&#45;&gt;part1new</title>
<path fill="none" stroke="#000000" d="M217.5343,-126C227.9669,-126 238.9489,-126 249.0462,-126"/>
<polygon fill="#000000" stroke="#000000" points="249.1884,-129.5001 259.1884,-126 249.1884,-122.5001 249.1884,-129.5001"/>
</g>
<!-- part2new -->
<g id="node6" class="node">
<title>part2new</title>
<ellipse fill="none" stroke="#000000" cx="287.6766" cy="-72" rx="28.0565" ry="18"/>
<text text-anchor="middle" x="287.6766" y="-67.8" font-family="Times,serif" font-size="14.00" fill="#000000">part2</text>
</g>
<!-- part2Reducer&#45;&gt;part2new -->
<g id="edge4" class="edge">
<title>part2Reducer&#45;&gt;part2new</title>
<path fill="none" stroke="#000000" d="M217.5343,-72C227.9669,-72 238.9489,-72 249.0462,-72"/>
<polygon fill="#000000" stroke="#000000" points="249.1884,-75.5001 259.1884,-72 249.1884,-68.5001 249.1884,-75.5001"/>
</g>
<!-- action -->
<g id="node7" class="node">
<title>action</title>
<ellipse fill="none" stroke="#000000" cx="44.2774" cy="-18" rx="31.9306" ry="18"/>
<text text-anchor="middle" x="44.2774" y="-13.8" font-family="Times,serif" font-size="14.00" fill="#000000">action</text>
</g>
<!-- action&#45;&gt;part1Reducer -->
<g id="edge5" class="edge">
<title>action&#45;&gt;part1Reducer</title>
<path fill="none" stroke="#000000" d="M70.7331,-28.5458C77.1906,-32.0754 83.6453,-36.5372 88.5548,-42 106.8639,-62.3729 92.9614,-79.2992 111.992,-99 113.6295,-100.6952 115.393,-102.2928 117.2514,-103.7976"/>
<polygon fill="#000000" stroke="#000000" points="115.7015,-106.9827 125.9107,-109.8152 119.6962,-101.2344 115.7015,-106.9827"/>
</g>
<!-- action&#45;&gt;part2Reducer -->
<g id="edge6" class="edge">
<title>action&#45;&gt;part2Reducer</title>
<path fill="none" stroke="#000000" d="M69.7561,-28.7979C84.095,-34.8747 102.5338,-42.6892 119.7783,-49.9974"/>
<polygon fill="#000000" stroke="#000000" points="118.6291,-53.3117 129.2021,-53.9912 121.3606,-46.8666 118.6291,-53.3117"/>
</g>
</g>
</svg>
