<?xml version="1.0" encoding="UTF-8" standalone="no"?>
<!DOCTYPE svg PUBLIC "-//W3C//DTD SVG 1.1//EN"
 "http://www.w3.org/Graphics/SVG/1.1/DTD/svg11.dtd">
<!-- Generated by graphviz version 2.40.1 (20161225.0304)
 -->
<!-- Title: %3 Pages: 1 -->
<svg width="665pt" height="98pt"
 viewBox="0.00 0.00 664.85 98.00" xmlns="http://www.w3.org/2000/svg" xmlns:xlink="http://www.w3.org/1999/xlink">
<g id="graph0" class="graph" transform="scale(1 1) rotate(0) translate(4 94)">
<title>%3</title>
<!-- numQuotesSelector -->
<g id="node1" class="node">
<title>numQuotesSelector</title>
<polygon fill="none" stroke="#000000" points="216.6321,-90 89.7888,-90 89.7888,-54 216.6321,-54 216.6321,-90"/>
<text text-anchor="middle" x="153.2104" y="-67.8" font-family="Times,serif" font-size="14.00" fill="#000000">numQuotesSelector</text>
</g>
<!-- numberOfQuotes -->
<g id="node5" class="node">
<title>numberOfQuotes</title>
<ellipse fill="none" stroke="#000000" cx="328.3485" cy="-72" rx="71.5117" ry="18"/>
<text text-anchor="middle" x="328.3485" y="-67.8" font-family="Times,serif" font-size="14.00" fill="#000000">numberOfQuotes</text>
</g>
<!-- numQuotesSelector&#45;&gt;numberOfQuotes -->
<g id="edge2" class="edge">
<title>numQuotesSelector&#45;&gt;numberOfQuotes</title>
<path fill="none" stroke="#000000" d="M216.4393,-72C226.2129,-72 236.4259,-72 246.5361,-72"/>
<polygon fill="#000000" stroke="#000000" points="246.5921,-75.5001 256.592,-72 246.592,-68.5001 246.5921,-75.5001"/>
</g>
<!-- timeSelector -->
<g id="node2" class="node">
<title>timeSelector</title>
<polygon fill="none" stroke="#000000" points="196.4628,-36 109.9581,-36 109.9581,0 196.4628,0 196.4628,-36"/>
<text text-anchor="middle" x="153.2104" y="-13.8" font-family="Times,serif" font-size="14.00" fill="#000000">timeSelector</text>
</g>
<!-- numberOfSeconds -->
<g id="node6" class="node">
<title>numberOfSeconds</title>
<ellipse fill="none" stroke="#000000" cx="328.3485" cy="-18" rx="75.8553" ry="18"/>
<text text-anchor="middle" x="328.3485" y="-13.8" font-family="Times,serif" font-size="14.00" fill="#000000">numberOfSeconds</text>
</g>
<!-- timeSelector&#45;&gt;numberOfSeconds -->
<g id="edge5" class="edge">
<title>timeSelector&#45;&gt;numberOfSeconds</title>
<path fill="none" stroke="#000000" d="M196.503,-18C210.2966,-18 226.0792,-18 241.8171,-18"/>
<polygon fill="#000000" stroke="#000000" points="242.1314,-21.5001 252.1314,-18 242.1314,-14.5001 242.1314,-21.5001"/>
</g>
<!-- averageSelector -->
<g id="node3" class="node">
<title>averageSelector</title>
<polygon fill="none" stroke="#000000" points="545.8569,-63 440.082,-63 440.082,-27 545.8569,-27 545.8569,-63"/>
<text text-anchor="middle" x="492.9695" y="-40.8" font-family="Times,serif" font-size="14.00" fill="#000000">averageSelector</text>
</g>
<!-- average -->
<g id="node7" class="node">
<title>average</title>
<ellipse fill="none" stroke="#000000" cx="619.2586" cy="-45" rx="37.6919" ry="18"/>
<text text-anchor="middle" x="619.2586" y="-40.8" font-family="Times,serif" font-size="14.00" fill="#000000">average</text>
</g>
<!-- averageSelector&#45;&gt;average -->
<g id="edge7" class="edge">
<title>averageSelector&#45;&gt;average</title>
<path fill="none" stroke="#000000" d="M545.7957,-45C554.3491,-45 563.1621,-45 571.5839,-45"/>
<polygon fill="#000000" stroke="#000000" points="571.6189,-48.5001 581.6189,-45 571.6189,-41.5001 571.6189,-48.5001"/>
</g>
<!-- state -->
<g id="node4" class="node">
<title>state</title>
<ellipse fill="none" stroke="#000000" cx="27" cy="-45" rx="27" ry="18"/>
<text text-anchor="middle" x="27" y="-40.8" font-family="Times,serif" font-size="14.00" fill="#000000">state</text>
</g>
<!-- state&#45;&gt;numQuotesSelector -->
<g id="edge1" class="edge">
<title>state&#45;&gt;numQuotesSelector</title>
<path fill="none" stroke="#000000" d="M52.8451,-50.529C60.9584,-52.2647 70.3519,-54.2742 80.0713,-56.3535"/>
<polygon fill="#000000" stroke="#000000" points="79.3531,-59.7789 89.864,-58.4484 80.8175,-52.9338 79.3531,-59.7789"/>
</g>
<!-- state&#45;&gt;timeSelector -->
<g id="edge4" class="edge">
<title>state&#45;&gt;timeSelector</title>
<path fill="none" stroke="#000000" d="M52.8451,-39.471C66.4022,-36.5707 83.5338,-32.9058 99.7876,-29.4287"/>
<polygon fill="#000000" stroke="#000000" points="100.708,-32.811 109.7546,-27.2964 99.2436,-25.9659 100.708,-32.811"/>
</g>
<!-- numberOfQuotes&#45;&gt;averageSelector -->
<g id="edge3" class="edge">
<title>numberOfQuotes&#45;&gt;averageSelector</title>
<path fill="none" stroke="#000000" d="M388.7125,-62.0995C402.1673,-59.8928 416.4661,-57.5476 430.022,-55.3242"/>
<polygon fill="#000000" stroke="#000000" points="430.9156,-58.7245 440.2173,-53.6521 429.7826,-51.8168 430.9156,-58.7245"/>
</g>
<!-- numberOfSeconds&#45;&gt;averageSelector -->
<g id="edge6" class="edge">
<title>numberOfSeconds&#45;&gt;averageSelector</title>
<path fill="none" stroke="#000000" d="M391.0542,-28.2846C403.8162,-30.3777 417.2458,-32.5803 430.0164,-34.6749"/>
<polygon fill="#000000" stroke="#000000" points="429.6568,-38.1626 440.0914,-36.3273 430.7898,-31.2549 429.6568,-38.1626"/>
</g>
</g>
</svg>
