<?xml version="1.0" encoding="UTF-8" standalone="no"?>
<!DOCTYPE svg PUBLIC "-//W3C//DTD SVG 1.1//EN"
 "http://www.w3.org/Graphics/SVG/1.1/DTD/svg11.dtd">
<!-- Generated by graphviz version 2.40.1 (20161225.0304)
 -->
<!-- Title: %3 Pages: 1 -->
<svg width="516pt" height="44pt"
 viewBox="0.00 0.00 515.56 44.00" xmlns="http://www.w3.org/2000/svg" xmlns:xlink="http://www.w3.org/1999/xlink">
<g id="graph0" class="graph" transform="scale(1 1) rotate(0) translate(4 40)">
<title>%3</title>
<!-- creator -->
<g id="node1" class="node">
<title>creator</title>
<ellipse fill="none" stroke="#000000" cx="193.2726" cy="-18" rx="58.4391" ry="18"/>
<text text-anchor="middle" x="193.2726" y="-13.8" font-family="Times,serif" font-size="14.00" fill="#000000">action creator</text>
</g>
<!-- middlewares -->
<g id="node3" class="node">
<title>middlewares</title>
<ellipse fill="none" stroke="#000000" cx="343.0335" cy="-18" rx="55.0836" ry="18"/>
<text text-anchor="middle" x="343.0335" y="-13.8" font-family="Times,serif" font-size="14.00" fill="#000000">middlewares</text>
</g>
<!-- creator&#45;&gt;middlewares -->
<g id="edge2" class="edge">
<title>creator&#45;&gt;middlewares</title>
<path fill="none" stroke="#000000" d="M252.0322,-18C260.3049,-18 268.8532,-18 277.2468,-18"/>
<polygon fill="#000000" stroke="#000000" points="277.3795,-21.5001 287.3795,-18 277.3794,-14.5001 277.3795,-21.5001"/>
</g>
<!-- component -->
<g id="node2" class="node">
<title>component</title>
<ellipse fill="none" stroke="#000000" cx="49.4015" cy="-18" rx="49.3032" ry="18"/>
<text text-anchor="middle" x="49.4015" y="-13.8" font-family="Times,serif" font-size="14.00" fill="#000000">component</text>
</g>
<!-- component&#45;&gt;creator -->
<g id="edge1" class="edge">
<title>component&#45;&gt;creator</title>
<path fill="none" stroke="#000000" d="M98.9138,-18C107.2097,-18 115.9477,-18 124.6219,-18"/>
<polygon fill="#000000" stroke="#000000" points="124.745,-21.5001 134.745,-18 124.7449,-14.5001 124.745,-21.5001"/>
</g>
<!-- reducer -->
<g id="node4" class="node">
<title>reducer</title>
<ellipse fill="none" stroke="#000000" cx="470.9405" cy="-18" rx="36.7316" ry="18"/>
<text text-anchor="middle" x="470.9405" y="-13.8" font-family="Times,serif" font-size="14.00" fill="#000000">reducer</text>
</g>
<!-- middlewares&#45;&gt;reducer -->
<g id="edge3" class="edge">
<title>middlewares&#45;&gt;reducer</title>
<path fill="none" stroke="#000000" d="M398.3915,-18C407.0314,-18 415.8846,-18 424.3046,-18"/>
<polygon fill="#000000" stroke="#000000" points="424.317,-21.5001 434.3169,-18 424.3169,-14.5001 424.317,-21.5001"/>
</g>
</g>
</svg>
