<?xml version="1.0" encoding="UTF-8" standalone="no"?>
<!DOCTYPE svg PUBLIC "-//W3C//DTD SVG 1.1//EN"
 "http://www.w3.org/Graphics/SVG/1.1/DTD/svg11.dtd">
<!-- Generated by graphviz version 2.40.1 (20161225.0304)
 -->
<!-- Title: %3 Pages: 1 -->
<svg width="248pt" height="98pt"
 viewBox="0.00 0.00 247.52 98.00" xmlns="http://www.w3.org/2000/svg" xmlns:xlink="http://www.w3.org/1999/xlink">
<g id="graph0" class="graph" transform="scale(1 1) rotate(0) translate(4 94)">
<title>%3</title>
<!-- render -->
<g id="node1" class="node">
<title>render</title>
<polygon fill="none" stroke="#000000" points="149.517,-63 95.517,-63 95.517,-27 149.517,-27 149.517,-63"/>
<text text-anchor="middle" x="122.517" y="-40.8" font-family="Times,serif" font-size="14.00" fill="#000000">render</text>
</g>
<!-- UI -->
<g id="node4" class="node">
<title>UI</title>
<ellipse fill="none" stroke="#000000" cx="212.517" cy="-45" rx="27" ry="18"/>
<text text-anchor="middle" x="212.517" y="-40.8" font-family="Times,serif" font-size="14.00" fill="#000000">UI</text>
</g>
<!-- render&#45;&gt;UI -->
<g id="edge3" class="edge">
<title>render&#45;&gt;UI</title>
<path fill="none" stroke="#000000" d="M149.5199,-45C157.5446,-45 166.4835,-45 175.0478,-45"/>
<polygon fill="#000000" stroke="#000000" points="175.222,-48.5001 185.222,-45 175.222,-41.5001 175.222,-48.5001"/>
</g>
<!-- props -->
<g id="node2" class="node">
<title>props</title>
<ellipse fill="none" stroke="#000000" cx="29.7585" cy="-72" rx="29.5189" ry="18"/>
<text text-anchor="middle" x="29.7585" y="-67.8" font-family="Times,serif" font-size="14.00" fill="#000000">props</text>
</g>
<!-- props&#45;&gt;render -->
<g id="edge1" class="edge">
<title>props&#45;&gt;render</title>
<path fill="none" stroke="#000000" d="M56.5881,-64.1905C65.6423,-61.555 75.9133,-58.5653 85.6076,-55.7435"/>
<polygon fill="#000000" stroke="#000000" points="86.803,-59.0409 95.4263,-52.8855 84.8466,-52.3198 86.803,-59.0409"/>
</g>
<!-- state -->
<g id="node3" class="node">
<title>state</title>
<ellipse fill="none" stroke="#000000" cx="29.7585" cy="-18" rx="27" ry="18"/>
<text text-anchor="middle" x="29.7585" y="-13.8" font-family="Times,serif" font-size="14.00" fill="#000000">state</text>
</g>
<!-- state&#45;&gt;render -->
<g id="edge2" class="edge">
<title>state&#45;&gt;render</title>
<path fill="none" stroke="#000000" d="M54.6161,-25.2355C64.1323,-28.0055 75.2017,-31.2275 85.607,-34.2563"/>
<polygon fill="#000000" stroke="#000000" points="84.7275,-37.6455 95.3073,-37.0798 86.6839,-30.9244 84.7275,-37.6455"/>
</g>
</g>
</svg>
