<?xml version="1.0" encoding="UTF-8" standalone="no"?>
<!DOCTYPE svg PUBLIC "-//W3C//DTD SVG 1.1//EN"
 "http://www.w3.org/Graphics/SVG/1.1/DTD/svg11.dtd">
<!-- Generated by graphviz version 2.40.1 (20161225.0304)
 -->
<!-- Title: %3 Pages: 1 -->
<svg width="260pt" height="152pt"
 viewBox="0.00 0.00 260.27 152.00" xmlns="http://www.w3.org/2000/svg" xmlns:xlink="http://www.w3.org/1999/xlink">
<g id="graph0" class="graph" transform="scale(1 1) rotate(0) translate(4 148)">
<title>%3</title>
<!-- render -->
<g id="node1" class="node">
<title>render</title>
<polygon fill="none" stroke="#000000" points="162.2726,-90 108.2726,-90 108.2726,-54 162.2726,-54 162.2726,-90"/>
<text text-anchor="middle" x="135.2726" y="-67.8" font-family="Times,serif" font-size="14.00" fill="#000000">render</text>
</g>
<!-- UI -->
<g id="node5" class="node">
<title>UI</title>
<ellipse fill="none" stroke="#000000" cx="225.2726" cy="-72" rx="27" ry="18"/>
<text text-anchor="middle" x="225.2726" y="-67.8" font-family="Times,serif" font-size="14.00" fill="#000000">UI</text>
</g>
<!-- render&#45;&gt;UI -->
<g id="edge4" class="edge">
<title>render&#45;&gt;UI</title>
<path fill="none" stroke="#000000" d="M162.2756,-72C170.3003,-72 179.2392,-72 187.8035,-72"/>
<polygon fill="#000000" stroke="#000000" points="187.9777,-75.5001 197.9777,-72 187.9776,-68.5001 187.9777,-75.5001"/>
</g>
<!-- props -->
<g id="node2" class="node">
<title>props</title>
<ellipse fill="none" stroke="#000000" cx="36.1363" cy="-126" rx="29.5189" ry="18"/>
<text text-anchor="middle" x="36.1363" y="-121.8" font-family="Times,serif" font-size="14.00" fill="#000000">props</text>
</g>
<!-- props&#45;&gt;render -->
<g id="edge1" class="edge">
<title>props&#45;&gt;render</title>
<path fill="none" stroke="#000000" d="M58.6319,-113.7466C70.5144,-107.2741 85.3911,-99.1707 98.8681,-91.8297"/>
<polygon fill="#000000" stroke="#000000" points="100.8133,-94.7558 107.9208,-86.8987 97.4648,-88.6086 100.8133,-94.7558"/>
</g>
<!-- state -->
<g id="node3" class="node">
<title>state</title>
<ellipse fill="none" stroke="#000000" cx="36.1363" cy="-72" rx="27" ry="18"/>
<text text-anchor="middle" x="36.1363" y="-67.8" font-family="Times,serif" font-size="14.00" fill="#000000">state</text>
</g>
<!-- state&#45;&gt;render -->
<g id="edge2" class="edge">
<title>state&#45;&gt;render</title>
<path fill="none" stroke="#000000" d="M63.2258,-72C73.9355,-72 86.4215,-72 97.9617,-72"/>
<polygon fill="#000000" stroke="#000000" points="98.216,-75.5001 108.216,-72 98.2159,-68.5001 98.216,-75.5001"/>
</g>
<!-- context -->
<g id="node4" class="node">
<title>context</title>
<ellipse fill="none" stroke="#000000" cx="36.1363" cy="-18" rx="36.2732" ry="18"/>
<text text-anchor="middle" x="36.1363" y="-13.8" font-family="Times,serif" font-size="14.00" fill="#000000">context</text>
</g>
<!-- context&#45;&gt;render -->
<g id="edge3" class="edge">
<title>context&#45;&gt;render</title>
<path fill="none" stroke="#000000" d="M60.6419,-31.3483C72.269,-37.6816 86.3928,-45.3749 99.2117,-52.3575"/>
<polygon fill="#000000" stroke="#000000" points="97.805,-55.5767 108.261,-57.2866 101.1535,-49.4295 97.805,-55.5767"/>
</g>
</g>
</svg>
