<?xml version="1.0" encoding="UTF-8" standalone="no"?>
<!DOCTYPE svg PUBLIC "-//W3C//DTD SVG 1.1//EN"
 "http://www.w3.org/Graphics/SVG/1.1/DTD/svg11.dtd">
<!-- Generated by graphviz version 2.40.1 (20161225.0304)
 -->
<!-- Title: %3 Pages: 1 -->
<svg width="248pt" height="44pt"
 viewBox="0.00 0.00 247.52 44.00" xmlns="http://www.w3.org/2000/svg" xmlns:xlink="http://www.w3.org/1999/xlink">
<g id="graph0" class="graph" transform="scale(1 1) rotate(0) translate(4 40)">
<title>%3</title>
<!-- render -->
<g id="node1" class="node">
<title>render</title>
<polygon fill="none" stroke="#000000" points="149.517,-36 95.517,-36 95.517,0 149.517,0 149.517,-36"/>
<text text-anchor="middle" x="122.517" y="-13.8" font-family="Times,serif" font-size="14.00" fill="#000000">render</text>
</g>
<!-- UI -->
<g id="node3" class="node">
<title>UI</title>
<ellipse fill="none" stroke="#000000" cx="212.517" cy="-18" rx="27" ry="18"/>
<text text-anchor="middle" x="212.517" y="-13.8" font-family="Times,serif" font-size="14.00" fill="#000000">UI</text>
</g>
<!-- render&#45;&gt;UI -->
<g id="edge2" class="edge">
<title>render&#45;&gt;UI</title>
<path fill="none" stroke="#000000" d="M149.5199,-18C157.5446,-18 166.4835,-18 175.0478,-18"/>
<polygon fill="#000000" stroke="#000000" points="175.222,-21.5001 185.222,-18 175.222,-14.5001 175.222,-21.5001"/>
</g>
<!-- props -->
<g id="node2" class="node">
<title>props</title>
<ellipse fill="none" stroke="#000000" cx="29.7585" cy="-18" rx="29.5189" ry="18"/>
<text text-anchor="middle" x="29.7585" y="-13.8" font-family="Times,serif" font-size="14.00" fill="#000000">props</text>
</g>
<!-- props&#45;&gt;render -->
<g id="edge1" class="edge">
<title>props&#45;&gt;render</title>
<path fill="none" stroke="#000000" d="M59.6184,-18C67.7513,-18 76.6638,-18 85.1566,-18"/>
<polygon fill="#000000" stroke="#000000" points="85.2272,-21.5001 95.2272,-18 85.2271,-14.5001 85.2272,-21.5001"/>
</g>
</g>
</svg>
