<?xml version="1.0" encoding="UTF-8" standalone="no"?>
<!DOCTYPE svg PUBLIC "-//W3C//DTD SVG 1.1//EN"
 "http://www.w3.org/Graphics/SVG/1.1/DTD/svg11.dtd">
<!-- Generated by graphviz version 2.40.1 (20161225.0304)
 -->
<!-- Title: %3 Pages: 1 -->
<svg width="477pt" height="179pt"
 viewBox="0.00 0.00 477.01 179.00" xmlns="http://www.w3.org/2000/svg" xmlns:xlink="http://www.w3.org/1999/xlink">
<g id="graph0" class="graph" transform="scale(1 1) rotate(0) translate(4 175)">
<title>%3</title>
<!-- connect -->
<g id="node1" class="node">
<title>connect</title>
<polygon fill="none" stroke="#000000" points="228.471,-90 169.4048,-90 169.4048,-54 228.471,-54 228.471,-90"/>
<text text-anchor="middle" x="198.9379" y="-67.8" font-family="Times,serif" font-size="14.00" fill="#000000">connect</text>
</g>
<!-- wrapper -->
<g id="node2" class="node">
<title>wrapper</title>
<polygon fill="none" stroke="#000000" points="346.8233,-117 284.5108,-117 284.5108,-81 346.8233,-81 346.8233,-117"/>
<text text-anchor="middle" x="315.6671" y="-101.8" font-family="Times,serif" font-size="14.00" fill="#000000">wrapper</text>
<text text-anchor="middle" x="315.6671" y="-87.8" font-family="Times,serif" font-size="14.00" fill="#000000">function</text>
</g>
<!-- connect&#45;&gt;wrapper -->
<g id="edge6" class="edge">
<title>connect&#45;&gt;wrapper</title>
<path fill="none" stroke="#000000" stroke-dasharray="5,2" d="M228.6956,-78.8831C242.5258,-82.0821 259.2032,-85.9396 274.2388,-89.4175"/>
<polygon fill="#000000" stroke="#000000" points="273.7991,-92.9081 284.3306,-91.7517 275.3766,-86.0881 273.7991,-92.9081"/>
</g>
<!-- container -->
<g id="node3" class="node">
<title>container</title>
<ellipse fill="none" stroke="#000000" cx="426.0011" cy="-126" rx="43.0128" ry="18"/>
<text text-anchor="middle" x="426.0011" y="-121.8" font-family="Times,serif" font-size="14.00" fill="#000000">container</text>
</g>
<!-- wrapper&#45;&gt;container -->
<g id="edge7" class="edge">
<title>wrapper&#45;&gt;container</title>
<path fill="none" stroke="#000000" stroke-dasharray="5,2" d="M346.9892,-106.6649C356.94,-109.1 368.1723,-111.8486 378.9784,-114.493"/>
<polygon fill="#000000" stroke="#000000" points="378.1882,-117.9028 388.7336,-116.8802 379.8521,-111.1035 378.1882,-117.9028"/>
</g>
<!-- mapState -->
<g id="node4" class="node">
<title>mapState</title>
<ellipse fill="none" stroke="#000000" cx="56.7682" cy="-126" rx="43.0301" ry="18"/>
<text text-anchor="middle" x="56.7682" y="-121.8" font-family="Times,serif" font-size="14.00" fill="#000000">mapState</text>
</g>
<!-- mapState&#45;&gt;connect -->
<g id="edge1" class="edge">
<title>mapState&#45;&gt;connect</title>
<path fill="none" stroke="#000000" d="M88.6739,-113.8813C109.6403,-105.9177 137.2199,-95.4422 159.5511,-86.9602"/>
<polygon fill="#000000" stroke="#000000" points="160.9761,-90.163 169.0817,-83.3402 158.4905,-83.6191 160.9761,-90.163"/>
</g>
<!-- mapDispatch -->
<g id="node5" class="node">
<title>mapDispatch</title>
<ellipse fill="none" stroke="#000000" cx="56.7682" cy="-72" rx="56.5373" ry="18"/>
<text text-anchor="middle" x="56.7682" y="-67.8" font-family="Times,serif" font-size="14.00" fill="#000000">mapDispatch</text>
</g>
<!-- mapDispatch&#45;&gt;connect -->
<g id="edge2" class="edge">
<title>mapDispatch&#45;&gt;connect</title>
<path fill="none" stroke="#000000" d="M113.7749,-72C128.9186,-72 144.9502,-72 158.97,-72"/>
<polygon fill="#000000" stroke="#000000" points="159.2508,-75.5001 169.2508,-72 159.2507,-68.5001 159.2508,-75.5001"/>
</g>
<!-- bake -->
<g id="node6" class="node">
<title>bake</title>
<ellipse fill="none" stroke="#000000" cx="56.7682" cy="-18" rx="27" ry="18"/>
<text text-anchor="middle" x="56.7682" y="-13.8" font-family="Times,serif" font-size="14.00" fill="#000000">bake</text>
</g>
<!-- bake&#45;&gt;connect -->
<g id="edge3" class="edge">
<title>bake&#45;&gt;connect</title>
<path fill="none" stroke="#000000" d="M80.2446,-26.917C101.854,-35.1249 134.3268,-47.4589 159.8473,-57.1523"/>
<polygon fill="#000000" stroke="#000000" points="158.6596,-60.4451 169.2508,-60.724 161.1452,-53.9012 158.6596,-60.4451"/>
</g>
<!-- component -->
<g id="node7" class="node">
<title>component</title>
<ellipse fill="none" stroke="#000000" cx="198.9379" cy="-126" rx="49.3032" ry="18"/>
<text text-anchor="middle" x="198.9379" y="-121.8" font-family="Times,serif" font-size="14.00" fill="#000000">component</text>
</g>
<!-- component&#45;&gt;wrapper -->
<g id="edge4" class="edge">
<title>component&#45;&gt;wrapper</title>
<path fill="none" stroke="#000000" d="M240.7501,-116.3286C251.769,-113.7799 263.646,-111.0327 274.6239,-108.4935"/>
<polygon fill="#000000" stroke="#000000" points="275.4486,-111.8952 284.4026,-106.2316 273.871,-105.0753 275.4486,-111.8952"/>
</g>
<!-- props -->
<g id="node8" class="node">
<title>props</title>
<ellipse fill="none" stroke="#000000" cx="315.6671" cy="-153" rx="29.5189" ry="18"/>
<text text-anchor="middle" x="315.6671" y="-148.8" font-family="Times,serif" font-size="14.00" fill="#000000">props</text>
</g>
<!-- props&#45;&gt;container -->
<g id="edge5" class="edge">
<title>props&#45;&gt;container</title>
<path fill="none" stroke="#000000" d="M343.509,-146.1868C354.1821,-143.5749 366.6807,-140.5164 378.6747,-137.5813"/>
<polygon fill="#000000" stroke="#000000" points="379.6983,-140.9342 388.5797,-135.1574 378.0343,-134.1348 379.6983,-140.9342"/>
</g>
</g>
</svg>
