<?xml version="1.0" encoding="UTF-8" standalone="no"?>
<!DOCTYPE svg PUBLIC "-//W3C//DTD SVG 1.1//EN"
 "http://www.w3.org/Graphics/SVG/1.1/DTD/svg11.dtd">
<!-- Generated by graphviz version 2.40.1 (20161225.0304)
 -->
<!-- Title: %3 Pages: 1 -->
<svg width="539pt" height="98pt"
 viewBox="0.00 0.00 539.40 98.00" xmlns="http://www.w3.org/2000/svg" xmlns:xlink="http://www.w3.org/1999/xlink">
<g id="graph0" class="graph" transform="scale(1 1) rotate(0) translate(4 94)">
<title>%3</title>
<!-- component -->
<g id="node1" class="node">
<title>component</title>
<polygon fill="none" stroke="#000000" points="173.8278,-63 95.4132,-63 95.4132,-27 173.8278,-27 173.8278,-63"/>
<text text-anchor="middle" x="134.6205" y="-40.8" font-family="Times,serif" font-size="14.00" fill="#000000">component</text>
</g>
<!-- virtualDOM -->
<g id="node5" class="node">
<title>virtualDOM</title>
<ellipse fill="none" stroke="#000000" cx="263.5516" cy="-45" rx="53.6557" ry="18"/>
<text text-anchor="middle" x="263.5516" y="-40.8" font-family="Times,serif" font-size="14.00" fill="#000000">virtualDOM</text>
</g>
<!-- component&#45;&gt;virtualDOM -->
<g id="edge3" class="edge">
<title>component&#45;&gt;virtualDOM</title>
<path fill="none" stroke="#000000" d="M174.0046,-45C182.0952,-45 190.8101,-45 199.5147,-45"/>
<polygon fill="#000000" stroke="#000000" points="199.6902,-48.5001 209.6902,-45 199.6902,-41.5001 199.6902,-48.5001"/>
</g>
<!-- ReactDOM -->
<g id="node2" class="node">
<title>ReactDOM</title>
<polygon fill="none" stroke="#000000" points="433.6876,-63 353.6088,-63 353.6088,-27 433.6876,-27 433.6876,-63"/>
<text text-anchor="middle" x="393.6482" y="-40.8" font-family="Times,serif" font-size="14.00" fill="#000000">ReactDOM</text>
</g>
<!-- DOM -->
<g id="node6" class="node">
<title>DOM</title>
<ellipse fill="none" stroke="#000000" cx="500.6602" cy="-45" rx="30.988" ry="18"/>
<text text-anchor="middle" x="500.6602" y="-40.8" font-family="Times,serif" font-size="14.00" fill="#000000">DOM</text>
</g>
<!-- ReactDOM&#45;&gt;DOM -->
<g id="edge5" class="edge">
<title>ReactDOM&#45;&gt;DOM</title>
<path fill="none" stroke="#000000" d="M433.8,-45C442.2327,-45 451.1381,-45 459.6034,-45"/>
<polygon fill="#000000" stroke="#000000" points="459.6496,-48.5001 469.6495,-45 459.6495,-41.5001 459.6496,-48.5001"/>
</g>
<!-- state -->
<g id="node3" class="node">
<title>state</title>
<ellipse fill="none" stroke="#000000" cx="29.7585" cy="-72" rx="27" ry="18"/>
<text text-anchor="middle" x="29.7585" y="-67.8" font-family="Times,serif" font-size="14.00" fill="#000000">state</text>
</g>
<!-- state&#45;&gt;component -->
<g id="edge1" class="edge">
<title>state&#45;&gt;component</title>
<path fill="none" stroke="#000000" d="M55.1427,-65.4641C64.2375,-63.1223 74.8276,-60.3955 85.2554,-57.7106"/>
<polygon fill="#000000" stroke="#000000" points="86.338,-61.0461 95.1494,-55.1631 84.5925,-54.2672 86.338,-61.0461"/>
</g>
<!-- props -->
<g id="node4" class="node">
<title>props</title>
<ellipse fill="none" stroke="#000000" cx="29.7585" cy="-18" rx="29.5189" ry="18"/>
<text text-anchor="middle" x="29.7585" y="-13.8" font-family="Times,serif" font-size="14.00" fill="#000000">props</text>
</g>
<!-- props&#45;&gt;component -->
<g id="edge2" class="edge">
<title>props&#45;&gt;component</title>
<path fill="none" stroke="#000000" d="M57.3097,-25.0939C65.9568,-27.3204 75.7792,-29.8495 85.4529,-32.3403"/>
<polygon fill="#000000" stroke="#000000" points="84.8677,-35.8037 95.4246,-34.9078 86.6132,-29.0248 84.8677,-35.8037"/>
</g>
<!-- virtualDOM&#45;&gt;ReactDOM -->
<g id="edge4" class="edge">
<title>virtualDOM&#45;&gt;ReactDOM</title>
<path fill="none" stroke="#000000" d="M317.594,-45C326.1308,-45 334.928,-45 343.3743,-45"/>
<polygon fill="#000000" stroke="#000000" points="343.4618,-48.5001 353.4618,-45 343.4618,-41.5001 343.4618,-48.5001"/>
</g>
</g>
</svg>
