<?xml version="1.0" encoding="UTF-8" standalone="no"?>
<!DOCTYPE svg PUBLIC "-//W3C//DTD SVG 1.1//EN"
 "http://www.w3.org/Graphics/SVG/1.1/DTD/svg11.dtd">
<!-- Generated by graphviz version 2.40.1 (20161225.0304)
 -->
<!-- Title: %3 Pages: 1 -->
<svg width="600pt" height="206pt"
 viewBox="0.00 0.00 600.48 206.00" xmlns="http://www.w3.org/2000/svg" xmlns:xlink="http://www.w3.org/1999/xlink">
<g id="graph0" class="graph" transform="scale(1 1) rotate(0) translate(4 202)">
<title>%3</title>
<!-- component -->
<g id="node1" class="node">
<title>component</title>
<polygon fill="none" stroke="#000000" points="173.8278,-117 95.4132,-117 95.4132,-81 173.8278,-81 173.8278,-117"/>
<text text-anchor="middle" x="134.6205" y="-94.8" font-family="Times,serif" font-size="14.00" fill="#000000">component</text>
</g>
<!-- virtualDOM -->
<g id="node8" class="node">
<title>virtualDOM</title>
<ellipse fill="none" stroke="#000000" cx="263.5516" cy="-99" rx="53.6557" ry="18"/>
<text text-anchor="middle" x="263.5516" y="-94.8" font-family="Times,serif" font-size="14.00" fill="#000000">virtualDOM</text>
</g>
<!-- component&#45;&gt;virtualDOM -->
<g id="edge3" class="edge">
<title>component&#45;&gt;virtualDOM</title>
<path fill="none" stroke="#000000" d="M174.0046,-99C182.0952,-99 190.8101,-99 199.5147,-99"/>
<polygon fill="#000000" stroke="#000000" points="199.6902,-102.5001 209.6902,-99 199.6902,-95.5001 199.6902,-102.5001"/>
</g>
<!-- ReactDOM -->
<g id="node2" class="node">
<title>ReactDOM</title>
<polygon fill="none" stroke="#000000" points="451.9566,-198 371.8778,-198 371.8778,-162 451.9566,-162 451.9566,-198"/>
<text text-anchor="middle" x="411.9172" y="-175.8" font-family="Times,serif" font-size="14.00" fill="#000000">ReactDOM</text>
</g>
<!-- DOM -->
<g id="node9" class="node">
<title>DOM</title>
<ellipse fill="none" stroke="#000000" cx="549.466" cy="-180" rx="30.988" ry="18"/>
<text text-anchor="middle" x="549.466" y="-175.8" font-family="Times,serif" font-size="14.00" fill="#000000">DOM</text>
</g>
<!-- ReactDOM&#45;&gt;DOM -->
<g id="edge5" class="edge">
<title>ReactDOM&#45;&gt;DOM</title>
<path fill="none" stroke="#000000" d="M452.0718,-180C469.8365,-180 490.702,-180 508.5535,-180"/>
<polygon fill="#000000" stroke="#000000" points="508.6697,-183.5001 518.6697,-180 508.6696,-176.5001 508.6697,-183.5001"/>
</g>
<!-- ReactDOMServer -->
<g id="node3" class="node">
<title>ReactDOMServer</title>
<polygon fill="none" stroke="#000000" points="470.4934,-144 353.341,-144 353.341,-108 470.4934,-108 470.4934,-144"/>
<text text-anchor="middle" x="411.9172" y="-121.8" font-family="Times,serif" font-size="14.00" fill="#000000">ReactDOMServer</text>
</g>
<!-- string -->
<g id="node10" class="node">
<title>string</title>
<ellipse fill="none" stroke="#000000" cx="549.466" cy="-126" rx="30.0035" ry="18"/>
<text text-anchor="middle" x="549.466" y="-121.8" font-family="Times,serif" font-size="14.00" fill="#000000">string</text>
</g>
<!-- ReactDOMServer&#45;&gt;string -->
<g id="edge7" class="edge">
<title>ReactDOMServer&#45;&gt;string</title>
<path fill="none" stroke="#000000" d="M470.6493,-126C483.5256,-126 496.8819,-126 508.86,-126"/>
<polygon fill="#000000" stroke="#000000" points="508.9849,-129.5001 518.9848,-126 508.9848,-122.5001 508.9849,-129.5001"/>
</g>
<!-- ReactSVG -->
<g id="node4" class="node">
<title>ReactSVG</title>
<polygon fill="none" stroke="#000000" points="449.7933,-90 374.0411,-90 374.0411,-54 449.7933,-54 449.7933,-90"/>
<text text-anchor="middle" x="411.9172" y="-67.8" font-family="Times,serif" font-size="14.00" fill="#000000">ReactSVG</text>
</g>
<!-- SVG -->
<g id="node11" class="node">
<title>SVG</title>
<ellipse fill="none" stroke="#000000" cx="549.466" cy="-72" rx="27.5976" ry="18"/>
<text text-anchor="middle" x="549.466" y="-67.8" font-family="Times,serif" font-size="14.00" fill="#000000">SVG</text>
</g>
<!-- ReactSVG&#45;&gt;SVG -->
<g id="edge9" class="edge">
<title>ReactSVG&#45;&gt;SVG</title>
<path fill="none" stroke="#000000" d="M449.8672,-72C468.9219,-72 491.9569,-72 511.0727,-72"/>
<polygon fill="#000000" stroke="#000000" points="511.2393,-75.5001 521.2393,-72 511.2393,-68.5001 511.2393,-75.5001"/>
</g>
<!-- ReactNative -->
<g id="node5" class="node">
<title>ReactNative</title>
<polygon fill="none" stroke="#000000" points="454.604,-36 369.2305,-36 369.2305,0 454.604,0 454.604,-36"/>
<text text-anchor="middle" x="411.9172" y="-13.8" font-family="Times,serif" font-size="14.00" fill="#000000">ReactNative</text>
</g>
<!-- NativeUI -->
<g id="node12" class="node">
<title>NativeUI</title>
<ellipse fill="none" stroke="#000000" cx="549.466" cy="-18" rx="43.0215" ry="18"/>
<text text-anchor="middle" x="549.466" y="-13.8" font-family="Times,serif" font-size="14.00" fill="#000000">NativeUI</text>
</g>
<!-- ReactNative&#45;&gt;NativeUI -->
<g id="edge11" class="edge">
<title>ReactNative&#45;&gt;NativeUI</title>
<path fill="none" stroke="#000000" d="M454.6845,-18C467.7561,-18 482.2975,-18 495.9873,-18"/>
<polygon fill="#000000" stroke="#000000" points="496.2515,-21.5001 506.2514,-18 496.2514,-14.5001 496.2515,-21.5001"/>
</g>
<!-- state -->
<g id="node6" class="node">
<title>state</title>
<ellipse fill="none" stroke="#000000" cx="29.7585" cy="-126" rx="27" ry="18"/>
<text text-anchor="middle" x="29.7585" y="-121.8" font-family="Times,serif" font-size="14.00" fill="#000000">state</text>
</g>
<!-- state&#45;&gt;component -->
<g id="edge1" class="edge">
<title>state&#45;&gt;component</title>
<path fill="none" stroke="#000000" d="M55.1427,-119.4641C64.2375,-117.1223 74.8276,-114.3955 85.2554,-111.7106"/>
<polygon fill="#000000" stroke="#000000" points="86.338,-115.0461 95.1494,-109.1631 84.5925,-108.2672 86.338,-115.0461"/>
</g>
<!-- props -->
<g id="node7" class="node">
<title>props</title>
<ellipse fill="none" stroke="#000000" cx="29.7585" cy="-72" rx="29.5189" ry="18"/>
<text text-anchor="middle" x="29.7585" y="-67.8" font-family="Times,serif" font-size="14.00" fill="#000000">props</text>
</g>
<!-- props&#45;&gt;component -->
<g id="edge2" class="edge">
<title>props&#45;&gt;component</title>
<path fill="none" stroke="#000000" d="M57.3097,-79.0939C65.9568,-81.3204 75.7792,-83.8495 85.4529,-86.3403"/>
<polygon fill="#000000" stroke="#000000" points="84.8677,-89.8037 95.4246,-88.9078 86.6132,-83.0248 84.8677,-89.8037"/>
</g>
<!-- virtualDOM&#45;&gt;ReactDOM -->
<g id="edge4" class="edge">
<title>virtualDOM&#45;&gt;ReactDOM</title>
<path fill="none" stroke="#000000" d="M288.6813,-115.1151C306.4624,-126.2667 331.0237,-141.1701 353.3791,-153 356.2973,-154.5442 359.3203,-156.0911 362.3851,-157.6195"/>
<polygon fill="#000000" stroke="#000000" points="361.1194,-160.896 371.6424,-162.1281 364.1845,-154.6027 361.1194,-160.896"/>
</g>
<!-- virtualDOM&#45;&gt;ReactDOMServer -->
<g id="edge6" class="edge">
<title>virtualDOM&#45;&gt;ReactDOMServer</title>
<path fill="none" stroke="#000000" d="M310.9033,-107.6172C321.227,-109.4959 332.352,-111.5205 343.3135,-113.5153"/>
<polygon fill="#000000" stroke="#000000" points="342.8416,-116.9868 353.3067,-115.3339 344.0949,-110.0999 342.8416,-116.9868"/>
</g>
<!-- virtualDOM&#45;&gt;ReactSVG -->
<g id="edge8" class="edge">
<title>virtualDOM&#45;&gt;ReactSVG</title>
<path fill="none" stroke="#000000" d="M310.9033,-90.3828C327.7583,-87.3155 346.7491,-83.8595 363.6777,-80.7788"/>
<polygon fill="#000000" stroke="#000000" points="364.7023,-84.1499 373.9141,-78.9159 363.449,-77.263 364.7023,-84.1499"/>
</g>
<!-- virtualDOM&#45;&gt;ReactNative -->
<g id="edge10" class="edge">
<title>virtualDOM&#45;&gt;ReactNative</title>
<path fill="none" stroke="#000000" d="M288.6813,-82.8849C306.4624,-71.7333 331.0237,-56.8299 353.3791,-45 356.2479,-43.4819 359.2178,-41.9613 362.2293,-40.4583"/>
<polygon fill="#000000" stroke="#000000" points="363.874,-43.5503 371.3285,-36.0216 360.8061,-37.2584 363.874,-43.5503"/>
</g>
</g>
</svg>
