<?xml version="1.0" encoding="UTF-8" standalone="no"?>
<!DOCTYPE svg PUBLIC "-//W3C//DTD SVG 1.1//EN"
 "http://www.w3.org/Graphics/SVG/1.1/DTD/svg11.dtd">
<!-- Generated by graphviz version 2.40.1 (20161225.0304)
 -->
<!-- Title: %3 Pages: 1 -->
<svg width="692pt" height="44pt"
 viewBox="0.00 0.00 691.89 44.00" xmlns="http://www.w3.org/2000/svg" xmlns:xlink="http://www.w3.org/1999/xlink">
<g id="graph0" class="graph" transform="scale(1 1) rotate(0) translate(4 40)">
<title>%3</title>
<!-- ReactFauxDOM -->
<g id="node1" class="node">
<title>ReactFauxDOM</title>
<polygon fill="none" stroke="#000000" points="108.3081,-36 .23,-36 .23,0 108.3081,0 108.3081,-36"/>
<text text-anchor="middle" x="54.269" y="-13.8" font-family="Times,serif" font-size="14.00" fill="#000000">ReactFauxDOM</text>
</g>
<!-- faux -->
<g id="node4" class="node">
<title>faux</title>
<ellipse fill="none" stroke="#000000" cx="171.5381" cy="-18" rx="27" ry="18"/>
<text text-anchor="middle" x="171.5381" y="-13.8" font-family="Times,serif" font-size="14.00" fill="#000000">faux</text>
</g>
<!-- ReactFauxDOM&#45;&gt;faux -->
<g id="edge1" class="edge">
<title>ReactFauxDOM&#45;&gt;faux</title>
<path fill="none" stroke="#000000" d="M108.4411,-18C117.218,-18 126.129,-18 134.3814,-18"/>
<polygon fill="#000000" stroke="#000000" points="134.4225,-21.5001 144.4225,-18 134.4224,-14.5001 134.4225,-21.5001"/>
</g>
<!-- DOMlib -->
<g id="node2" class="node">
<title>DOMlib</title>
<polygon fill="none" stroke="#000000" points="298.212,-36 234.3124,-36 234.3124,0 298.212,0 298.212,-36"/>
<text text-anchor="middle" x="266.2622" y="-13.8" font-family="Times,serif" font-size="14.00" fill="#000000">DOMlib</text>
</g>
<!-- mutatedfaux -->
<g id="node5" class="node">
<title>mutatedfaux</title>
<ellipse fill="none" stroke="#000000" cx="388.2932" cy="-18" rx="54.1144" ry="18"/>
<text text-anchor="middle" x="388.2932" y="-13.8" font-family="Times,serif" font-size="14.00" fill="#000000">mutatedfaux</text>
</g>
<!-- DOMlib&#45;&gt;mutatedfaux -->
<g id="edge3" class="edge">
<title>DOMlib&#45;&gt;mutatedfaux</title>
<path fill="none" stroke="#000000" d="M298.0059,-18C305.9075,-18 314.6675,-18 323.5334,-18"/>
<polygon fill="#000000" stroke="#000000" points="323.5481,-21.5001 333.5481,-18 323.548,-14.5001 323.5481,-21.5001"/>
</g>
<!-- toReact -->
<g id="node3" class="node">
<title>toReact</title>
<polygon fill="none" stroke="#000000" points="537.2388,-36 478.7202,-36 478.7202,0 537.2388,0 537.2388,-36"/>
<text text-anchor="middle" x="507.9795" y="-13.8" font-family="Times,serif" font-size="14.00" fill="#000000">toReact</text>
</g>
<!-- VirtualDOM -->
<g id="node6" class="node">
<title>VirtualDOM</title>
<ellipse fill="none" stroke="#000000" cx="628.6244" cy="-18" rx="55.032" ry="18"/>
<text text-anchor="middle" x="628.6244" y="-13.8" font-family="Times,serif" font-size="14.00" fill="#000000">VirtualDOM</text>
</g>
<!-- toReact&#45;&gt;VirtualDOM -->
<g id="edge5" class="edge">
<title>toReact&#45;&gt;VirtualDOM</title>
<path fill="none" stroke="#000000" d="M537.4925,-18C545.2979,-18 554.0441,-18 562.9471,-18"/>
<polygon fill="#000000" stroke="#000000" points="563.0237,-21.5001 573.0237,-18 563.0236,-14.5001 563.0237,-21.5001"/>
</g>
<!-- faux&#45;&gt;DOMlib -->
<g id="edge2" class="edge">
<title>faux&#45;&gt;DOMlib</title>
<path fill="none" stroke="#000000" d="M198.6822,-18C206.6981,-18 215.6653,-18 224.3814,-18"/>
<polygon fill="#000000" stroke="#000000" points="224.4261,-21.5001 234.426,-18 224.426,-14.5001 224.4261,-21.5001"/>
</g>
<!-- mutatedfaux&#45;&gt;toReact -->
<g id="edge4" class="edge">
<title>mutatedfaux&#45;&gt;toReact</title>
<path fill="none" stroke="#000000" d="M442.8827,-18C451.5526,-18 460.3707,-18 468.6015,-18"/>
<polygon fill="#000000" stroke="#000000" points="468.6579,-21.5001 478.6578,-18 468.6578,-14.5001 468.6579,-21.5001"/>
</g>
</g>
</svg>
