<?xml version="1.0" encoding="UTF-8" standalone="no"?>
<!DOCTYPE svg PUBLIC "-//W3C//DTD SVG 1.1//EN"
 "http://www.w3.org/Graphics/SVG/1.1/DTD/svg11.dtd">
<!-- Generated by graphviz version 2.40.1 (20161225.0304)
 -->
<!-- Title: %3 Pages: 1 -->
<svg width="273pt" height="44pt"
 viewBox="0.00 0.00 272.55 44.00" xmlns="http://www.w3.org/2000/svg" xmlns:xlink="http://www.w3.org/1999/xlink">
<g id="graph0" class="graph" transform="scale(1 1) rotate(0) translate(4 40)">
<title>%3</title>
<!-- Factory -->
<g id="node1" class="node">
<title>Factory</title>
<polygon fill="none" stroke="#000000" points="166.9474,-36 108.4153,-36 108.4153,0 166.9474,0 166.9474,-36"/>
<text text-anchor="middle" x="137.6814" y="-13.8" font-family="Times,serif" font-size="14.00" fill="#000000">Factory</text>
</g>
<!-- mixin -->
<g id="node3" class="node">
<title>mixin</title>
<ellipse fill="none" stroke="#000000" cx="233.8072" cy="-18" rx="30.988" ry="18"/>
<text text-anchor="middle" x="233.8072" y="-13.8" font-family="Times,serif" font-size="14.00" fill="#000000">mixin</text>
</g>
<!-- Factory&#45;&gt;mixin -->
<g id="edge2" class="edge">
<title>Factory&#45;&gt;mixin</title>
<path fill="none" stroke="#000000" d="M167.0446,-18C175.2195,-18 184.2495,-18 192.9564,-18"/>
<polygon fill="#000000" stroke="#000000" points="192.9585,-21.5001 202.9585,-18 192.9584,-14.5001 192.9585,-21.5001"/>
</g>
<!-- options -->
<g id="node2" class="node">
<title>options</title>
<ellipse fill="none" stroke="#000000" cx="36.1493" cy="-18" rx="36.2992" ry="18"/>
<text text-anchor="middle" x="36.1493" y="-13.8" font-family="Times,serif" font-size="14.00" fill="#000000">options</text>
</g>
<!-- options&#45;&gt;Factory -->
<g id="edge1" class="edge">
<title>options&#45;&gt;Factory</title>
<path fill="none" stroke="#000000" d="M72.5179,-18C80.8513,-18 89.749,-18 98.2062,-18"/>
<polygon fill="#000000" stroke="#000000" points="98.2363,-21.5001 108.2363,-18 98.2363,-14.5001 98.2363,-21.5001"/>
</g>
</g>
</svg>
