<?xml version="1.0" encoding="UTF-8" standalone="no"?>
<!DOCTYPE svg PUBLIC "-//W3C//DTD SVG 1.1//EN"
 "http://www.w3.org/Graphics/SVG/1.1/DTD/svg11.dtd">
<!-- Generated by graphviz version 2.40.1 (20161225.0304)
 -->
<!-- Title: %3 Pages: 1 -->
<svg width="261pt" height="44pt"
 viewBox="0.00 0.00 261.05 44.00" xmlns="http://www.w3.org/2000/svg" xmlns:xlink="http://www.w3.org/1999/xlink">
<g id="graph0" class="graph" transform="scale(1 1) rotate(0) translate(4 40)">
<title>%3</title>
<!-- Transpiler -->
<g id="node1" class="node">
<title>Transpiler</title>
<polygon fill="none" stroke="#000000" points="163.0689,-36 89.977,-36 89.977,0 163.0689,0 163.0689,-36"/>
<text text-anchor="middle" x="126.5229" y="-13.8" font-family="Times,serif" font-size="14.00" fill="#000000">Transpiler</text>
</g>
<!-- JS -->
<g id="node3" class="node">
<title>JS</title>
<ellipse fill="none" stroke="#000000" cx="226.0459" cy="-18" rx="27" ry="18"/>
<text text-anchor="middle" x="226.0459" y="-13.8" font-family="Times,serif" font-size="14.00" fill="#000000">JS</text>
</g>
<!-- Transpiler&#45;&gt;JS -->
<g id="edge2" class="edge">
<title>Transpiler&#45;&gt;JS</title>
<path fill="none" stroke="#000000" d="M163.2989,-18C171.5527,-18 180.3191,-18 188.5999,-18"/>
<polygon fill="#000000" stroke="#000000" points="188.7542,-21.5001 198.7542,-18 188.7541,-14.5001 188.7542,-21.5001"/>
</g>
<!-- JSX -->
<g id="node2" class="node">
<title>JSX</title>
<ellipse fill="none" stroke="#000000" cx="27" cy="-18" rx="27" ry="18"/>
<text text-anchor="middle" x="27" y="-13.8" font-family="Times,serif" font-size="14.00" fill="#000000">JSX</text>
</g>
<!-- JSX&#45;&gt;Transpiler -->
<g id="edge1" class="edge">
<title>JSX&#45;&gt;Transpiler</title>
<path fill="none" stroke="#000000" d="M54.1951,-18C62.0546,-18 70.867,-18 79.5648,-18"/>
<polygon fill="#000000" stroke="#000000" points="79.6588,-21.5001 89.6587,-18 79.6587,-14.5001 79.6588,-21.5001"/>
</g>
</g>
</svg>
