<?xml version="1.0" encoding="UTF-8" standalone="no"?>
<!DOCTYPE svg PUBLIC "-//W3C//DTD SVG 1.1//EN"
 "http://www.w3.org/Graphics/SVG/1.1/DTD/svg11.dtd">
<!-- Generated by graphviz version 2.40.1 (20161225.0304)
 -->
<!-- Title: %3 Pages: 1 -->
<svg width="596pt" height="112pt"
 viewBox="0.00 0.00 595.74 112.46" xmlns="http://www.w3.org/2000/svg" xmlns:xlink="http://www.w3.org/1999/xlink">
<g id="graph0" class="graph" transform="scale(1 1) rotate(0) translate(4 108.4558)">
<title>%3</title>
<!-- component -->
<g id="node1" class="node">
<title>component</title>
<polygon fill="none" stroke="#000000" points="173.8278,-36 95.4132,-36 95.4132,0 173.8278,0 173.8278,-36"/>
<text text-anchor="middle" x="134.6205" y="-13.8" font-family="Times,serif" font-size="14.00" fill="#000000">component</text>
</g>
<!-- DOM -->
<g id="node4" class="node">
<title>DOM</title>
<ellipse fill="none" stroke="#000000" cx="272.4542" cy="-18" rx="56.0769" ry="18"/>
<text text-anchor="middle" x="272.4542" y="-13.8" font-family="Times,serif" font-size="14.00" fill="#000000">virtual DOM</text>
</g>
<!-- component&#45;&gt;DOM -->
<g id="edge2" class="edge">
<title>component&#45;&gt;DOM</title>
<path fill="none" stroke="#000000" d="M173.7494,-18C183.8647,-18 195.0402,-18 206.1262,-18"/>
<polygon fill="#000000" stroke="#000000" points="206.2491,-21.5001 216.2491,-18 206.249,-14.5001 206.2491,-21.5001"/>
</g>
<!-- React -->
<g id="node2" class="node">
<title>React</title>
<polygon fill="none" stroke="#000000" points="425.1844,-73 371.1844,-73 371.1844,-23 425.1844,-23 425.1844,-73"/>
<text text-anchor="middle" x="398.1844" y="-57.8" font-family="Times,serif" font-size="14.00" fill="#000000">React</text>
<text text-anchor="middle" x="398.1844" y="-43.8" font-family="Times,serif" font-size="14.00" fill="#000000">diffing</text>
<text text-anchor="middle" x="398.1844" y="-29.8" font-family="Times,serif" font-size="14.00" fill="#000000">engine</text>
</g>
<!-- changes -->
<g id="node5" class="node">
<title>changes</title>
<ellipse fill="none" stroke="#000000" cx="524.4607" cy="-48" rx="63.0536" ry="35.2113"/>
<text text-anchor="middle" x="524.4607" y="-57.8" font-family="Times,serif" font-size="14.00" fill="#000000">set of</text>
<text text-anchor="middle" x="524.4607" y="-43.8" font-family="Times,serif" font-size="14.00" fill="#000000">DOM update</text>
<text text-anchor="middle" x="524.4607" y="-29.8" font-family="Times,serif" font-size="14.00" fill="#000000">instructions</text>
</g>
<!-- React&#45;&gt;changes -->
<g id="edge5" class="edge">
<title>React&#45;&gt;changes</title>
<path fill="none" stroke="#000000" d="M425.2738,-48C433.0439,-48 441.9093,-48 451.0706,-48"/>
<polygon fill="#000000" stroke="#000000" points="451.0899,-51.5001 461.0899,-48 451.0899,-44.5001 451.0899,-51.5001"/>
</g>
<!-- previousDOM -->
<g id="node3" class="node">
<title>previousDOM</title>
<ellipse fill="none" stroke="#000000" cx="272.4542" cy="-79" rx="62.9612" ry="25.4118"/>
<text text-anchor="middle" x="272.4542" y="-81.8" font-family="Times,serif" font-size="14.00" fill="#000000">previous</text>
<text text-anchor="middle" x="272.4542" y="-67.8" font-family="Times,serif" font-size="14.00" fill="#000000">virtual DOM</text>
</g>
<!-- previousDOM&#45;&gt;React -->
<g id="edge3" class="edge">
<title>previousDOM&#45;&gt;React</title>
<path fill="none" stroke="#000000" d="M326.1398,-65.7633C337.8743,-62.87 350.0448,-59.8693 360.9684,-57.176"/>
<polygon fill="#000000" stroke="#000000" points="362.1331,-60.4937 371.0044,-54.7015 360.4573,-53.6972 362.1331,-60.4937"/>
</g>
<!-- DOM&#45;&gt;React -->
<g id="edge4" class="edge">
<title>DOM&#45;&gt;React</title>
<path fill="none" stroke="#000000" d="M317.4905,-28.746C331.7526,-32.149 347.3494,-35.8705 360.9966,-39.1268"/>
<polygon fill="#000000" stroke="#000000" points="360.4591,-42.5967 370.9984,-41.5133 362.0838,-35.7878 360.4591,-42.5967"/>
</g>
<!-- props -->
<g id="node6" class="node">
<title>props</title>
<ellipse fill="none" stroke="#000000" cx="29.7585" cy="-18" rx="29.5189" ry="18"/>
<text text-anchor="middle" x="29.7585" y="-13.8" font-family="Times,serif" font-size="14.00" fill="#000000">props</text>
</g>
<!-- props&#45;&gt;component -->
<g id="edge1" class="edge">
<title>props&#45;&gt;component</title>
<path fill="none" stroke="#000000" d="M59.5272,-18C67.535,-18 76.4161,-18 85.1852,-18"/>
<polygon fill="#000000" stroke="#000000" points="85.3687,-21.5001 95.3687,-18 85.3686,-14.5001 85.3687,-21.5001"/>
</g>
</g>
</svg>
