<?xml version="1.0" encoding="UTF-8" standalone="no"?>
<!DOCTYPE svg PUBLIC "-//W3C//DTD SVG 1.1//EN"
 "http://www.w3.org/Graphics/SVG/1.1/DTD/svg11.dtd">
<!-- Generated by graphviz version 2.40.1 (20161225.0304)
 -->
<!-- Title: %3 Pages: 1 -->
<svg width="279pt" height="44pt"
 viewBox="0.00 0.00 279.21 44.00" xmlns="http://www.w3.org/2000/svg" xmlns:xlink="http://www.w3.org/1999/xlink">
<g id="graph0" class="graph" transform="scale(1 1) rotate(0) translate(4 40)">
<title>%3</title>
<!-- component -->
<g id="node1" class="node">
<title>component</title>
<polygon fill="none" stroke="#000000" points="173.8278,-36 95.4132,-36 95.4132,0 173.8278,0 173.8278,-36"/>
<text text-anchor="middle" x="134.6205" y="-13.8" font-family="Times,serif" font-size="14.00" fill="#000000">component</text>
</g>
<!-- DOM -->
<g id="node3" class="node">
<title>DOM</title>
<ellipse fill="none" stroke="#000000" cx="240.467" cy="-18" rx="30.988" ry="18"/>
<text text-anchor="middle" x="240.467" y="-13.8" font-family="Times,serif" font-size="14.00" fill="#000000">DOM</text>
</g>
<!-- component&#45;&gt;DOM -->
<g id="edge2" class="edge">
<title>component&#45;&gt;DOM</title>
<path fill="none" stroke="#000000" d="M173.7331,-18C182.1065,-18 190.9759,-18 199.42,-18"/>
<polygon fill="#000000" stroke="#000000" points="199.4471,-21.5001 209.447,-18 199.447,-14.5001 199.4471,-21.5001"/>
</g>
<!-- props -->
<g id="node2" class="node">
<title>props</title>
<ellipse fill="none" stroke="#000000" cx="29.7585" cy="-18" rx="29.5189" ry="18"/>
<text text-anchor="middle" x="29.7585" y="-13.8" font-family="Times,serif" font-size="14.00" fill="#000000">props</text>
</g>
<!-- props&#45;&gt;component -->
<g id="edge1" class="edge">
<title>props&#45;&gt;component</title>
<path fill="none" stroke="#000000" d="M59.5272,-18C67.535,-18 76.4161,-18 85.1852,-18"/>
<polygon fill="#000000" stroke="#000000" points="85.3687,-21.5001 95.3687,-18 85.3686,-14.5001 85.3687,-21.5001"/>
</g>
</g>
</svg>
