<?xml version="1.0" encoding="UTF-8" standalone="no"?>
<!DOCTYPE svg PUBLIC "-//W3C//DTD SVG 1.1//EN"
 "http://www.w3.org/Graphics/SVG/1.1/DTD/svg11.dtd">
<!-- Generated by graphviz version 2.40.1 (20161225.0304)
 -->
<!-- Title: %3 Pages: 1 -->
<svg width="535pt" height="260pt"
 viewBox="0.00 0.00 535.00 260.00" xmlns="http://www.w3.org/2000/svg" xmlns:xlink="http://www.w3.org/1999/xlink">
<g id="graph0" class="graph" transform="scale(1 1) rotate(0) translate(4 256)">
<title>%3</title>
<!-- Site -->
<g id="node1" class="node">
<title>Site</title>
<ellipse fill="none" stroke="#000000" cx="259" cy="-234" rx="27" ry="18"/>
<text text-anchor="middle" x="259" y="-229.8" font-family="Times,serif" font-size="14.00" fill="#000000">Site</text>
</g>
<!-- TopBar -->
<g id="node2" class="node">
<title>TopBar</title>
<ellipse fill="none" stroke="#000000" cx="102" cy="-162" rx="36.5067" ry="18"/>
<text text-anchor="middle" x="102" y="-157.8" font-family="Times,serif" font-size="14.00" fill="#000000">TopBar</text>
</g>
<!-- Site&#45;&gt;TopBar -->
<g id="edge1" class="edge">
<title>Site&#45;&gt;TopBar</title>
<path fill="none" stroke="#000000" d="M236.5057,-223.6842C210.8753,-211.9301 168.6243,-192.5538 138.3123,-178.6528"/>
<polygon fill="#000000" stroke="#000000" points="139.4753,-175.3356 128.9265,-174.3485 136.5572,-181.6985 139.4753,-175.3356"/>
</g>
<!-- Main -->
<g id="node3" class="node">
<title>Main</title>
<ellipse fill="none" stroke="#000000" cx="259" cy="-162" rx="28.5497" ry="18"/>
<text text-anchor="middle" x="259" y="-157.8" font-family="Times,serif" font-size="14.00" fill="#000000">Main</text>
</g>
<!-- Site&#45;&gt;Main -->
<g id="edge2" class="edge">
<title>Site&#45;&gt;Main</title>
<path fill="none" stroke="#000000" d="M259,-215.8314C259,-208.131 259,-198.9743 259,-190.4166"/>
<polygon fill="#000000" stroke="#000000" points="262.5001,-190.4132 259,-180.4133 255.5001,-190.4133 262.5001,-190.4132"/>
</g>
<!-- Footer -->
<g id="node4" class="node">
<title>Footer</title>
<ellipse fill="none" stroke="#000000" cx="419" cy="-162" rx="33.3925" ry="18"/>
<text text-anchor="middle" x="419" y="-157.8" font-family="Times,serif" font-size="14.00" fill="#000000">Footer</text>
</g>
<!-- Site&#45;&gt;Footer -->
<g id="edge3" class="edge">
<title>Site&#45;&gt;Footer</title>
<path fill="none" stroke="#000000" d="M281.5847,-223.8369C308.283,-211.8226 353.0129,-191.6942 384.1603,-177.6779"/>
<polygon fill="#000000" stroke="#000000" points="385.6727,-180.8354 393.3556,-173.54 382.8001,-174.4519 385.6727,-180.8354"/>
</g>
<!-- h2 -->
<g id="node5" class="node">
<title>h2</title>
<polygon fill="none" stroke="#000000" points="54,-108 0,-108 0,-72 54,-72 54,-108"/>
<text text-anchor="middle" x="27" y="-85.8" font-family="Times,serif" font-size="14.00" fill="#000000">h2</text>
</g>
<!-- TopBar&#45;&gt;h2 -->
<g id="edge4" class="edge">
<title>TopBar&#45;&gt;h2</title>
<path fill="none" stroke="#000000" d="M84.9813,-145.6621C75.5913,-136.6477 63.7298,-125.2607 53.1853,-115.1379"/>
<polygon fill="#000000" stroke="#000000" points="55.4319,-112.4428 45.7941,-108.0423 50.5841,-117.4926 55.4319,-112.4428"/>
</g>
<!-- LeftColumn -->
<g id="node7" class="node">
<title>LeftColumn</title>
<ellipse fill="none" stroke="#000000" cx="125" cy="-90" rx="53.1711" ry="18"/>
<text text-anchor="middle" x="125" y="-85.8" font-family="Times,serif" font-size="14.00" fill="#000000">LeftColumn</text>
</g>
<!-- Main&#45;&gt;LeftColumn -->
<g id="edge5" class="edge">
<title>Main&#45;&gt;LeftColumn</title>
<path fill="none" stroke="#000000" d="M237.1724,-150.2717C217.0498,-139.4596 186.7516,-123.18 162.7145,-110.2645"/>
<polygon fill="#000000" stroke="#000000" points="164.3084,-107.1477 153.8428,-105.4976 160.9951,-113.314 164.3084,-107.1477"/>
</g>
<!-- CenterColumn -->
<g id="node8" class="node">
<title>CenterColumn</title>
<ellipse fill="none" stroke="#000000" cx="259" cy="-90" rx="62.3581" ry="18"/>
<text text-anchor="middle" x="259" y="-85.8" font-family="Times,serif" font-size="14.00" fill="#000000">CenterColumn</text>
</g>
<!-- Main&#45;&gt;CenterColumn -->
<g id="edge6" class="edge">
<title>Main&#45;&gt;CenterColumn</title>
<path fill="none" stroke="#000000" d="M259,-143.8314C259,-136.131 259,-126.9743 259,-118.4166"/>
<polygon fill="#000000" stroke="#000000" points="262.5001,-118.4132 259,-108.4133 255.5001,-118.4133 262.5001,-118.4132"/>
</g>
<!-- RightColumn -->
<g id="node9" class="node">
<title>RightColumn</title>
<ellipse fill="none" stroke="#000000" cx="397" cy="-90" rx="58.0255" ry="18"/>
<text text-anchor="middle" x="397" y="-85.8" font-family="Times,serif" font-size="14.00" fill="#000000">RightColumn</text>
</g>
<!-- Main&#45;&gt;RightColumn -->
<g id="edge7" class="edge">
<title>Main&#45;&gt;RightColumn</title>
<path fill="none" stroke="#000000" d="M281.1721,-150.432C301.8452,-139.646 333.1371,-123.3198 357.9867,-110.3547"/>
<polygon fill="#000000" stroke="#000000" points="359.9128,-113.2977 367.1596,-105.5689 356.6748,-107.0916 359.9128,-113.2977"/>
</g>
<!-- div -->
<g id="node6" class="node">
<title>div</title>
<polygon fill="none" stroke="#000000" points="527,-108 473,-108 473,-72 527,-72 527,-108"/>
<text text-anchor="middle" x="500" y="-85.8" font-family="Times,serif" font-size="14.00" fill="#000000">div</text>
</g>
<!-- Footer&#45;&gt;div -->
<g id="edge8" class="edge">
<title>Footer&#45;&gt;div</title>
<path fill="none" stroke="#000000" d="M436.5758,-146.3771C446.8587,-137.2367 460.0813,-125.4833 471.7901,-115.0755"/>
<polygon fill="#000000" stroke="#000000" points="474.4507,-117.3934 479.5995,-108.1338 469.8001,-112.1615 474.4507,-117.3934"/>
</g>
<!-- 1 -->
<g id="node10" class="node">
<title>1</title>
<ellipse fill="none" stroke="#000000" cx="125" cy="-18" rx="27" ry="18"/>
<text text-anchor="middle" x="125" y="-13.8" font-family="Times,serif" font-size="14.00" fill="#000000">...</text>
</g>
<!-- LeftColumn&#45;&gt;1 -->
<g id="edge9" class="edge">
<title>LeftColumn&#45;&gt;1</title>
<path fill="none" stroke="#000000" d="M125,-71.8314C125,-64.131 125,-54.9743 125,-46.4166"/>
<polygon fill="#000000" stroke="#000000" points="128.5001,-46.4132 125,-36.4133 121.5001,-46.4133 128.5001,-46.4132"/>
</g>
<!-- 2 -->
<g id="node11" class="node">
<title>2</title>
<ellipse fill="none" stroke="#000000" cx="259" cy="-18" rx="27" ry="18"/>
<text text-anchor="middle" x="259" y="-13.8" font-family="Times,serif" font-size="14.00" fill="#000000">...</text>
</g>
<!-- CenterColumn&#45;&gt;2 -->
<g id="edge10" class="edge">
<title>CenterColumn&#45;&gt;2</title>
<path fill="none" stroke="#000000" d="M259,-71.8314C259,-64.131 259,-54.9743 259,-46.4166"/>
<polygon fill="#000000" stroke="#000000" points="262.5001,-46.4132 259,-36.4133 255.5001,-46.4133 262.5001,-46.4132"/>
</g>
<!-- 3 -->
<g id="node12" class="node">
<title>3</title>
<ellipse fill="none" stroke="#000000" cx="397" cy="-18" rx="27" ry="18"/>
<text text-anchor="middle" x="397" y="-13.8" font-family="Times,serif" font-size="14.00" fill="#000000">...</text>
</g>
<!-- RightColumn&#45;&gt;3 -->
<g id="edge11" class="edge">
<title>RightColumn&#45;&gt;3</title>
<path fill="none" stroke="#000000" d="M397,-71.8314C397,-64.131 397,-54.9743 397,-46.4166"/>
<polygon fill="#000000" stroke="#000000" points="400.5001,-46.4132 397,-36.4133 393.5001,-46.4133 400.5001,-46.4132"/>
</g>
</g>
</svg>
