<?xml version="1.0" encoding="UTF-8" standalone="no"?>
<!DOCTYPE svg PUBLIC "-//W3C//DTD SVG 1.1//EN"
 "http://www.w3.org/Graphics/SVG/1.1/DTD/svg11.dtd">
<!-- Generated by graphviz version 2.40.1 (20161225.0304)
 -->
<!-- Title: %3 Pages: 1 -->
<svg width="286pt" height="54pt"
 viewBox="0.00 0.00 285.50 54.32" xmlns="http://www.w3.org/2000/svg" xmlns:xlink="http://www.w3.org/1999/xlink">
<g id="graph0" class="graph" transform="scale(1 1) rotate(0) translate(4 50.3187)">
<title>%3</title>
<!-- JS -->
<g id="node1" class="node">
<title>JS</title>
<ellipse fill="none" stroke="#000000" cx="27" cy="-20.3187" rx="27" ry="18"/>
<text text-anchor="middle" x="27" y="-16.1187" font-family="Times,serif" font-size="14.00" fill="#000000">JS</text>
</g>
<!-- JSX -->
<g id="node2" class="node">
<title>JSX</title>
<ellipse fill="none" stroke="#000000" cx="153.7842" cy="-20.3187" rx="27" ry="18"/>
<text text-anchor="middle" x="153.7842" y="-16.1187" font-family="Times,serif" font-size="14.00" fill="#000000">JSX</text>
</g>
<!-- JS&#45;&gt;JSX -->
<g id="edge1" class="edge">
<title>JS&#45;&gt;JSX</title>
<path fill="none" stroke="#000000" d="M52.0323,-27.5629C58.4824,-29.1181 65.4525,-30.5301 72,-31.3187 88.2312,-33.2738 92.553,-33.2738 108.7842,-31.3187 112.058,-30.9244 115.4373,-30.3742 118.8046,-29.7283"/>
<polygon fill="#000000" stroke="#000000" points="119.7251,-33.1099 128.7518,-27.5629 118.2362,-26.2701 119.7251,-33.1099"/>
<text text-anchor="middle" x="90.3921" y="-35.1187" font-family="Times,serif" font-size="14.00" fill="#000000">&lt;tag&gt;</text>
</g>
<!-- JS&#45;&gt;JSX -->
<g id="edge2" class="edge">
<title>JS&#45;&gt;JSX</title>
<path fill="none" stroke="transparent" d="M54.1984,-20.3187C72.4147,-20.3187 96.6274,-20.3187 116.6168,-20.3187"/>
<polygon fill="transparent" stroke="transparent" points="116.6308,-23.8188 126.6308,-20.3187 116.6307,-16.8188 116.6308,-23.8188"/>
</g>
<!-- JSX&#45;&gt;JS -->
<g id="edge3" class="edge">
<title>JSX&#45;&gt;JS</title>
<path fill="none" stroke="#000000" d="M131.8608,-9.614C124.6812,-6.6386 116.5509,-3.8145 108.7842,-2.3187 92.7306,.7729 88.0535,.7729 72,-2.3187 67.5099,-3.1834 62.8982,-4.4922 58.419,-6.0174"/>
<polygon fill="#000000" stroke="#000000" points="57.0353,-2.7988 48.9234,-9.614 59.5148,-9.345 57.0353,-2.7988"/>
<text text-anchor="middle" x="90.3921" y="-5.1187" font-family="Times,serif" font-size="14.00" fill="#000000">&lt;/tag&gt;</text>
</g>
<!-- third -->
<g id="node3" class="node">
<title>third</title>
<ellipse fill="none" stroke="#000000" cx="250.5039" cy="-20.3187" rx="27" ry="18"/>
<text text-anchor="middle" x="250.5039" y="-16.1187" font-family="Times,serif" font-size="14.00" fill="#000000">JS</text>
</g>
<!-- JSX&#45;&gt;third -->
<g id="edge4" class="edge">
<title>JSX&#45;&gt;third</title>
<path fill="none" stroke="#000000" d="M178.8165,-27.5629C185.2666,-29.1181 192.2366,-30.5301 198.7842,-31.3187 204.4805,-32.0048 210.4781,-31.7003 216.2904,-30.8479"/>
<polygon fill="#000000" stroke="#000000" points="217.3274,-34.2099 226.4473,-28.8176 215.9552,-27.3457 217.3274,-34.2099"/>
<text text-anchor="middle" x="202.144" y="-34.1187" font-family="Times,serif" font-size="14.00" fill="#000000">{</text>
</g>
<!-- JSX&#45;&gt;third -->
<g id="edge5" class="edge">
<title>JSX&#45;&gt;third</title>
<path fill="none" stroke="transparent" d="M180.9834,-20.3187C190.873,-20.3187 202.2334,-20.3187 212.8656,-20.3187"/>
<polygon fill="transparent" stroke="transparent" points="213.1738,-23.8188 223.1737,-20.3187 213.1737,-16.8188 213.1738,-23.8188"/>
</g>
<!-- third&#45;&gt;JSX -->
<g id="edge6" class="edge">
<title>third&#45;&gt;JSX</title>
<path fill="none" stroke="#000000" d="M228.5805,-9.614C221.4009,-6.6386 213.2707,-3.8145 205.5039,-2.3187 198.187,-.9096 190.5025,-2.0504 183.3615,-4.3119"/>
<polygon fill="#000000" stroke="#000000" points="182.0837,-1.0535 174.046,-7.9562 184.6339,-7.5724 182.0837,-1.0535"/>
<text text-anchor="middle" x="202.144" y="-5.1187" font-family="Times,serif" font-size="14.00" fill="#000000">}</text>
</g>
</g>
</svg>
