<?xml version="1.0" encoding="UTF-8" standalone="no"?>
<!DOCTYPE svg PUBLIC "-//W3C//DTD SVG 1.1//EN"
 "http://www.w3.org/Graphics/SVG/1.1/DTD/svg11.dtd">
<!-- Generated by graphviz version 2.40.1 (20161225.0304)
 -->
<!-- Title: %3 Pages: 1 -->
<svg width="330pt" height="98pt"
 viewBox="0.00 0.00 329.80 98.00" xmlns="http://www.w3.org/2000/svg" xmlns:xlink="http://www.w3.org/1999/xlink">
<g id="graph0" class="graph" transform="scale(1 1) rotate(0) translate(4 94)">
<title>%3</title>
<!-- virtual -->
<g id="node1" class="node">
<title>virtual</title>
<ellipse fill="none" stroke="#000000" cx="265.7624" cy="-45" rx="56.0769" ry="18"/>
<text text-anchor="middle" x="265.7624" y="-40.8" font-family="Times,serif" font-size="14.00" fill="#000000">virtual DOM</text>
</g>
<!-- component -->
<g id="node2" class="node">
<title>component</title>
<polygon fill="none" stroke="#000000" points="173.8278,-63 95.4132,-63 95.4132,-27 173.8278,-27 173.8278,-63"/>
<text text-anchor="middle" x="134.6205" y="-40.8" font-family="Times,serif" font-size="14.00" fill="#000000">component</text>
</g>
<!-- component&#45;&gt;virtual -->
<g id="edge3" class="edge">
<title>component&#45;&gt;virtual</title>
<path fill="none" stroke="#000000" d="M173.9674,-45C181.993,-45 190.6462,-45 199.3197,-45"/>
<polygon fill="#000000" stroke="#000000" points="199.4747,-48.5001 209.4746,-45 199.4746,-41.5001 199.4747,-48.5001"/>
</g>
<!-- props -->
<g id="node3" class="node">
<title>props</title>
<ellipse fill="none" stroke="#000000" cx="29.7585" cy="-72" rx="29.5189" ry="18"/>
<text text-anchor="middle" x="29.7585" y="-67.8" font-family="Times,serif" font-size="14.00" fill="#000000">props</text>
</g>
<!-- props&#45;&gt;component -->
<g id="edge1" class="edge">
<title>props&#45;&gt;component</title>
<path fill="none" stroke="#000000" d="M57.3097,-64.9061C65.9568,-62.6796 75.7792,-60.1505 85.4529,-57.6597"/>
<polygon fill="#000000" stroke="#000000" points="86.6132,-60.9752 95.4246,-55.0922 84.8677,-54.1963 86.6132,-60.9752"/>
</g>
<!-- state -->
<g id="node4" class="node">
<title>state</title>
<ellipse fill="none" stroke="#000000" cx="29.7585" cy="-18" rx="27" ry="18"/>
<text text-anchor="middle" x="29.7585" y="-13.8" font-family="Times,serif" font-size="14.00" fill="#000000">state</text>
</g>
<!-- state&#45;&gt;component -->
<g id="edge2" class="edge">
<title>state&#45;&gt;component</title>
<path fill="none" stroke="#000000" d="M55.1427,-24.5359C64.2375,-26.8777 74.8276,-29.6045 85.2554,-32.2894"/>
<polygon fill="#000000" stroke="#000000" points="84.5925,-35.7328 95.1494,-34.8369 86.338,-28.9539 84.5925,-35.7328"/>
</g>
</g>
</svg>
