<?xml version="1.0" encoding="UTF-8" standalone="no"?>
<!DOCTYPE svg PUBLIC "-//W3C//DTD SVG 1.1//EN"
 "http://www.w3.org/Graphics/SVG/1.1/DTD/svg11.dtd">
<!-- Generated by graphviz version 2.40.1 (20161225.0304)
 -->
<!-- Title: %3 Pages: 1 -->
<svg width="702pt" height="116pt"
 viewBox="0.00 0.00 701.64 116.00" xmlns="http://www.w3.org/2000/svg" xmlns:xlink="http://www.w3.org/1999/xlink">
<g id="graph0" class="graph" transform="scale(1 1) rotate(0) translate(4 112)">
<title>%3</title>
<!-- getDerivedStateFromProps -->
<g id="node1" class="node">
<title>getDerivedStateFromProps</title>
<ellipse fill="none" stroke="#000000" cx="106.3875" cy="-90" rx="106.2751" ry="18"/>
<text text-anchor="middle" x="106.3875" y="-85.8" font-family="Times,serif" font-size="14.00" fill="#000000">getDerivedStateFromProps</text>
</g>
<!-- shouldComponentUpdate -->
<g id="node2" class="node">
<title>shouldComponentUpdate</title>
<ellipse fill="none" stroke="#000000" cx="593.1471" cy="-90" rx="100.4952" ry="18"/>
<text text-anchor="middle" x="593.1471" y="-85.8" font-family="Times,serif" font-size="14.00" fill="#000000">shouldComponentUpdate</text>
</g>
<!-- getDerivedStateFromProps&#45;&gt;shouldComponentUpdate -->
<g id="edge1" class="edge">
<title>getDerivedStateFromProps&#45;&gt;shouldComponentUpdate</title>
<path fill="none" stroke="#000000" d="M212.9081,-90C292.5988,-90 401.2944,-90 482.0642,-90"/>
<polygon fill="#000000" stroke="#000000" points="482.2701,-93.5001 492.27,-90 482.27,-86.5001 482.2701,-93.5001"/>
</g>
<!-- render -->
<g id="node3" class="node">
<title>render</title>
<ellipse fill="none" stroke="#000000" cx="593.1471" cy="-18" rx="32.8821" ry="18"/>
<text text-anchor="middle" x="593.1471" y="-13.8" font-family="Times,serif" font-size="14.00" fill="#000000">render</text>
</g>
<!-- shouldComponentUpdate&#45;&gt;render -->
<g id="edge2" class="edge">
<title>shouldComponentUpdate&#45;&gt;render</title>
<path fill="none" stroke="#000000" stroke-dasharray="5,2" d="M593.1471,-71.5867C593.1471,-63.9407 593.1471,-54.8916 593.1471,-46.4274"/>
<polygon fill="#000000" stroke="#000000" points="596.6472,-46.1686 593.1471,-36.1686 589.6472,-46.1687 596.6472,-46.1686"/>
<text text-anchor="middle" x="583.1471" y="-49.8" font-family="Times,serif" font-size="14.00" fill="#000000">if true</text>
</g>
<!-- componentDidUpdate -->
<g id="node4" class="node">
<title>componentDidUpdate</title>
<ellipse fill="none" stroke="#000000" cx="106.3875" cy="-18" rx="88.4084" ry="18"/>
<text text-anchor="middle" x="106.3875" y="-13.8" font-family="Times,serif" font-size="14.00" fill="#000000">componentDidUpdate</text>
</g>
<!-- getSnapshotBeforeUpdate -->
<g id="node5" class="node">
<title>getSnapshotBeforeUpdate</title>
<ellipse fill="none" stroke="#000000" cx="352.7122" cy="-18" rx="102.8747" ry="18"/>
<text text-anchor="middle" x="352.7122" y="-13.8" font-family="Times,serif" font-size="14.00" fill="#000000">getSnapshotBeforeUpdate</text>
</g>
<!-- componentDidUpdate&#45;&gt;getSnapshotBeforeUpdate -->
<g id="edge3" class="edge">
<title>componentDidUpdate&#45;&gt;getSnapshotBeforeUpdate</title>
<path fill="none" stroke="#000000" d="M204.7387,-18C219.4838,-18 234.7239,-18 249.5656,-18"/>
<polygon fill="#000000" stroke="#000000" points="204.6206,-14.5001 194.6206,-18 204.6206,-21.5001 204.6206,-14.5001"/>
</g>
<!-- getSnapshotBeforeUpdate&#45;&gt;render -->
<g id="edge4" class="edge">
<title>getSnapshotBeforeUpdate&#45;&gt;render</title>
<path fill="none" stroke="#000000" d="M465.9035,-18C500.3891,-18 535.6483,-18 560.2782,-18"/>
<polygon fill="#000000" stroke="#000000" points="465.7246,-14.5001 455.7246,-18 465.7246,-21.5001 465.7246,-14.5001"/>
</g>
</g>
</svg>
