<?xml version="1.0" encoding="UTF-8" standalone="no"?>
<!DOCTYPE svg PUBLIC "-//W3C//DTD SVG 1.1//EN"
 "http://www.w3.org/Graphics/SVG/1.1/DTD/svg11.dtd">
<!-- Generated by graphviz version 2.40.1 (20161225.0304)
 -->
<!-- Title: %3 Pages: 1 -->
<svg width="575pt" height="116pt"
 viewBox="0.00 0.00 575.17 116.00" xmlns="http://www.w3.org/2000/svg" xmlns:xlink="http://www.w3.org/1999/xlink">
<g id="graph0" class="graph" transform="scale(1 1) rotate(0) translate(4 112)">
<title>%3</title>
<!-- componentWillReceiveProps -->
<g id="node1" class="node">
<title>componentWillReceiveProps</title>
<ellipse fill="none" stroke="#000000" cx="113.3957" cy="-90" rx="113.2916" ry="18"/>
<text text-anchor="middle" x="113.3957" y="-85.8" font-family="Times,serif" font-size="14.00" fill="#000000">componentWillReceiveProps</text>
</g>
<!-- shouldComponentUpdate -->
<g id="node2" class="node">
<title>shouldComponentUpdate</title>
<ellipse fill="none" stroke="#000000" cx="466.67" cy="-90" rx="100.4952" ry="18"/>
<text text-anchor="middle" x="466.67" y="-85.8" font-family="Times,serif" font-size="14.00" fill="#000000">shouldComponentUpdate</text>
</g>
<!-- componentWillReceiveProps&#45;&gt;shouldComponentUpdate -->
<g id="edge1" class="edge">
<title>componentWillReceiveProps&#45;&gt;shouldComponentUpdate</title>
<path fill="none" stroke="#000000" d="M227.1185,-90C268.3931,-90 314.9397,-90 355.9513,-90"/>
<polygon fill="#000000" stroke="#000000" points="355.9769,-93.5001 365.9768,-90 355.9768,-86.5001 355.9769,-93.5001"/>
</g>
<!-- componentWillUpdate -->
<g id="node3" class="node">
<title>componentWillUpdate</title>
<ellipse fill="none" stroke="#000000" cx="466.67" cy="-18" rx="90.1141" ry="18"/>
<text text-anchor="middle" x="466.67" y="-13.8" font-family="Times,serif" font-size="14.00" fill="#000000">componentWillUpdate</text>
</g>
<!-- shouldComponentUpdate&#45;&gt;componentWillUpdate -->
<g id="edge2" class="edge">
<title>shouldComponentUpdate&#45;&gt;componentWillUpdate</title>
<path fill="none" stroke="#000000" stroke-dasharray="5,2" d="M466.67,-71.5867C466.67,-63.9407 466.67,-54.8916 466.67,-46.4274"/>
<polygon fill="#000000" stroke="#000000" points="470.1701,-46.1686 466.67,-36.1686 463.1701,-46.1687 470.1701,-46.1686"/>
<text text-anchor="middle" x="456.67" y="-49.8" font-family="Times,serif" font-size="14.00" fill="#000000">if true</text>
</g>
<!-- componentDidUpdate -->
<g id="node4" class="node">
<title>componentDidUpdate</title>
<ellipse fill="none" stroke="#000000" cx="113.3957" cy="-18" rx="88.4084" ry="18"/>
<text text-anchor="middle" x="113.3957" y="-13.8" font-family="Times,serif" font-size="14.00" fill="#000000">componentDidUpdate</text>
</g>
<!-- render -->
<g id="node5" class="node">
<title>render</title>
<ellipse fill="none" stroke="#000000" cx="296.482" cy="-18" rx="32.8821" ry="18"/>
<text text-anchor="middle" x="296.482" y="-13.8" font-family="Times,serif" font-size="14.00" fill="#000000">render</text>
</g>
<!-- componentDidUpdate&#45;&gt;render -->
<g id="edge3" class="edge">
<title>componentDidUpdate&#45;&gt;render</title>
<path fill="none" stroke="#000000" d="M211.834,-18C230.5548,-18 248.8888,-18 263.6805,-18"/>
<polygon fill="#000000" stroke="#000000" points="211.7212,-14.5001 201.7211,-18 211.7211,-21.5001 211.7212,-14.5001"/>
</g>
<!-- render&#45;&gt;componentWillUpdate -->
<g id="edge4" class="edge">
<title>render&#45;&gt;componentWillUpdate</title>
<path fill="none" stroke="#000000" d="M339.3188,-18C350.682,-18 363.3926,-18 376.2659,-18"/>
<polygon fill="#000000" stroke="#000000" points="339.296,-14.5001 329.2959,-18 339.2959,-21.5001 339.296,-14.5001"/>
</g>
</g>
</svg>
