<?xml version="1.0" encoding="UTF-8" standalone="no"?>
<!DOCTYPE svg PUBLIC "-//W3C//DTD SVG 1.1//EN"
 "http://www.w3.org/Graphics/SVG/1.1/DTD/svg11.dtd">
<!-- Generated by graphviz version 2.40.1 (20161225.0304)
 -->
<!-- Title: %3 Pages: 1 -->
<svg width="702pt" height="151pt"
 viewBox="0.00 0.00 701.64 151.00" xmlns="http://www.w3.org/2000/svg" xmlns:xlink="http://www.w3.org/1999/xlink">
<g id="graph0" class="graph" transform="scale(1 1) rotate(0) translate(4 147)">
<title>%3</title>
<!-- forceUpdate -->
<g id="node1" class="node">
<title>forceUpdate</title>
<ellipse fill="none" stroke="#ff0000" cx="352.7122" cy="-72" rx="53.6127" ry="18"/>
<text text-anchor="middle" x="352.7122" y="-67.8" font-family="Times,serif" font-size="14.00" fill="#ff0000">forceUpdate</text>
</g>
<!-- render -->
<g id="node2" class="node">
<title>render</title>
<ellipse fill="none" stroke="#000000" cx="593.1471" cy="-53" rx="32.8821" ry="18"/>
<text text-anchor="middle" x="593.1471" y="-48.8" font-family="Times,serif" font-size="14.00" fill="#000000">render</text>
</g>
<!-- forceUpdate&#45;&gt;render -->
<g id="edge1" class="edge">
<title>forceUpdate&#45;&gt;render</title>
<path fill="none" stroke="#ff0000" d="M405.1796,-67.8538C448.7783,-64.4085 510.0286,-59.5683 550.6154,-56.361"/>
<polygon fill="#ff0000" stroke="#ff0000" points="551.0264,-59.8395 560.7195,-55.5625 550.4749,-52.8613 551.0264,-59.8395"/>
</g>
<!-- getDerivedStateFromProps -->
<g id="node3" class="node">
<title>getDerivedStateFromProps</title>
<ellipse fill="none" stroke="#000000" cx="106.3875" cy="-125" rx="106.2751" ry="18"/>
<text text-anchor="middle" x="106.3875" y="-120.8" font-family="Times,serif" font-size="14.00" fill="#000000">getDerivedStateFromProps</text>
</g>
<!-- shouldComponentUpdate -->
<g id="node4" class="node">
<title>shouldComponentUpdate</title>
<ellipse fill="none" stroke="#000000" cx="593.1471" cy="-125" rx="100.4952" ry="18"/>
<text text-anchor="middle" x="593.1471" y="-120.8" font-family="Times,serif" font-size="14.00" fill="#000000">shouldComponentUpdate</text>
</g>
<!-- getDerivedStateFromProps&#45;&gt;shouldComponentUpdate -->
<g id="edge2" class="edge">
<title>getDerivedStateFromProps&#45;&gt;shouldComponentUpdate</title>
<path fill="none" stroke="#000000" d="M212.9081,-125C292.5988,-125 401.2944,-125 482.0642,-125"/>
<polygon fill="#000000" stroke="#000000" points="482.2701,-128.5001 492.27,-125 482.27,-121.5001 482.2701,-128.5001"/>
</g>
<!-- shouldComponentUpdate&#45;&gt;render -->
<g id="edge3" class="edge">
<title>shouldComponentUpdate&#45;&gt;render</title>
<path fill="none" stroke="#000000" stroke-dasharray="5,2" d="M593.1471,-106.5867C593.1471,-98.9407 593.1471,-89.8916 593.1471,-81.4274"/>
<polygon fill="#000000" stroke="#000000" points="596.6472,-81.1686 593.1471,-71.1686 589.6472,-81.1687 596.6472,-81.1686"/>
<text text-anchor="middle" x="583.1471" y="-84.8" font-family="Times,serif" font-size="14.00" fill="#000000">if true</text>
</g>
<!-- componentDidUpdate -->
<g id="node5" class="node">
<title>componentDidUpdate</title>
<ellipse fill="none" stroke="#000000" cx="106.3875" cy="-18" rx="88.4084" ry="18"/>
<text text-anchor="middle" x="106.3875" y="-13.8" font-family="Times,serif" font-size="14.00" fill="#000000">componentDidUpdate</text>
</g>
<!-- getSnapshotBeforeUpdate -->
<g id="node6" class="node">
<title>getSnapshotBeforeUpdate</title>
<ellipse fill="none" stroke="#000000" cx="352.7122" cy="-18" rx="102.8747" ry="18"/>
<text text-anchor="middle" x="352.7122" y="-13.8" font-family="Times,serif" font-size="14.00" fill="#000000">getSnapshotBeforeUpdate</text>
</g>
<!-- componentDidUpdate&#45;&gt;getSnapshotBeforeUpdate -->
<g id="edge4" class="edge">
<title>componentDidUpdate&#45;&gt;getSnapshotBeforeUpdate</title>
<path fill="none" stroke="#000000" d="M204.7387,-18C219.4838,-18 234.7239,-18 249.5656,-18"/>
<polygon fill="#000000" stroke="#000000" points="204.6206,-14.5001 194.6206,-18 204.6206,-21.5001 204.6206,-14.5001"/>
</g>
<!-- getSnapshotBeforeUpdate&#45;&gt;render -->
<g id="edge5" class="edge">
<title>getSnapshotBeforeUpdate&#45;&gt;render</title>
<path fill="none" stroke="#000000" d="M442.0384,-31.0032C483.8119,-37.0841 530.9236,-43.9422 561.2716,-48.3599"/>
<polygon fill="#000000" stroke="#000000" points="442.5059,-27.5344 432.106,-29.5573 441.4975,-34.4614 442.5059,-27.5344"/>
</g>
</g>
</svg>
