<?xml version="1.0" encoding="UTF-8" standalone="no"?>
<!DOCTYPE svg PUBLIC "-//W3C//DTD SVG 1.1//EN"
 "http://www.w3.org/Graphics/SVG/1.1/DTD/svg11.dtd">
<!-- Generated by graphviz version 2.40.1 (20161225.0304)
 -->
<!-- Title: %3 Pages: 1 -->
<svg width="630pt" height="44pt"
 viewBox="0.00 0.00 630.37 44.00" xmlns="http://www.w3.org/2000/svg" xmlns:xlink="http://www.w3.org/1999/xlink">
<g id="graph0" class="graph" transform="scale(1 1) rotate(0) translate(4 40)">
<title>%3</title>
<!-- constructor -->
<g id="node1" class="node">
<title>constructor</title>
<ellipse fill="none" stroke="#000000" cx="49.8895" cy="-18" rx="49.7792" ry="18"/>
<text text-anchor="middle" x="49.8895" y="-13.8" font-family="Times,serif" font-size="14.00" fill="#000000">constructor</text>
</g>
<!-- componentWillMount -->
<g id="node2" class="node">
<title>componentWillMount</title>
<ellipse fill="none" stroke="#000000" cx="224.134" cy="-18" rx="88.2104" ry="18"/>
<text text-anchor="middle" x="224.134" y="-13.8" font-family="Times,serif" font-size="14.00" fill="#000000">componentWillMount</text>
</g>
<!-- constructor&#45;&gt;componentWillMount -->
<g id="edge1" class="edge">
<title>constructor&#45;&gt;componentWillMount</title>
<path fill="none" stroke="#000000" d="M99.821,-18C108.0044,-18 116.7267,-18 125.61,-18"/>
<polygon fill="#000000" stroke="#000000" points="125.6878,-21.5001 135.6877,-18 125.6877,-14.5001 125.6878,-21.5001"/>
</g>
<!-- render -->
<g id="node3" class="node">
<title>render</title>
<ellipse fill="none" stroke="#000000" cx="381.1796" cy="-18" rx="32.8821" ry="18"/>
<text text-anchor="middle" x="381.1796" y="-13.8" font-family="Times,serif" font-size="14.00" fill="#000000">render</text>
</g>
<!-- componentWillMount&#45;&gt;render -->
<g id="edge2" class="edge">
<title>componentWillMount&#45;&gt;render</title>
<path fill="none" stroke="#000000" d="M312.754,-18C321.5584,-18 330.1907,-18 338.198,-18"/>
<polygon fill="#000000" stroke="#000000" points="338.3265,-21.5001 348.3264,-18 338.3264,-14.5001 338.3265,-21.5001"/>
</g>
<!-- componentDidMount -->
<g id="node4" class="node">
<title>componentDidMount</title>
<ellipse fill="none" stroke="#000000" cx="536.1222" cy="-18" rx="86.0051" ry="18"/>
<text text-anchor="middle" x="536.1222" y="-13.8" font-family="Times,serif" font-size="14.00" fill="#000000">componentDidMount</text>
</g>
<!-- render&#45;&gt;componentDidMount -->
<g id="edge3" class="edge">
<title>render&#45;&gt;componentDidMount</title>
<path fill="none" stroke="#000000" d="M414.0389,-18C421.8672,-18 430.6175,-18 439.7404,-18"/>
<polygon fill="#000000" stroke="#000000" points="439.7599,-21.5001 449.7599,-18 439.7599,-14.5001 439.7599,-21.5001"/>
</g>
</g>
</svg>
