<?xml version="1.0" encoding="UTF-8" standalone="no"?>
<!DOCTYPE svg PUBLIC "-//W3C//DTD SVG 1.1//EN"
 "http://www.w3.org/Graphics/SVG/1.1/DTD/svg11.dtd">
<!-- Generated by graphviz version 2.40.1 (20161225.0304)
 -->
<!-- Title: %3 Pages: 1 -->
<svg width="666pt" height="44pt"
 viewBox="0.00 0.00 666.44 44.00" xmlns="http://www.w3.org/2000/svg" xmlns:xlink="http://www.w3.org/1999/xlink">
<g id="graph0" class="graph" transform="scale(1 1) rotate(0) translate(4 40)">
<title>%3</title>
<!-- constructor -->
<g id="node1" class="node">
<title>constructor</title>
<ellipse fill="none" stroke="#000000" cx="49.8895" cy="-18" rx="49.7792" ry="18"/>
<text text-anchor="middle" x="49.8895" y="-13.8" font-family="Times,serif" font-size="14.00" fill="#000000">constructor</text>
</g>
<!-- getDerivedStateFromProps -->
<g id="node2" class="node">
<title>getDerivedStateFromProps</title>
<ellipse fill="none" stroke="#000000" cx="242.1664" cy="-18" rx="106.2751" ry="18"/>
<text text-anchor="middle" x="242.1664" y="-13.8" font-family="Times,serif" font-size="14.00" fill="#000000">getDerivedStateFromProps</text>
</g>
<!-- constructor&#45;&gt;getDerivedStateFromProps -->
<g id="edge1" class="edge">
<title>constructor&#45;&gt;getDerivedStateFromProps</title>
<path fill="none" stroke="#000000" d="M99.906,-18C107.9906,-18 116.6454,-18 125.5458,-18"/>
<polygon fill="#000000" stroke="#000000" points="125.6818,-21.5001 135.6817,-18 125.6817,-14.5001 125.6818,-21.5001"/>
</g>
<!-- render -->
<g id="node3" class="node">
<title>render</title>
<ellipse fill="none" stroke="#000000" cx="417.2443" cy="-18" rx="32.8821" ry="18"/>
<text text-anchor="middle" x="417.2443" y="-13.8" font-family="Times,serif" font-size="14.00" fill="#000000">render</text>
</g>
<!-- getDerivedStateFromProps&#45;&gt;render -->
<g id="edge2" class="edge">
<title>getDerivedStateFromProps&#45;&gt;render</title>
<path fill="none" stroke="#000000" d="M348.8024,-18C357.7385,-18 366.3954,-18 374.3757,-18"/>
<polygon fill="#000000" stroke="#000000" points="374.4436,-21.5001 384.4435,-18 374.4435,-14.5001 374.4436,-21.5001"/>
</g>
<!-- componentDidMount -->
<g id="node4" class="node">
<title>componentDidMount</title>
<ellipse fill="none" stroke="#000000" cx="572.187" cy="-18" rx="86.0051" ry="18"/>
<text text-anchor="middle" x="572.187" y="-13.8" font-family="Times,serif" font-size="14.00" fill="#000000">componentDidMount</text>
</g>
<!-- render&#45;&gt;componentDidMount -->
<g id="edge3" class="edge">
<title>render&#45;&gt;componentDidMount</title>
<path fill="none" stroke="#000000" d="M450.1037,-18C457.932,-18 466.6822,-18 475.8051,-18"/>
<polygon fill="#000000" stroke="#000000" points="475.8247,-21.5001 485.8247,-18 475.8246,-14.5001 475.8247,-21.5001"/>
</g>
</g>
</svg>
