<?xml version="1.0" encoding="UTF-8" standalone="no"?>
<!DOCTYPE svg PUBLIC "-//W3C//DTD SVG 1.1//EN"
 "http://www.w3.org/Graphics/SVG/1.1/DTD/svg11.dtd">
<!-- Generated by graphviz version 2.40.1 (20161225.0304)
 -->
<!-- Title: %3 Pages: 1 -->
<svg width="245pt" height="57pt"
 viewBox="0.00 0.00 244.71 57.45" xmlns="http://www.w3.org/2000/svg" xmlns:xlink="http://www.w3.org/1999/xlink">
<g id="graph0" class="graph" transform="scale(1 1) rotate(0) translate(4 53.4481)">
<title>%3</title>
<!-- Parent -->
<g id="node1" class="node">
<title>Parent</title>
<ellipse fill="none" stroke="#000000" cx="32.6991" cy="-22.4481" rx="32.8994" ry="18"/>
<text text-anchor="middle" x="32.6991" y="-18.2481" font-family="Times,serif" font-size="14.00" fill="#000000">Parent</text>
</g>
<!-- Child -->
<g id="node2" class="node">
<title>Child</title>
<ellipse fill="none" stroke="#000000" cx="206.9511" cy="-22.4481" rx="29.5275" ry="18"/>
<text text-anchor="middle" x="206.9511" y="-18.2481" font-family="Times,serif" font-size="14.00" fill="#000000">Child</text>
</g>
<!-- Parent&#45;&gt;Child -->
<g id="edge1" class="edge">
<title>Parent&#45;&gt;Child</title>
<path fill="none" stroke="#000000" d="M62.5518,-30.0328C69.3588,-31.4522 76.5921,-32.7182 83.3982,-33.4481 116.8907,-37.0397 125.7193,-37.2523 159.1883,-33.4481 162.6323,-33.0566 166.1896,-32.5112 169.7369,-31.8708"/>
<polygon fill="#000000" stroke="#000000" points="170.5038,-35.2866 179.6053,-29.8632 169.1083,-28.4271 170.5038,-35.2866"/>
<text text-anchor="middle" x="121.2932" y="-38.2481" font-family="Times,serif" font-size="14.00" fill="#000000">passes props</text>
</g>
<!-- Parent&#45;&gt;Child -->
<g id="edge2" class="edge">
<title>Parent&#45;&gt;Child</title>
<path fill="none" stroke="transparent" d="M65.4746,-22.4481C94.136,-22.4481 135.863,-22.4481 166.5768,-22.4481"/>
<polygon fill="transparent" stroke="transparent" points="166.9419,-25.9482 176.9419,-22.4481 166.9418,-18.9482 166.9419,-25.9482"/>
</g>
<!-- Child&#45;&gt;Parent -->
<g id="edge3" class="edge">
<title>Child&#45;&gt;Parent</title>
<path fill="none" stroke="#000000" d="M183.1352,-11.5503C175.6332,-8.6449 167.2088,-5.9092 159.1883,-4.4481 126.0492,1.5891 116.5938,1.2699 83.3982,-4.4481 78.35,-5.3176 73.138,-6.6407 68.0639,-8.1832"/>
<polygon fill="#000000" stroke="#000000" points="66.9324,-4.8709 58.5557,-11.358 69.1495,-11.5106 66.9324,-4.8709"/>
<text text-anchor="middle" x="121.2932" y="-7.2481" font-family="Times,serif" font-size="14.00" fill="#000000">calls callback</text>
</g>
</g>
</svg>
