<?xml version="1.0" encoding="UTF-8" standalone="no"?>
<!DOCTYPE svg PUBLIC "-//W3C//DTD SVG 1.1//EN"
 "http://www.w3.org/Graphics/SVG/1.1/DTD/svg11.dtd">
<!-- Generated by graphviz version 2.40.1 (20161225.0304)
 -->
<!-- Title: %3 Pages: 1 -->
<svg width="286pt" height="112pt"
 viewBox="0.00 0.00 285.76 112.46" xmlns="http://www.w3.org/2000/svg" xmlns:xlink="http://www.w3.org/1999/xlink">
<g id="graph0" class="graph" transform="scale(1 1) rotate(0) translate(4 108.4558)">
<title>%3</title>
<!-- Currentstate -->
<g id="node1" class="node">
<title>Currentstate</title>
<ellipse fill="none" stroke="#000000" cx="41.5536" cy="-79" rx="41.6072" ry="25.4118"/>
<text text-anchor="middle" x="41.5536" y="-81.8" font-family="Times,serif" font-size="14.00" fill="#000000">Current</text>
<text text-anchor="middle" x="41.5536" y="-67.8" font-family="Times,serif" font-size="14.00" fill="#000000">state</text>
</g>
<!-- Reducer -->
<g id="node2" class="node">
<title>Reducer</title>
<polygon fill="none" stroke="#000000" points="181.5706,-66 119.2853,-66 119.2853,-30 181.5706,-30 181.5706,-66"/>
<text text-anchor="middle" x="150.4279" y="-43.8" font-family="Times,serif" font-size="14.00" fill="#000000">Reducer</text>
</g>
<!-- Currentstate&#45;&gt;Reducer -->
<g id="edge1" class="edge">
<title>Currentstate&#45;&gt;Reducer</title>
<path fill="none" stroke="#000000" d="M79.327,-68.2447C89.0923,-65.4642 99.6494,-62.4583 109.5647,-59.6351"/>
<polygon fill="#000000" stroke="#000000" points="110.5537,-62.9927 119.213,-56.8879 108.6367,-56.2602 110.5537,-62.9927"/>
</g>
<!-- Newstate -->
<g id="node3" class="node">
<title>Newstate</title>
<ellipse fill="none" stroke="#000000" cx="247.7545" cy="-48" rx="30.0115" ry="25.4118"/>
<text text-anchor="middle" x="247.7545" y="-50.8" font-family="Times,serif" font-size="14.00" fill="#000000">New</text>
<text text-anchor="middle" x="247.7545" y="-36.8" font-family="Times,serif" font-size="14.00" fill="#000000">state</text>
</g>
<!-- Reducer&#45;&gt;Newstate -->
<g id="edge3" class="edge">
<title>Reducer&#45;&gt;Newstate</title>
<path fill="none" stroke="#000000" d="M181.7584,-48C189.8968,-48 198.7791,-48 207.3139,-48"/>
<polygon fill="#000000" stroke="#000000" points="207.4788,-51.5001 217.4787,-48 207.4787,-44.5001 207.4788,-51.5001"/>
</g>
<!-- Action -->
<g id="node4" class="node">
<title>Action</title>
<ellipse fill="none" stroke="#000000" cx="41.5536" cy="-18" rx="34.3527" ry="18"/>
<text text-anchor="middle" x="41.5536" y="-13.8" font-family="Times,serif" font-size="14.00" fill="#000000">Action</text>
</g>
<!-- Action&#45;&gt;Reducer -->
<g id="edge2" class="edge">
<title>Action&#45;&gt;Reducer</title>
<path fill="none" stroke="#000000" d="M71.8812,-26.3567C83.4987,-29.5579 96.9522,-33.2649 109.4066,-36.6967"/>
<polygon fill="#000000" stroke="#000000" points="108.5559,-40.0927 119.1264,-39.3749 110.4154,-33.3442 108.5559,-40.0927"/>
</g>
</g>
</svg>
