<?xml version="1.0" encoding="UTF-8" standalone="no"?>
<!DOCTYPE svg PUBLIC "-//W3C//DTD SVG 1.1//EN"
 "http://www.w3.org/Graphics/SVG/1.1/DTD/svg11.dtd">
<!-- Generated by graphviz version 2.40.1 (20161225.0304)
 -->
<!-- Title: %3 Pages: 1 -->
<svg width="345pt" height="78pt"
 viewBox="0.00 0.00 345.38 78.00" xmlns="http://www.w3.org/2000/svg" xmlns:xlink="http://www.w3.org/1999/xlink">
<g id="graph0" class="graph" transform="scale(1 1) rotate(0) translate(4 74)">
<title>%3</title>
<!-- data -->
<g id="node1" class="node">
<title>data</title>
<ellipse fill="none" stroke="#000000" cx="27" cy="-18" rx="27" ry="18"/>
<text text-anchor="middle" x="27" y="-13.8" font-family="Times,serif" font-size="14.00" fill="#000000">data</text>
</g>
<!-- view -->
<g id="node2" class="node">
<title>view</title>
<ellipse fill="none" stroke="#000000" cx="171.3489" cy="-52" rx="27.0958" ry="18"/>
<text text-anchor="middle" x="171.3489" y="-47.8" font-family="Times,serif" font-size="14.00" fill="#000000">view</text>
</g>
<!-- data&#45;&gt;view -->
<g id="edge2" class="edge">
<title>data&#45;&gt;view</title>
<path fill="none" stroke="#000000" d="M52.4744,-24.0003C75.482,-29.4195 109.5852,-37.4522 135.3712,-43.5258"/>
<polygon fill="#000000" stroke="#000000" points="134.6187,-46.9443 145.1548,-45.8302 136.2236,-40.1307 134.6187,-46.9443"/>
<text text-anchor="middle" x="99.0259" y="-43.8" font-family="Times,serif" font-size="14.00" fill="#000000">pushed to</text>
</g>
<!-- events -->
<g id="node3" class="node">
<title>events</title>
<ellipse fill="none" stroke="#000000" cx="304.6763" cy="-18" rx="32.8994" ry="18"/>
<text text-anchor="middle" x="304.6763" y="-13.8" font-family="Times,serif" font-size="14.00" fill="#000000">events</text>
</g>
<!-- view&#45;&gt;events -->
<g id="edge3" class="edge">
<title>view&#45;&gt;events</title>
<path fill="none" stroke="#000000" d="M197.0558,-45.4445C216.3482,-40.5247 243.1127,-33.6994 265.1239,-28.0863"/>
<polygon fill="#000000" stroke="#000000" points="266.0338,-31.4664 274.8588,-25.6038 264.304,-24.6835 266.0338,-31.4664"/>
<text text-anchor="middle" x="235.3116" y="-42.8" font-family="Times,serif" font-size="14.00" fill="#000000">invites</text>
</g>
<!-- events&#45;&gt;data -->
<g id="edge1" class="edge">
<title>events&#45;&gt;data</title>
<path fill="none" stroke="#000000" d="M272.2198,-15.301C251.2458,-13.6944 223.3531,-11.8147 198.6461,-11 152.3176,-9.4724 98.9755,-12.3798 64.2123,-14.9001"/>
<polygon fill="#000000" stroke="#000000" points="63.7578,-11.4243 54.0485,-15.6645 64.2829,-18.4046 63.7578,-11.4243"/>
<text text-anchor="middle" x="171.3489" y="-13.8" font-family="Times,serif" font-size="14.00" fill="#000000">update</text>
</g>
</g>
</svg>
