<?xml version="1.0" encoding="UTF-8" standalone="no"?>
<!DOCTYPE svg PUBLIC "-//W3C//DTD SVG 1.1//EN"
 "http://www.w3.org/Graphics/SVG/1.1/DTD/svg11.dtd">
<!-- Generated by graphviz version 2.40.1 (20161225.0304)
 -->
<!-- Title: %3 Pages: 1 -->
<svg width="399pt" height="85pt"
 viewBox="0.00 0.00 399.35 85.46" xmlns="http://www.w3.org/2000/svg" xmlns:xlink="http://www.w3.org/1999/xlink">
<g id="graph0" class="graph" transform="scale(1 1) rotate(0) translate(4 81.4558)">
<title>%3</title>
<!-- Store -->
<g id="node1" class="node">
<title>Store</title>
<ellipse fill="none" stroke="#000000" cx="28.774" cy="-25.4558" rx="28.5497" ry="18"/>
<text text-anchor="middle" x="28.774" y="-21.2558" font-family="Times,serif" font-size="14.00" fill="#000000">Store</text>
</g>
<!-- Components -->
<g id="node2" class="node">
<title>Components</title>
<ellipse fill="none" stroke="#000000" cx="189.5919" cy="-59.4558" rx="54.6334" ry="18"/>
<text text-anchor="middle" x="189.5919" y="-55.2558" font-family="Times,serif" font-size="14.00" fill="#000000">Components</text>
</g>
<!-- Store&#45;&gt;Components -->
<g id="edge1" class="edge">
<title>Store&#45;&gt;Components</title>
<path fill="none" stroke="#000000" d="M56.0545,-31.2235C77.1914,-35.6922 107.1935,-42.0353 133.4071,-47.5773"/>
<polygon fill="#000000" stroke="#000000" points="132.7342,-51.0123 143.2419,-49.6566 134.1821,-44.1637 132.7342,-51.0123"/>
<text text-anchor="middle" x="96.1617" y="-46.2558" font-family="Times,serif" font-size="14.00" fill="#000000">notifies</text>
</g>
<!-- Actions -->
<g id="node3" class="node">
<title>Actions</title>
<ellipse fill="none" stroke="#000000" cx="348.7047" cy="-25.4558" rx="42.7828" ry="25.4118"/>
<text text-anchor="middle" x="348.7047" y="-28.2558" font-family="Times,serif" font-size="14.00" fill="#000000">Action</text>
<text text-anchor="middle" x="348.7047" y="-14.2558" font-family="Times,serif" font-size="14.00" fill="#000000">creators</text>
</g>
<!-- Components&#45;&gt;Actions -->
<g id="edge2" class="edge">
<title>Components&#45;&gt;Actions</title>
<path fill="none" stroke="#000000" d="M235.6139,-49.6216C255.3214,-45.4104 278.3895,-40.4811 298.5332,-36.1767"/>
<polygon fill="#000000" stroke="#000000" points="299.4145,-39.5675 308.4623,-34.055 297.9516,-32.7221 299.4145,-39.5675"/>
<text text-anchor="middle" x="275.2359" y="-46.2558" font-family="Times,serif" font-size="14.00" fill="#000000">calls</text>
</g>
<!-- Actions&#45;&gt;Store -->
<g id="edge3" class="edge">
<title>Actions&#45;&gt;Store</title>
<path fill="none" stroke="#000000" d="M306.3649,-21.968C287.4256,-20.5745 264.8131,-19.1398 244.4083,-18.4558 195.7099,-16.8235 183.4747,-16.8496 134.7755,-18.4558 112.4858,-19.191 87.6027,-20.7935 67.5493,-22.2799"/>
<polygon fill="#000000" stroke="#000000" points="67.2478,-18.7926 57.5422,-23.0414 67.779,-25.7724 67.2478,-18.7926"/>
<text text-anchor="middle" x="189.5919" y="-21.2558" font-family="Times,serif" font-size="14.00" fill="#000000">update</text>
</g>
</g>
</svg>
