<?xml version="1.0" encoding="UTF-8" standalone="no"?>
<!DOCTYPE svg PUBLIC "-//W3C//DTD SVG 1.1//EN"
 "http://www.w3.org/Graphics/SVG/1.1/DTD/svg11.dtd">
<!-- Generated by graphviz version 2.40.1 (20161225.0304)
 -->
<!-- Title: %3 Pages: 1 -->
<svg width="255pt" height="44pt"
 viewBox="0.00 0.00 255.33 44.00" xmlns="http://www.w3.org/2000/svg" xmlns:xlink="http://www.w3.org/1999/xlink">
<g id="graph0" class="graph" transform="scale(1 1) rotate(0) translate(4 40)">
<title>%3</title>
<!-- Quotelist -->
<g id="node1" class="node">
<title>Quotelist</title>
<polygon fill="none" stroke="#000000" points="157.4974,-36 89.8337,-36 89.8337,0 157.4974,0 157.4974,-36"/>
<text text-anchor="middle" x="123.6655" y="-13.8" font-family="Times,serif" font-size="14.00" fill="#000000">Quotelist</text>
</g>
<!-- UI -->
<g id="node3" class="node">
<title>UI</title>
<ellipse fill="none" stroke="#000000" cx="220.3311" cy="-18" rx="27" ry="18"/>
<text text-anchor="middle" x="220.3311" y="-13.8" font-family="Times,serif" font-size="14.00" fill="#000000">UI</text>
</g>
<!-- Quotelist&#45;&gt;UI -->
<g id="edge2" class="edge">
<title>Quotelist&#45;&gt;UI</title>
<path fill="none" stroke="#000000" d="M157.4744,-18C165.6666,-18 174.4725,-18 182.8238,-18"/>
<polygon fill="#000000" stroke="#000000" points="183.0787,-21.5001 193.0786,-18 183.0786,-14.5001 183.0787,-21.5001"/>
</g>
<!-- list -->
<g id="node2" class="node">
<title>list</title>
<ellipse fill="none" stroke="#000000" cx="27" cy="-18" rx="27" ry="18"/>
<text text-anchor="middle" x="27" y="-13.8" font-family="Times,serif" font-size="14.00" fill="#000000">list</text>
</g>
<!-- list&#45;&gt;Quotelist -->
<g id="edge1" class="edge">
<title>list&#45;&gt;Quotelist</title>
<path fill="none" stroke="#000000" d="M54.184,-18C62.131,-18 71.0283,-18 79.7336,-18"/>
<polygon fill="#000000" stroke="#000000" points="79.7962,-21.5001 89.7962,-18 79.7961,-14.5001 79.7962,-21.5001"/>
</g>
</g>
</svg>
