<?xml version="1.0" encoding="UTF-8" standalone="no"?>
<!DOCTYPE svg PUBLIC "-//W3C//DTD SVG 1.1//EN"
 "http://www.w3.org/Graphics/SVG/1.1/DTD/svg11.dtd">
<!-- Generated by graphviz version 2.40.1 (20161225.0304)
 -->
<!-- Title: %3 Pages: 1 -->
<svg width="291pt" height="44pt"
 viewBox="0.00 0.00 290.56 44.00" xmlns="http://www.w3.org/2000/svg" xmlns:xlink="http://www.w3.org/1999/xlink">
<g id="graph0" class="graph" transform="scale(1 1) rotate(0) translate(4 40)">
<title>%3</title>
<!-- Quoteform -->
<g id="node1" class="node">
<title>Quoteform</title>
<polygon fill="none" stroke="#000000" points="192.7726,-36 114.9147,-36 114.9147,0 192.7726,0 192.7726,-36"/>
<text text-anchor="middle" x="153.8436" y="-13.8" font-family="Times,serif" font-size="14.00" fill="#000000">Quoteform</text>
</g>
<!-- UI -->
<g id="node3" class="node">
<title>UI</title>
<ellipse fill="none" stroke="#000000" cx="255.5575" cy="-18" rx="27" ry="18"/>
<text text-anchor="middle" x="255.5575" y="-13.8" font-family="Times,serif" font-size="14.00" fill="#000000">UI</text>
</g>
<!-- Quoteform&#45;&gt;UI -->
<g id="edge2" class="edge">
<title>Quoteform&#45;&gt;UI</title>
<path fill="none" stroke="#000000" d="M192.5875,-18C200.956,-18 209.7892,-18 218.1071,-18"/>
<polygon fill="#000000" stroke="#000000" points="218.2938,-21.5001 228.2938,-18 218.2938,-14.5001 218.2938,-21.5001"/>
</g>
<!-- callback -->
<g id="node2" class="node">
<title>callback</title>
<ellipse fill="none" stroke="#000000" cx="39.5649" cy="-18" rx="39.6299" ry="18"/>
<text text-anchor="middle" x="39.5649" y="-13.8" font-family="Times,serif" font-size="14.00" fill="#000000">callback</text>
</g>
<!-- callback&#45;&gt;Quoteform -->
<g id="edge1" class="edge">
<title>callback&#45;&gt;Quoteform</title>
<path fill="none" stroke="#000000" d="M79.2133,-18C87.4629,-18 96.2508,-18 104.7927,-18"/>
<polygon fill="#000000" stroke="#000000" points="105.037,-21.5001 115.037,-18 105.0369,-14.5001 105.037,-21.5001"/>
</g>
</g>
</svg>
