<?xml version="1.0" encoding="UTF-8" standalone="no"?>
<!DOCTYPE svg PUBLIC "-//W3C//DTD SVG 1.1//EN"
 "http://www.w3.org/Graphics/SVG/1.1/DTD/svg11.dtd">
<!-- Generated by graphviz version 2.40.1 (20161225.0304)
 -->
<!-- Title: %3 Pages: 1 -->
<svg width="372pt" height="152pt"
 viewBox="0.00 0.00 371.89 152.00" xmlns="http://www.w3.org/2000/svg" xmlns:xlink="http://www.w3.org/1999/xlink">
<g id="graph0" class="graph" transform="scale(1 1) rotate(0) translate(4 148)">
<title>%3</title>
<!-- state -->
<g id="node1" class="node">
<title>state</title>
<ellipse fill="none" stroke="#000000" cx="89.1842" cy="-126" rx="75.838" ry="18"/>
<text text-anchor="middle" x="89.1842" y="-121.8" font-family="Times,serif" font-size="14.00" fill="#000000">mapped from state</text>
</g>
<!-- bake -->
<g id="node4" class="node">
<title>bake</title>
<polygon fill="none" stroke="#000000" points="268.3683,-90 214.3683,-90 214.3683,-54 268.3683,-54 268.3683,-90"/>
<text text-anchor="middle" x="241.3683" y="-67.8" font-family="Times,serif" font-size="14.00" fill="#000000">bake</text>
</g>
<!-- state&#45;&gt;bake -->
<g id="edge1" class="edge">
<title>state&#45;&gt;bake</title>
<path fill="none" stroke="#000000" d="M138.5727,-112.1137C151.6095,-108.1586 165.6006,-103.6524 178.3683,-99 187.0603,-95.8328 196.2831,-92.0992 204.9127,-88.4354"/>
<polygon fill="#000000" stroke="#000000" points="206.5511,-91.5403 214.3438,-84.3623 203.7757,-85.114 206.5511,-91.5403"/>
</g>
<!-- dispatch -->
<g id="node2" class="node">
<title>dispatch</title>
<ellipse fill="none" stroke="#000000" cx="89.1842" cy="-72" rx="89.3687" ry="18"/>
<text text-anchor="middle" x="89.1842" y="-67.8" font-family="Times,serif" font-size="14.00" fill="#000000">mapped from dispatch</text>
</g>
<!-- dispatch&#45;&gt;bake -->
<g id="edge2" class="edge">
<title>dispatch&#45;&gt;bake</title>
<path fill="none" stroke="#000000" d="M178.5906,-72C187.4868,-72 196.1324,-72 204.0204,-72"/>
<polygon fill="#000000" stroke="#000000" points="204.2596,-75.5001 214.2595,-72 204.2595,-68.5001 204.2596,-75.5001"/>
</g>
<!-- parent -->
<g id="node3" class="node">
<title>parent</title>
<ellipse fill="none" stroke="#000000" cx="89.1842" cy="-18" rx="77.283" ry="18"/>
<text text-anchor="middle" x="89.1842" y="-13.8" font-family="Times,serif" font-size="14.00" fill="#000000">passed from parent</text>
</g>
<!-- parent&#45;&gt;bake -->
<g id="edge3" class="edge">
<title>parent&#45;&gt;bake</title>
<path fill="none" stroke="#000000" d="M138.5727,-31.8863C151.6095,-35.8414 165.6006,-40.3476 178.3683,-45 187.0603,-48.1672 196.2831,-51.9008 204.9127,-55.5646"/>
<polygon fill="#000000" stroke="#000000" points="203.7757,-58.886 214.3438,-59.6377 206.5511,-52.4597 203.7757,-58.886"/>
</g>
<!-- props -->
<g id="node5" class="node">
<title>props</title>
<ellipse fill="none" stroke="#000000" cx="334.1268" cy="-72" rx="29.5189" ry="18"/>
<text text-anchor="middle" x="334.1268" y="-67.8" font-family="Times,serif" font-size="14.00" fill="#000000">props</text>
</g>
<!-- bake&#45;&gt;props -->
<g id="edge4" class="edge">
<title>bake&#45;&gt;props</title>
<path fill="none" stroke="#000000" d="M268.6972,-72C276.5997,-72 285.3953,-72 293.9089,-72"/>
<polygon fill="#000000" stroke="#000000" points="294.0749,-75.5001 304.0749,-72 294.0748,-68.5001 294.0749,-75.5001"/>
</g>
</g>
</svg>
