<?xml version="1.0" encoding="UTF-8" standalone="no"?>
<!DOCTYPE svg PUBLIC "-//W3C//DTD SVG 1.1//EN"
 "http://www.w3.org/Graphics/SVG/1.1/DTD/svg11.dtd">
<!-- Generated by graphviz version 2.40.1 (20161225.0304)
 -->
<!-- Title: %3 Pages: 1 -->
<svg width="429pt" height="44pt"
 viewBox="0.00 0.00 428.86 44.00" xmlns="http://www.w3.org/2000/svg" xmlns:xlink="http://www.w3.org/1999/xlink">
<g id="graph0" class="graph" transform="scale(1 1) rotate(0) translate(4 40)">
<title>%3</title>
<!-- thunk -->
<g id="node1" class="node">
<title>thunk</title>
<ellipse fill="none" stroke="#000000" cx="55.5505" cy="-18" rx="55.601" ry="18"/>
<text text-anchor="middle" x="55.5505" y="-13.8" font-family="Times,serif" font-size="14.00" fill="#000000">Redux thunk</text>
</g>
<!-- middleware -->
<g id="node2" class="node">
<title>middleware</title>
<ellipse fill="none" stroke="#000000" cx="218.9871" cy="-18" rx="52.6693" ry="18"/>
<text text-anchor="middle" x="218.9871" y="-13.8" font-family="Times,serif" font-size="14.00" fill="#000000">Middleware</text>
</g>
<!-- thunk&#45;&gt;middleware -->
<g id="edge1" class="edge">
<title>thunk&#45;&gt;middleware</title>
<path fill="none" stroke="#000000" d="M111.339,-18C125.6897,-18 141.2306,-18 155.9219,-18"/>
<polygon fill="#000000" stroke="#000000" points="155.9319,-21.5001 165.9319,-18 155.9319,-14.5001 155.9319,-21.5001"/>
<text text-anchor="middle" x="138.6269" y="-20.8" font-family="Times,serif" font-size="14.00" fill="#000000">is a</text>
</g>
<!-- enhancer -->
<g id="node3" class="node">
<title>enhancer</title>
<ellipse fill="none" stroke="#000000" cx="377.3677" cy="-18" rx="43.4887" ry="18"/>
<text text-anchor="middle" x="377.3677" y="-13.8" font-family="Times,serif" font-size="14.00" fill="#000000">Enhancer</text>
</g>
<!-- middleware&#45;&gt;enhancer -->
<g id="edge2" class="edge">
<title>middleware&#45;&gt;enhancer</title>
<path fill="none" stroke="#000000" d="M272.1662,-18C288.7618,-18 307.072,-18 323.7009,-18"/>
<polygon fill="#000000" stroke="#000000" points="323.8071,-21.5001 333.8071,-18 323.8071,-14.5001 323.8071,-21.5001"/>
<text text-anchor="middle" x="302.8474" y="-20.8" font-family="Times,serif" font-size="14.00" fill="#000000">is an</text>
</g>
</g>
</svg>
