<?xml version="1.0" encoding="UTF-8" standalone="no"?>
<!DOCTYPE svg PUBLIC "-//W3C//DTD SVG 1.1//EN"
 "http://www.w3.org/Graphics/SVG/1.1/DTD/svg11.dtd">
<!-- Generated by graphviz version 2.40.1 (20161225.0304)
 -->
<!-- Title: %3 Pages: 1 -->
<svg width="506pt" height="98pt"
 viewBox="0.00 0.00 505.86 98.00" xmlns="http://www.w3.org/2000/svg" xmlns:xlink="http://www.w3.org/1999/xlink">
<g id="graph0" class="graph" transform="scale(1 1) rotate(0) translate(4 94)">
<title>%3</title>
<g id="clust1" class="cluster">
<title>cluster_withmid</title>
<polygon fill="transparent" stroke="#000000" points="187.2073,-8 187.2073,-82 489.8559,-82 489.8559,-8 187.2073,-8"/>
<text text-anchor="middle" x="338.5316" y="-66.8" font-family="Times,serif" font-size="14.00" fill="#000000">Middlewared dispatch</text>
</g>
<!-- actioncreator -->
<g id="node1" class="node">
<title>actioncreator</title>
<polygon fill="none" stroke="#000000" points="54.7834,-52 .0721,-52 .0721,-16 54.7834,-16 54.7834,-52"/>
<text text-anchor="middle" x="27.4277" y="-36.8" font-family="Times,serif" font-size="14.00" fill="#000000">Action</text>
<text text-anchor="middle" x="27.4277" y="-22.8" font-family="Times,serif" font-size="14.00" fill="#000000">creator</text>
</g>
<!-- action1 -->
<g id="node2" class="node">
<title>action1</title>
<ellipse fill="none" stroke="#000000" cx="125.0314" cy="-34" rx="34.3527" ry="18"/>
<text text-anchor="middle" x="125.0314" y="-29.8" font-family="Times,serif" font-size="14.00" fill="#000000">Action</text>
</g>
<!-- actioncreator&#45;&gt;action1 -->
<g id="edge1" class="edge">
<title>actioncreator&#45;&gt;action1</title>
<path fill="none" stroke="#000000" d="M54.8755,-34C62.8997,-34 71.8833,-34 80.6731,-34"/>
<polygon fill="#000000" stroke="#000000" points="80.8333,-37.5001 90.8333,-34 80.8333,-30.5001 80.8333,-37.5001"/>
</g>
<!-- mid1 -->
<g id="node4" class="node">
<title>mid1</title>
<polygon fill="none" stroke="#000000" points="278.6704,-52 195.3857,-52 195.3857,-16 278.6704,-16 278.6704,-52"/>
<text text-anchor="middle" x="237.0281" y="-29.8" font-family="Times,serif" font-size="14.00" fill="#000000">Middleware</text>
</g>
<!-- action1&#45;&gt;mid1 -->
<g id="edge2" class="edge">
<title>action1&#45;&gt;mid1</title>
<path fill="none" stroke="#000000" d="M159.2426,-34C167.3802,-34 176.245,-34 184.9808,-34"/>
<polygon fill="#000000" stroke="#000000" points="185.1256,-37.5001 195.1255,-34 185.1255,-30.5001 185.1256,-37.5001"/>
</g>
<!-- storedispatch -->
<g id="node3" class="node">
<title>storedispatch</title>
<polygon fill="none" stroke="#000000" points="481.6845,-52 419.3721,-52 419.3721,-16 481.6845,-16 481.6845,-52"/>
<text text-anchor="middle" x="450.5283" y="-36.8" font-family="Times,serif" font-size="14.00" fill="#000000">Store</text>
<text text-anchor="middle" x="450.5283" y="-22.8" font-family="Times,serif" font-size="14.00" fill="#000000">dispatch</text>
</g>
<!-- action2 -->
<g id="node5" class="node">
<title>action2</title>
<ellipse fill="none" stroke="#000000" cx="349.0248" cy="-34" rx="34.3527" ry="18"/>
<text text-anchor="middle" x="349.0248" y="-29.8" font-family="Times,serif" font-size="14.00" fill="#000000">Action</text>
</g>
<!-- mid1&#45;&gt;action2 -->
<g id="edge3" class="edge">
<title>mid1&#45;&gt;action2</title>
<path fill="none" stroke="#000000" d="M278.7315,-34C287.1323,-34 295.993,-34 304.4863,-34"/>
<polygon fill="#000000" stroke="#000000" points="304.6085,-37.5001 314.6085,-34 304.6084,-30.5001 304.6085,-37.5001"/>
</g>
<!-- action2&#45;&gt;storedispatch -->
<g id="edge4" class="edge">
<title>action2&#45;&gt;storedispatch</title>
<path fill="none" stroke="#000000" d="M383.3892,-34C391.6487,-34 400.5569,-34 409.1,-34"/>
<polygon fill="#000000" stroke="#000000" points="409.2717,-37.5001 419.2716,-34 409.2716,-30.5001 409.2717,-37.5001"/>
</g>
</g>
</svg>
