<?xml version="1.0" encoding="UTF-8" standalone="no"?>
<!DOCTYPE svg PUBLIC "-//W3C//DTD SVG 1.1//EN"
 "http://www.w3.org/Graphics/SVG/1.1/DTD/svg11.dtd">
<!-- Generated by graphviz version 2.40.1 (20161225.0304)
 -->
<!-- Title: %3 Pages: 1 -->
<svg width="548pt" height="206pt"
 viewBox="0.00 0.00 547.84 206.00" xmlns="http://www.w3.org/2000/svg" xmlns:xlink="http://www.w3.org/1999/xlink">
<g id="graph0" class="graph" transform="scale(1 1) rotate(0) translate(4 202)">
<title>%3</title>
<g id="clust1" class="cluster">
<title>cluster_withmid</title>
<polygon fill="transparent" stroke="#000000" points="187.2073,-8 187.2073,-190 531.8423,-190 531.8423,-8 187.2073,-8"/>
<text text-anchor="middle" x="359.5248" y="-174.8" font-family="Times,serif" font-size="14.00" fill="#000000">Middlewared dispatch</text>
</g>
<!-- actioncreator -->
<g id="node1" class="node">
<title>actioncreator</title>
<polygon fill="none" stroke="#000000" points="54.7834,-160 .0721,-160 .0721,-124 54.7834,-124 54.7834,-160"/>
<text text-anchor="middle" x="27.4277" y="-144.8" font-family="Times,serif" font-size="14.00" fill="#000000">Action</text>
<text text-anchor="middle" x="27.4277" y="-130.8" font-family="Times,serif" font-size="14.00" fill="#000000">creator</text>
</g>
<!-- action1 -->
<g id="node2" class="node">
<title>action1</title>
<ellipse fill="none" stroke="#000000" cx="125.0314" cy="-142" rx="34.3527" ry="18"/>
<text text-anchor="middle" x="125.0314" y="-137.8" font-family="Times,serif" font-size="14.00" fill="#000000">Action</text>
</g>
<!-- actioncreator&#45;&gt;action1 -->
<g id="edge1" class="edge">
<title>actioncreator&#45;&gt;action1</title>
<path fill="none" stroke="#000000" d="M54.8755,-142C62.8997,-142 71.8833,-142 80.6731,-142"/>
<polygon fill="#000000" stroke="#000000" points="80.8333,-145.5001 90.8333,-142 80.8333,-138.5001 80.8333,-145.5001"/>
</g>
<!-- mid1 -->
<g id="node4" class="node">
<title>mid1</title>
<polygon fill="none" stroke="#000000" points="289.4198,-160 195.1364,-160 195.1364,-124 289.4198,-124 289.4198,-160"/>
<text text-anchor="middle" x="242.2781" y="-137.8" font-family="Times,serif" font-size="14.00" fill="#000000">Middleware 1</text>
</g>
<!-- action1&#45;&gt;mid1 -->
<g id="edge2" class="edge">
<title>action1&#45;&gt;mid1</title>
<path fill="none" stroke="#000000" d="M159.2592,-142C167.3237,-142 176.1379,-142 184.9144,-142"/>
<polygon fill="#000000" stroke="#000000" points="185.1529,-145.5001 195.1529,-142 185.1528,-138.5001 185.1529,-145.5001"/>
</g>
<!-- storedispatch -->
<g id="node3" class="node">
<title>storedispatch</title>
<polygon fill="none" stroke="#000000" points="507.9277,-52 445.6153,-52 445.6153,-16 507.9277,-16 507.9277,-52"/>
<text text-anchor="middle" x="476.7715" y="-36.8" font-family="Times,serif" font-size="14.00" fill="#000000">Store</text>
<text text-anchor="middle" x="476.7715" y="-22.8" font-family="Times,serif" font-size="14.00" fill="#000000">dispatch</text>
</g>
<!-- action2 -->
<g id="node7" class="node">
<title>action2</title>
<ellipse fill="none" stroke="#000000" cx="359.5248" cy="-142" rx="34.3527" ry="18"/>
<text text-anchor="middle" x="359.5248" y="-137.8" font-family="Times,serif" font-size="14.00" fill="#000000">Action</text>
</g>
<!-- mid1&#45;&gt;action2 -->
<g id="edge3" class="edge">
<title>mid1&#45;&gt;action2</title>
<path fill="none" stroke="#000000" d="M289.6288,-142C298.03,-142 306.7522,-142 315.0697,-142"/>
<polygon fill="#000000" stroke="#000000" points="315.334,-145.5001 325.334,-142 315.3339,-138.5001 315.334,-145.5001"/>
</g>
<!-- mid2 -->
<g id="node5" class="node">
<title>mid2</title>
<polygon fill="none" stroke="#000000" points="523.9132,-133 429.6298,-133 429.6298,-97 523.9132,-97 523.9132,-133"/>
<text text-anchor="middle" x="476.7715" y="-110.8" font-family="Times,serif" font-size="14.00" fill="#000000">Middleware 2</text>
</g>
<!-- action3 -->
<g id="node8" class="node">
<title>action3</title>
<ellipse fill="none" stroke="#000000" cx="359.5248" cy="-88" rx="34.3527" ry="18"/>
<text text-anchor="middle" x="359.5248" y="-83.8" font-family="Times,serif" font-size="14.00" fill="#000000">Action</text>
</g>
<!-- mid2&#45;&gt;action3 -->
<g id="edge5" class="edge">
<title>mid2&#45;&gt;action3</title>
<path fill="none" stroke="#000000" d="M429.3758,-104.0856C419.8764,-101.898 409.9684,-99.6164 400.7005,-97.4821"/>
<polygon fill="#000000" stroke="#000000" points="401.4752,-94.069 390.9447,-95.2355 399.9042,-100.8904 401.4752,-94.069"/>
</g>
<!-- mid3 -->
<g id="node6" class="node">
<title>mid3</title>
<polygon fill="none" stroke="#000000" points="289.4198,-79 195.1364,-79 195.1364,-43 289.4198,-43 289.4198,-79"/>
<text text-anchor="middle" x="242.2781" y="-56.8" font-family="Times,serif" font-size="14.00" fill="#000000">Middleware 3</text>
</g>
<!-- action4 -->
<g id="node9" class="node">
<title>action4</title>
<ellipse fill="none" stroke="#000000" cx="359.5248" cy="-34" rx="34.3527" ry="18"/>
<text text-anchor="middle" x="359.5248" y="-29.8" font-family="Times,serif" font-size="14.00" fill="#000000">Action</text>
</g>
<!-- mid3&#45;&gt;action4 -->
<g id="edge7" class="edge">
<title>mid3&#45;&gt;action4</title>
<path fill="none" stroke="#000000" d="M289.6288,-50.0959C299.1502,-47.9033 309.0838,-45.6157 318.3733,-43.4765"/>
<polygon fill="#000000" stroke="#000000" points="319.1911,-46.8799 328.1506,-41.225 317.6201,-40.0584 319.1911,-46.8799"/>
</g>
<!-- action2&#45;&gt;mid2 -->
<g id="edge4" class="edge">
<title>action2&#45;&gt;mid2</title>
<path fill="none" stroke="#000000" d="M390.9447,-134.7645C399.7968,-132.726 409.7121,-130.4427 419.5736,-128.1717"/>
<polygon fill="#000000" stroke="#000000" points="420.4164,-131.5694 429.3758,-125.9144 418.8454,-124.7479 420.4164,-131.5694"/>
</g>
<!-- action3&#45;&gt;mid3 -->
<g id="edge6" class="edge">
<title>action3&#45;&gt;mid3</title>
<path fill="none" stroke="#000000" d="M328.1506,-80.775C319.2805,-78.7324 309.34,-76.4433 299.4544,-74.1668"/>
<polygon fill="#000000" stroke="#000000" points="300.1592,-70.7376 289.6288,-71.9041 298.5883,-77.559 300.1592,-70.7376"/>
</g>
<!-- action4&#45;&gt;storedispatch -->
<g id="edge8" class="edge">
<title>action4&#45;&gt;storedispatch</title>
<path fill="none" stroke="#000000" d="M393.7526,-34C406.7872,-34 421.7803,-34 435.4074,-34"/>
<polygon fill="#000000" stroke="#000000" points="435.5068,-37.5001 445.5067,-34 435.5067,-30.5001 435.5068,-37.5001"/>
</g>
</g>
</svg>
