<?xml version="1.0" encoding="UTF-8" standalone="no"?>
<!DOCTYPE svg PUBLIC "-//W3C//DTD SVG 1.1//EN"
 "http://www.w3.org/Graphics/SVG/1.1/DTD/svg11.dtd">
<!-- Generated by graphviz version 2.40.1 (20161225.0304)
 -->
<!-- Title: %3 Pages: 1 -->
<svg width="266pt" height="44pt"
 viewBox="0.00 0.00 265.86 44.00" xmlns="http://www.w3.org/2000/svg" xmlns:xlink="http://www.w3.org/1999/xlink">
<g id="graph0" class="graph" transform="scale(1 1) rotate(0) translate(4 40)">
<title>%3</title>
<!-- actioncreator -->
<g id="node1" class="node">
<title>actioncreator</title>
<polygon fill="none" stroke="#000000" points="54.7834,-36 .0721,-36 .0721,0 54.7834,0 54.7834,-36"/>
<text text-anchor="middle" x="27.4277" y="-20.8" font-family="Times,serif" font-size="14.00" fill="#000000">Action</text>
<text text-anchor="middle" x="27.4277" y="-6.8" font-family="Times,serif" font-size="14.00" fill="#000000">creator</text>
</g>
<!-- Action -->
<g id="node3" class="node">
<title>Action</title>
<ellipse fill="none" stroke="#000000" cx="125.0314" cy="-18" rx="34.3527" ry="18"/>
<text text-anchor="middle" x="125.0314" y="-13.8" font-family="Times,serif" font-size="14.00" fill="#000000">Action</text>
</g>
<!-- actioncreator&#45;&gt;Action -->
<g id="edge1" class="edge">
<title>actioncreator&#45;&gt;Action</title>
<path fill="none" stroke="#000000" d="M54.8755,-18C62.8997,-18 71.8833,-18 80.6731,-18"/>
<polygon fill="#000000" stroke="#000000" points="80.8333,-21.5001 90.8333,-18 80.8333,-14.5001 80.8333,-21.5001"/>
</g>
<!-- storedispatch -->
<g id="node2" class="node">
<title>storedispatch</title>
<polygon fill="none" stroke="#000000" points="257.6911,-36 195.3787,-36 195.3787,0 257.6911,0 257.6911,-36"/>
<text text-anchor="middle" x="226.5349" y="-20.8" font-family="Times,serif" font-size="14.00" fill="#000000">Store</text>
<text text-anchor="middle" x="226.5349" y="-6.8" font-family="Times,serif" font-size="14.00" fill="#000000">dispatch</text>
</g>
<!-- Action&#45;&gt;storedispatch -->
<g id="edge2" class="edge">
<title>Action&#45;&gt;storedispatch</title>
<path fill="none" stroke="#000000" d="M159.3958,-18C167.6553,-18 176.5635,-18 185.1066,-18"/>
<polygon fill="#000000" stroke="#000000" points="185.2783,-21.5001 195.2782,-18 185.2782,-14.5001 185.2783,-21.5001"/>
</g>
</g>
</svg>
